<?xml version="1.0" encoding="UTF-8"?>
<!DOCTYPE svg PUBLIC "-//W3C//DTD SVG 1.1//EN" "http://www.w3.org/Graphics/SVG/1.1/DTD/svg11.dtd">
<svg version="1.1" id="Layer_1" xmlns="http://www.w3.org/2000/svg" xmlns:xlink="http://www.w3.org/1999/xlink" x="0px" y="0px" width="16px" height="16px" viewBox="0 0 16 16" enable-background="new 0 0 16 16" xml:space="preserve">
  <g id="main">
    <g id="icon">
      <path d="M0.5,14.5L7.005,14.5L7.092,14.18L7.311,13.6L7.584,13.05L7.908,12.53L8.281,12.04L8.698,11.6L8.484,11.15L8.328,10.67L8.232,10.18L8.2,9.661L8.277,8.884L8.499,8.16L8.85,7.504L9.314,6.932L9.877,6.46L10.52,6.104L11.24,5.879L12,5.8L12.56,5.841L13.09,5.961L13.59,6.153L14.05,6.412L14.47,6.733L14.5,6.758L14.5,4.5L0.5,4.5zz" fill="#FFFFFF"/>
      <path d="M0,4.5L0,14.5L0,15L0.5,15L6.895,15L6.932,14.77L7.092,14.18L7.159,14L1,14L1,5L14,5L14,6.383L14.05,6.412L14.47,6.733L14.85,7.108L15,7.309L15,4.5L15,4L14.5,4L0.5,4L0,4zz" fill="#383838"/>
      <path d="M0.5,4.5L14.5,4.5L14.5,1.5L0.5,1.5zz" fill="#C8C6C4"/>
      <path d="M0,1.5L0,4.5L0,5L0.5,5L14.5,5L15,5L15,4.5L15,1.5L15,1L14.5,1L0.5,1L0,1zM14,2L14,4L1,4L1,2zz" fill="#383838"/>
      <path d="M3,3L4,3L4,0L3,0zM11,3L12,3L12,0L11,0zz" fill="#383838"/>
      <path d="M5,6.5L5,8L2.5,8L2,8L2,8.5L2,10L2,10.5L2,11L2,12.5L2,13L2.5,13L5,13L5.5,13L6,13L7.613,13L7.908,12.53L8.281,12.04L8.698,11.6L8.484,11.15L8.328,10.67L8.232,10.18L8.2,9.661L8.277,8.884L8.499,8.16L8.85,7.504L9,7.319L9,7L9.259,7L9.314,6.932L9.877,6.46L10.52,6.104L10.85,6L9,6L8.5,6L8,6L5.5,6L5,6zM8,7L8,8L6,8L6,7zM5,9L5,10L3,10L3,9zM8,9L8,10L6,10L6,9zM5,11L5,12L3,12L3,11zM8,11L8,12L6,12L6,11zz" fill="#787979" opacity="0.5"/>
      <path d="M5.5,8.5L2.5,8.5L2.5,10.5L2.5,12.5L5.5,12.5L7.929,12.5L8.281,12.04L8.698,11.6L8.484,11.15L8.328,10.67L8.232,10.18L8.2,9.661L8.277,8.884L8.499,8.16L8.85,7.504L9.314,6.932L9.83,6.5L8.5,6.5L5.5,6.5zz" fill="#92CBEE"/>
      <path d="M5,6.5L5,8L2.5,8L2,8L2,8.5L2,10L2,10.5L2,11L2,12.5L2,13L2.5,13L5,13L5.5,13L6,13L7.613,13L7.908,12.53L8.281,12.04L8.698,11.6L8.484,11.15L8.328,10.67L8.232,10.18L8.2,9.661L8.277,8.884L8.499,8.16L8.85,7.504L9,7.319L9,7L9.259,7L9.314,6.932L9.877,6.46L10.52,6.104L10.85,6L9,6L8.5,6L8,6L5.5,6L5,6zM8,7L8,8L6,8L6,7zM5,9L5,10L3,10L3,9zM8,9L8,10L6,10L6,9zM5,11L5,12L3,12L3,11zM8,11L8,12L6,12L6,11zz" fill="#0964B0"/>
    </g>
    <g id="overlay">
      <path d="M14.101,9.661c0,1.193,-0.94,2.216,-2.1,2.216s-2.1,-1.022,-2.1,-2.216S10.84,7.5,12,7.5S14.101,8.468,14.101,9.661zM15.5,16c0,-2.086,-1.607,-4.108,-3.486,-4.108S8.5,13.914,8.5,16" fill="#B8BEC7" stroke="#525A66" stroke-width="1" stroke-miterlimit="10"/>
    </g>
  </g>
</svg>
