<?xml version="1.0" encoding="UTF-8"?>
<!DOCTYPE svg PUBLIC "-//W3C//DTD SVG 1.1//EN" "http://www.w3.org/Graphics/SVG/1.1/DTD/svg11.dtd">
<svg version="1.1" id="Layer_1" xmlns="http://www.w3.org/2000/svg" xmlns:xlink="http://www.w3.org/1999/xlink" x="0px" y="0px" width="16px" height="16px" viewBox="0 0 16 16" enable-background="new 0 0 16 16" xml:space="preserve">
  <g id="main">
    <g id="icon">
      <path d="M0.5,14.5L8,14.5L8,13.99L7.477,13.7L7.035,13.3L6.969,13.34L6.999,13.26L6.727,12.88L6.523,12.45L6.396,11.99L6.351,11.5L6.396,11.01L6.526,10.54L6.733,10.12L7.008,9.736L6.984,9.667L7.037,9.701L7.546,9.257L8.154,8.948L8.329,8.686L8.339,8.627L8.369,8.632L9.024,7.91L9.805,7.335L10.69,6.924L11.16,6.786L11.65,6.696L12.06,6.341L12.54,6.075L13.06,5.907L13.63,5.849L14,5.875L14.36,5.95L14.5,6.009L14.5,4.5L0.5,4.5zz" fill="#FFFFFF"/>
      <path d="M0,4.5L0,14.5L0,15L0.5,15L8,15L8,14L1,14L1,5L14,5L14,5.875L14,5.875L14.36,5.95L15,6.225L15,4.5L15,4L14.5,4L0.5,4L0,4zz" fill="#383838"/>
      <path d="M0.5,4.5L14.5,4.5L14.5,1.5L0.5,1.5zz" fill="#C8C6C4"/>
      <path d="M0,1.5L0,4.5L0,5L0.5,5L14.5,5L15,5L15,4.5L15,1.5L15,1L14.5,1L0.5,1L0,1zM14,2L14,4L1,4L1,2zz" fill="#383838"/>
      <path d="M3,3L4,3L4,0L3,0zM11,3L12,3L12,0L11,0zz" fill="#383838"/>
      <path d="M5,6.5L5,8L2.5,8L2,8L2,8.5L2,10L2,10.5L2,11L2,12.5L2,13L2.5,13L5,13L5.5,13L6,13L6.817,13L6.727,12.88L6.523,12.45L6.398,12L6,12L6,11L6.398,11L6.526,10.54L6.733,10.12L6.818,10L6,10L6,9L8,9L8,9.026L8.154,8.948L8.329,8.686L8.339,8.627L8.369,8.632L9,7.936L9,7L10.53,7L10.69,6.924L11.16,6.786L11.65,6.696L12.06,6.341L12.54,6.075L12.77,6L12.5,6L9,6L8.5,6L8,6L5.5,6L5,6zM8,7L8,8L6,8L6,7zM5,9L5,10L3,10L3,9zM5,11L5,12L3,12L3,11zz" fill="#787979" opacity="0.5"/>
      <path d="M5.5,8.5L2.5,8.5L2.5,10.5L2.5,12.5L5.5,12.5L6.547,12.5L6.523,12.45L6.396,11.99L6.351,11.5L6.396,11.01L6.526,10.54L6.733,10.12L7.008,9.736L6.984,9.667L7.037,9.701L7.546,9.257L8.154,8.948L8.329,8.686L8.339,8.627L8.369,8.632L9.024,7.91L9.805,7.335L10.69,6.924L11.16,6.786L11.65,6.696L11.88,6.5L8.5,6.5L5.5,6.5zz" fill="#92CBEE"/>
      <path d="M5,6.5L5,8L2.5,8L2,8L2,8.5L2,10L2,10.5L2,11L2,12.5L2,13L2.5,13L5,13L5.5,13L6,13L6.817,13L6.727,12.88L6.523,12.45L6.398,12L6,12L6,11L6.398,11L6.526,10.54L6.733,10.12L6.818,10L6,10L6,9L8,9L8,9.026L8.154,8.948L8.329,8.686L8.339,8.627L8.369,8.632L9,7.936L9,7L10.53,7L10.69,6.924L11.16,6.786L11.65,6.696L12.06,6.341L12.54,6.075L12.77,6L12.5,6L9,6L8.5,6L8,6L5.5,6L5,6zM8,7L8,8L6,8L6,7zM5,9L5,10L3,10L3,9zM5,11L5,12L3,12L3,11zz" fill="#0964B0"/>
    </g>
    <g id="overlay">
      <path d="M9.245,12.549c0.433,1.259,1.631,2.164,3.041,2.164c0.101,0,0.202,-0.005,0.301,-0.014M14.503,13.828c0.614,-0.584,0.997,-1.407,0.997,-2.32c0,-0.916,-0.386,-1.742,-1.004,-2.326M12.583,8.317c-0.098,-0.009,-0.197,-0.014,-0.297,-0.014c-1.404,0,-2.598,0.898,-3.035,2.149" fill="none" stroke="#7CA547" stroke-width="0.9" stroke-miterlimit="10"/>
      <path d="M9.25,10.452c0.507,0.084,0.893,0.521,0.893,1.048c0,0.528,-0.389,0.966,-0.898,1.049M9.25,10.452c-0.058,-0.01,-0.118,-0.015,-0.179,-0.015C8.48,10.437,8,10.913,8,11.5c0,0.587,0.48,1.063,1.071,1.063c0.059,0,0.117,-0.005,0.173,-0.014M14.496,9.182c0.126,-0.174,0.201,-0.388,0.201,-0.619c0,-0.587,-0.48,-1.063,-1.071,-1.063c-0.507,0,-0.931,0.349,-1.042,0.817M12.583,8.317c-0.019,0.079,-0.029,0.161,-0.029,0.245c0,0.587,0.48,1.063,1.071,1.063c0.359,0,0.676,-0.175,0.871,-0.444M12.586,14.698c0.117,0.461,0.538,0.802,1.039,0.802c0.592,0,1.071,-0.476,1.071,-1.063c0,-0.227,-0.072,-0.437,-0.194,-0.609M14.503,13.828c-0.194,-0.274,-0.515,-0.454,-0.878,-0.454c-0.592,0,-1.071,0.476,-1.071,1.063c0,0.09,0.011,0.177,0.033,0.261" fill="#FFFFFF" stroke="#7CA547" stroke-width="0.9" stroke-miterlimit="10"/>
    </g>
  </g>
</svg>
