<?xml version="1.0" encoding="UTF-8"?>
<!DOCTYPE svg PUBLIC "-//W3C//DTD SVG 1.1//EN" "http://www.w3.org/Graphics/SVG/1.1/DTD/svg11.dtd">
<svg version="1.1" id="Layer_1" xmlns="http://www.w3.org/2000/svg" xmlns:xlink="http://www.w3.org/1999/xlink" x="0px" y="0px" width="16px" height="16px" viewBox="0 0 16 16" enable-background="new 0 0 16 16" xml:space="preserve">
  <g id="main">
    <g id="icon">
      <path d="M0.5,14.5L4.421,14.5L4.429,14.48L5.079,12.93L5.494,12.06L5.748,11.64L5.917,11.44L12.82,4.5L0.5,4.5zM10.21,14.5L14.5,14.5L14.5,10.19zz" fill="#FFFFFF"/>
      <path d="M0,4.5L0,14.5L0,15L0.5,15L4.218,15L4.429,14.48L4.631,14L1,14L1,5L12.33,5L12.92,4.403L13.21,4.166L13.52,4L0.5,4L0,4zM15,4.003L15,4L14.99,4zM14,10.69L14,14L10.71,14L9.71,15L14.5,15L15,15L15,14.5L15,9.686zz" fill="#383838"/>
      <path d="M0.5,4.5L12.82,4.5L12.92,4.403L13.21,4.166L13.53,3.993L13.89,3.886L14.26,3.85L14.5,3.882L14.5,1.5L0.5,1.5zz" fill="#C8C6C4"/>
      <path d="M0,1.5L0,4.5L0,5L0.5,5L12.33,5L12.92,4.403L13.21,4.166L13.52,4L1,4L1,2L14,2L14,3.875L14.26,3.85L14.81,3.924L15,4.003L15,1.5L15,1L14.5,1L0.5,1L0,1zz" fill="#383838"/>
      <path d="M3,3L4,3L4,0L3,0zM11,3L12,3L12,0L11,0zz" fill="#383838"/>
      <path d="M6,6.5L6,8L2.5,8L2,8L2,8.5L2,10L2,10.5L2,11L2,12.5L2,13L2.5,13L5.052,13L5.079,12.93L5.494,12.06L5.53,12L3,12L3,11L6,11L6,11.36L7.353,10L7,10L7,9L8.347,9L10,7.338L10,7L10.34,7L11.33,6L10,6L9.5,6L9,6L6.5,6L6,6zM9,7L9,8L7,8L7,7zM6,9L6,10L3,10L3,9zM11.7,13L12.5,13L13,13L13,12.5L13,11.7zz" fill="#787979" opacity="0.5"/>
    </g>
    <g id="overlay">
      <path d="M7.084,12.61l7.005,-7.044c0.376,-0.376,1.722,0.969,1.345,1.345l-7.009,7.04C8.231,14.146,5.958,15.1,5.958,15.1S6.889,12.805,7.084,12.61zM13.07,6.592l1.307,1.293M7.131,12.591l1.344,1.344" fill="#FFFFFF" stroke="#228BCB" stroke-width="0.9" stroke-miterlimit="10"/>
    </g>
  </g>
</svg>
