<?xml version="1.0" encoding="UTF-8"?>
<!DOCTYPE svg PUBLIC "-//W3C//DTD SVG 1.1//EN" "http://www.w3.org/Graphics/SVG/1.1/DTD/svg11.dtd">
<svg version="1.1" id="Layer_1" xmlns="http://www.w3.org/2000/svg" xmlns:xlink="http://www.w3.org/1999/xlink" x="0px" y="0px" width="16px" height="16px" viewBox="0 0 16 16" enable-background="new 0 0 16 16" xml:space="preserve">
  <g id="main">
    <g id="icon">
      <path d="M10.08,5.647L9.943,6.193L9.751,6.717L9.511,7.215L9.225,7.685L8.897,8.124L8.529,8.529L8.124,8.897L7.685,9.225L7.215,9.511L6.717,9.751L6.193,9.943L5.647,10.08L5.082,10.17L4.5,10.2L3.825,10.16L3.172,10.04L2.548,9.855L1.956,9.599L1.5,9.337L1.5,15.5L15.5,15.5L15.5,5.5L10.11,5.5zz" fill="#FFFFFF"/>
      <path d="M10.17,5.082L10.08,5.647L9.993,6L15,6L15,15L2,15L2,9.618L1.956,9.599L1.401,9.28L1,8.986L1,15.5L1,16L1.5,16L15.5,16L16,16L16,15.5L16,5.5L16,5L15.5,5L10.17,5zz" fill="#383838"/>
      <path d="M9.855,2.548L10.04,3.172L10.16,3.825L10.2,4.5L10.17,5.082L10.11,5.5L15.5,5.5L15.5,2.5L9.835,2.5zz" fill="#C8C6C4"/>
      <path d="M9.855,2.548L9.992,3L15,3L15,5L10.17,5L10.17,5.082L10.08,5.647L9.993,6L15.5,6L16,6L16,5.5L16,2.5L16,2L15.5,2L9.618,2zz" fill="#383838"/>
      <path d="M12,4L13,4L13,1L12,1zz" fill="#383838"/>
      <path d="M6.5,13.5L10.5,13.5L10.5,10.5L6.5,10.5zz" fill="#F3B8B8"/>
      <path d="M6,10.5L6,13.5L6,14L6.5,14L10.5,14L11,14L11,13.5L11,10.5L11,10L10.5,10L6.5,10L6,10zM10,11L10,13L7,13L7,11zz" fill="#E42D2C"/>
      <g>
        <path d="M3,14L5,14L5,13L4,13L4,11L5,11L5,10.17L4.5,10.2L3.825,10.16L3.172,10.04L3.028,10L3,10zz" fill="#787979" opacity="0.3"/>
        <path d="M9.511,7.215L9.225,7.685L8.989,8L10,8L10,9L11,9L11,8L13,8L13,10L12,10L12,11L13,11L13,13L12,13L12,14L14,14L14,7L9.615,7zz" fill="#787979" opacity="0.3"/>
      </g>
    </g>
    <g id="overlay">
      <path d="M4.5,8.5c2.209,0,4,-1.791,4,-4C8.5,2.291,6.709,0.5,4.5,0.5S0.5,2.291,0.5,4.5C0.5,6.709,2.291,8.5,4.5,8.5zM4.5,1.824l2.564,2.533l-0.703,0.711L5,3.723v3.292H4V3.723L2.639,5.068l-0.703,-0.711L4.5,1.824z" fill="#C9ABD4"/>
      <path d="M4.5,8.5c2.209,0,4,-1.791,4,-4C8.5,2.291,6.709,0.5,4.5,0.5S0.5,2.291,0.5,4.5C0.5,6.709,2.291,8.5,4.5,8.5zM4.5,1.824l2.564,2.533l-0.703,0.711L5,3.723v3.292H4V3.723L2.639,5.068l-0.703,-0.711L4.5,1.824z" fill="#6A3E7A" opacity="0.2"/>
      <path d="M4.5,0c2.481,0,4.5,2.019,4.5,4.5S6.981,9,4.5,9S0,6.981,0,4.5S2.019,0,4.5,0zM4.5,8c1.93,0,3.5,-1.57,3.5,-3.5S6.43,1,4.5,1S1,2.57,1,4.5S2.57,8,4.5,8z" fill="#6A3E7A"/>
      <polygon points="4.5,1.824 7.064,4.356 6.361,5.068 5,3.723 5,7.016 4,7.016 4,3.723 2.639,5.068 1.936,4.356" fill="#FFFFFF" stroke-linejoin="miter"/>
    </g>
  </g>
</svg>
