<?xml version="1.0" encoding="UTF-8"?>
<!DOCTYPE svg PUBLIC "-//W3C//DTD SVG 1.1//EN" "http://www.w3.org/Graphics/SVG/1.1/DTD/svg11.dtd">
<svg version="1.1" id="Layer_1" xmlns="http://www.w3.org/2000/svg" xmlns:xlink="http://www.w3.org/1999/xlink" x="0px" y="0px" width="16px" height="16px" viewBox="0 0 16 16" enable-background="new 0 0 16 16" xml:space="preserve">
  <g id="main">
    <g id="icon">
      <path d="M0.5,14.5L3.98,14.5L3.871,14.13L3.8,13.4L3.8,12.6L3.877,11.84L4.099,11.12L4.45,10.48L4.914,9.914L5.477,9.45L6.123,9.099L6.836,8.877L7.601,8.8L9.8,8.8L11.6,8.8L13.4,8.8L14.13,8.871L14.5,8.981L14.5,4.5L0.5,4.5zz" fill="#FFFFFF"/>
      <path d="M0,4.5L0,14.5L0,15L0.5,15L4.169,15L4.077,14.82L3.871,14.13L3.858,14L1,14L1,5L14,5L14,8.858L14.13,8.871L14.82,9.077L15,9.169L15,4.5L15,4L14.5,4L0.5,4L0,4zz" fill="#383838"/>
      <path d="M0.5,4.5L14.5,4.5L14.5,1.5L0.5,1.5zz" fill="#C8C6C4"/>
      <path d="M0,1.5L0,4.5L0,5L0.5,5L14.5,5L15,5L15,4.5L15,1.5L15,1L14.5,1L0.5,1L0,1zM14,2L14,4L1,4L1,2zz" fill="#383838"/>
      <path d="M3,3L4,3L4,0L3,0zM11,3L12,3L12,0L11,0zz" fill="#383838"/>
      <path d="M5,6.5L5,8L2.5,8L2,8L2,8.5L2,10L2,10.5L2,11L2,12.5L2,13L2.5,13L3.8,13L3.8,12.6L3.861,12L3,12L3,11L4.166,11L4.45,10.48L4.844,10L3,10L3,9L5,9L5,9.844L5.477,9.45L6,9.166L6,9L6.442,9L6.836,8.877L7.601,8.8L9.8,8.8L11.6,8.8L13,8.8L13,8.5L13,8L13,6.5L13,6L12.5,6L10,6L9.5,6L9,6L5.5,6L5,6zM9,7L9,8L6,8L6,7zM12,7L12,8L10,8L10,7zz" fill="#787979" opacity="0.5"/>
      <path d="M5.5,9.438L6.123,9.099L6.836,8.877L7.601,8.8L9.5,8.8L9.5,8.5L5.5,8.5zz" fill="#92CBEE"/>
      <path d="M5,8.5L5,9.844L5.477,9.45L6,9.166L6,9L6.442,9L6.836,8.877L7.601,8.8L9.8,8.8L10,8.8L10,8.5L10,8L9.5,8L5.5,8L5,8zz" fill="#0964B0"/>
    </g>
    <g id="overlay">
      <path d="M9.5,14v-1.399c0,-1.155,0.945,-2.101,2.101,-2.101h1.799c1.155,0,2.101,0.945,2.101,2.101v0.799c0,1.155,-0.945,2.101,-2.101,2.101H12.4M8.6,10.5h-0.999C6.445,10.5,5.5,11.445,5.5,12.601v0.799C5.5,14.555,6.445,15.5,7.601,15.5h1.799c1.155,0,2.101,-0.945,2.101,-2.101V12" fill="none" stroke="#E29B0A" stroke-width="1" stroke-miterlimit="10"/>
    </g>
  </g>
</svg>
