<?xml version="1.0" encoding="UTF-8"?>
<!DOCTYPE svg PUBLIC "-//W3C//DTD SVG 1.1//EN" "http://www.w3.org/Graphics/SVG/1.1/DTD/svg11.dtd">
<svg version="1.1" id="Layer_1" xmlns="http://www.w3.org/2000/svg" xmlns:xlink="http://www.w3.org/1999/xlink" x="0px" y="0px" width="16px" height="16px" viewBox="0 0 16 16" enable-background="new 0 0 16 16" xml:space="preserve">
  <g id="main">
    <g id="icon">
      <path d="M0.5,15.5L14.5,15.5L14.5,12.5L9.4,12.5L9.4,9.2L5.771,9.2L5.771,5.8L9.4,5.8L9.4,5.5L0.5,5.5zz" fill="#FFFFFF"/>
      <path d="M0,5.5L0,15.5L0,16L0.5,16L14.5,16L15,16L15,15.5L15,12.5L14,12.5L14,15L1,15L1,6L5.771,6L5.771,5.8L9.4,5.8L9.4,5L0.5,5L0,5zz" fill="#383838"/>
      <path d="M0.5,5.5L9.4,5.5L9.4,2.5L0.5,2.5zz" fill="#C8C6C4"/>
      <path d="M0,2.5L0,5.5L0,6L0.5,6L5.771,6L5.771,5.8L9.4,5.8L9.4,5L1,5L1,3L9.4,3L9.4,2.5L15,2.5L15,2L14.5,2L0.5,2L0,2zz" fill="#383838"/>
      <path d="M3,4L4,4L4,1L3,1zM11,2.5L12,2.5L12,1L11,1zz" fill="#383838"/>
      <path d="M5,7.5L5,9L2.5,9L2,9L2,9.5L2,11L2,11.5L2,12L2,13.5L2,14L2.5,14L5,14L5.5,14L6,14L9,14L9.5,14L10,14L12.5,14L13,14L13,13.5L13,12.5L12,12.5L12,13L10,13L10,12.5L9.4,12.5L9.4,9.2L5.771,9.2L5.771,7L5.5,7L5,7zM5,10L5,11L3,11L3,10zM9,10L9,11L6,11L6,10zM5,12L5,13L3,13L3,12zM9,12L9,13L6,13L6,12zz" fill="#787979" opacity="0.5"/>
      <path d="M5.5,11.5L9.4,11.5L9.4,9.5L5.5,9.5zz" fill="#92CBEE"/>
      <path d="M5,9.5L5,11.5L5,12L5.5,12L9.4,12L9.4,9.2L5.771,9.2L5.771,9L5.5,9L5,9zM9,10L9,11L6,11L6,10zz" fill="#0964B0"/>
    </g>
    <g id="overlay">
      <path d="M11.994,4.1L15.3,7.45L11.994,10.8M15.271,7.5h-8.3" fill="none" stroke="#99BE6A" stroke-width="1" stroke-miterlimit="10"/>
    </g>
  </g>
</svg>
