<?xml version="1.0" encoding="UTF-8"?>
<!DOCTYPE svg PUBLIC "-//W3C//DTD SVG 1.1//EN" "http://www.w3.org/Graphics/SVG/1.1/DTD/svg11.dtd">
<svg version="1.1" id="Layer_1" xmlns="http://www.w3.org/2000/svg" xmlns:xlink="http://www.w3.org/1999/xlink" x="0px" y="0px" width="16px" height="16px" viewBox="0 0 16 16" enable-background="new 0 0 16 16" xml:space="preserve">
  <g id="main">
    <g id="icon">
      <path d="M0.5,14.5L5.8,14.5L5.8,11.84L5.8,10.83L5.8,10.8L5.805,10.8L5.828,10.64L6.068,9.634L6.475,8.719L7.033,7.903L7.725,7.204L8.532,6.634L9.438,6.209L10.42,5.943L11.48,5.851L12.04,5.887L12.61,5.991L13.16,6.164L13.7,6.401L13.7,6.4L14.5,6.4L14.5,4.5L0.5,4.5zz" fill="#FFFFFF"/>
      <path d="M0,4.5L0,14.5L0,15L0.5,15L5.8,15L5.8,14L1,14L1,5L14,5L14,6.4L15,6.4L15,4.5L15,4L14.5,4L0.5,4L0,4zz" fill="#383838"/>
      <path d="M0.5,4.5L14.5,4.5L14.5,1.5L0.5,1.5zz" fill="#C8C6C4"/>
      <path d="M0,1.5L0,4.5L0,5L0.5,5L14.5,5L15,5L15,4.5L15,1.5L15,1L14.5,1L0.5,1L0,1zM14,2L14,4L1,4L1,2zz" fill="#383838"/>
      <path d="M3,3L4,3L4,0L3,0zM11,3L12,3L12,0L11,0zz" fill="#383838"/>
      <path d="M5.5,12.5L5.8,12.5L5.8,11.84L5.8,10.83L5.8,10.8L5.805,10.8L5.828,10.64L6.068,9.634L6.128,9.5L5.5,9.5zz" fill="#F3B8B8"/>
      <path d="M5,9.5L5,12.5L5,13L5.5,13L5.8,13L5.8,11.84L5.8,10.83L5.8,10.8L5.805,10.8L5.828,10.64L6.068,9.634L6.35,9L5.5,9L5,9zz" fill="#E42D2C"/>
      <g>
        <path d="M2,13L4,13L4,12L3,12L3,10L4,10L4,9L2,9zz" fill="#787979" opacity="0.3"/>
        <path d="M5,8L6,8L6,7L8.013,7L8.532,6.634L9.438,6.209L10.21,6L5,6zM13,6.114L13,6L12.63,6zz" fill="#787979" opacity="0.3"/>
      </g>
    </g>
    <g id="overlay">
      <path d="M15.45,7.4v3.05H15M12.3,10.45h2.7M15.061,10.233c-0.634,-1.312,-2.009,-2.631,-3.585,-2.631c-1.993,0,-3.645,1.407,-3.916,3.285" fill="none" stroke="#87509C" stroke-width="1.1" stroke-miterlimit="10"/>
      <path d="M7.55,15.6v-3.05H8M10.6,12.55H7.9M7.861,12.733c0.634,1.312,2.109,2.631,3.685,2.631c2.003,0,3.662,-1.321,3.92,-3.214" fill="none" stroke="#87509C" stroke-width="1.1" stroke-miterlimit="10"/>
    </g>
  </g>
</svg>
