<?xml version="1.0" encoding="utf-8"?>
<!-- Created with: Axialis IconVectors - www.axialis.com -->
<svg xmlns="http://www.w3.org/2000/svg" version="1.1" xmlns:xlink="http://www.w3.org/1999/xlink" id="Layer_1" viewBox="0 0 16 16">
  <g id="icon">
    <path fill="#FFFFFF" stroke-miterlimit="10" d="M 0.5 14.5 C 2.827 14.5 5.155 14.5 7.482 14.5 C 8.382 13.48 9.281 12.46 10.18 11.44 C 9.364 10.45 8.566 9.438 7.734 8.469 C 7.445 7.895 7.631 7.219 7.58 6.6 C 7.585 6.289 7.47 5.856 7.93 6 C 10.45 6 12.98 6 15.5 6 C 15.5 5.5 15.5 5 15.5 4.5 C 10.5 4.5 5.5 4.5 0.5 4.5 C 0.5 7.833 0.5 11.17 0.5 14.5 z M 13.02 8.971 C 12.71 8.993 12.39 9.066 12.07 9 C 12.75 9.833 13.44 10.67 14.12 11.5 C 13.43 12.29 12.72 13.06 12.05 13.86 C 12.04 14.16 12.54 14 12.74 14.02 C 13.1 13.94 13.47 14.05 13.82 14.02 C 14.25 13.75 14.1 13.15 14.32 12.74 C 14.71 12.85 15.11 12.95 15.5 13.06 C 15.5 11.88 15.5 10.69 15.5 9.512 C 15.03 9.545 14.57 9.592 14.11 9.671 C 13.8 9.749 13.6 9.488 13.63 9.203 C 13.55 8.946 13.23 8.969 13.02 8.971 z "/>
    <path fill="#383838" fill-rule="evenodd" d="M 0 15 C 2.473 15 4.947 15 7.42 15 C 7.345 14.66 7.504 14.41 7.75 14.19 C 8.167 13.87 7.482 14.04 7.272 14 C 5.181 14 3.091 14 1 14 C 1 11 1 8 1 5 C 5.667 5 10.33 5 15 5 C 15 5.333 15 5.667 15 6 C 15.33 6 15.67 6 16 6 C 16 5.333 16 4.667 16 4 C 10.67 4 5.333 4 0 4 C 0 7.667 0 11.33 0 15 z M 15.35 9.52 C 14.91 9.451 14.99 9.771 15 10.1 C 15 11.04 15 11.98 15 12.92 C 15.33 13.01 15.67 13.1 16 13.19 C 16 11.97 16 10.74 16 9.512 C 15.78 9.511 15.56 9.502 15.35 9.52 z M 12.09 14 C 12.38 14.07 12.69 14.01 12.98 14 C 12.69 14 12.36 14 12.09 14 z M 13.47 14.01 C 13.96 14.09 13.79 13.95 13.39 14 L 13.44 14.01 L 13.47 14.01 z "/>
    <path fill="#C8C6C4" stroke-linecap="round" d="M.5,4.5C5.5,4.5,10.5,4.5,15.5,4.5C15.5,3.5,15.5,2.5,15.5,1.5C10.5,1.5,5.5,1.5,.5,1.5C.5,2.5,.5,3.5,.5,4.5z"/>
    <path fill="#383838" fill-rule="evenodd" d="M 0 5 C 5.333 5 10.67 5 16 5 C 16 3.667 16 2.333 16 1 C 10.67 1 5.333 1 0 1 C 0 2.333 0 3.667 0 5 z M 15 2 C 15 2.667 15 3.333 15 4 C 10.33 4 5.667 4 1 4 C 1 3.333 1 2.667 1 2 C 5.667 2 10.33 2 15 2 z "/>
    <path fill="#383838" fill-rule="evenodd" d="M 3 3 C 3.333 3 3.667 3 4 3 C 4 2 4 1 4 0 C 3.667 0 3.333 0 3 0 C 3 1 3 2 3 3 z M 12 3 C 12.33 3 12.67 3 13 3 C 13 2 13 1 13 0 C 12.67 0 12.33 0 12 0 C 12 1 12 2 12 3 z "/>
    <path fill="#F3B8B8" stroke-linecap="round" d="M5.5,12.5C6.75,12.5,8,12.5,9.24,12.5C9.54,12.3,9.52,11.98,9.5,11.66C9.48,11.3,9.55,10.91,9.47,10.57C9.18,10.21,8.89,9.86,8.6,9.5C7.56,9.5,6.53,9.5,5.5,9.5C5.5,10.5,5.5,11.5,5.5,12.5z"/>
    <path fill="#E42D2C" fill-rule="evenodd" d="M 5 13 C 6.268 13 7.536 13 8.805 13 C 9.203 12.55 9.602 12.1 10 11.64 C 10.07 11.31 9.916 11.06 9.684 10.83 C 9.185 10.22 8.686 9.611 8.188 9 C 7.125 9 6.063 9 5 9 C 5 10.33 5 11.67 5 13 z M 9 10 C 9 10.67 9 11.33 9 12 C 8 12 7 12 6 12 C 6 11.33 6 10.67 6 10 C 7 10 8 10 9 10 z "/>
    <g>
      <path opacity="0.3" fill="#787979" stroke-linejoin="miter" d="M2,13C2.67,13,3.33,13,4,13C4,12.67,4,12.33,4,12C3.67,12,3.33,12,3,12C3,11.33,3,10.67,3,10C3.33,10,3.67,10,4,10C4,9.67,4,9.33,4,9C3.33,9,2.67,9,2,9C2,10.33,2,11.67,2,13z"/>
      <path opacity="0.3" fill="#787979" stroke-linejoin="miter" d="M 5 8 C 5.333 8 5.667 8 6 8 C 6 7.667 6 7.333 6 7 C 6.527 7 7.053 7 7.58 7 C 7.58 6.667 7.58 6.333 7.58 6 C 6.72 6 5.86 6 5 6 C 5 6.667 5 7.333 5 8 z M 13.02 8.971 C 12.76 9.013 12.38 9.051 12.07 9 C 12.34 9.333 12.62 9.667 12.89 10 C 13.07 10.07 13.19 10.46 13.41 10.64 C 13.61 10.88 13.8 11.12 14 11.36 C 13.99 10.8 14.03 10.19 13.98 9.678 C 13.63 9.697 13.68 9.333 13.59 9.113 C 13.45 8.946 13.21 8.971 13.02 8.971 z M 12.8 13 C 13.2 13 13.6 13 14 13 C 14 12.54 14 12.09 14 11.63 C 13.6 12.09 13.2 12.54 12.8 13 z "/>
    </g>
  </g>
  <g id="overlay">
    <path fill="none" stroke="#3C76B0" stroke-width="1" stroke-miterlimit="10" d="M15.08,8.56C15.02,7.89,14.96,7.65,14.95,7.5L9.08,7.5L9.08,7.72L12.15,11.47L8.92,15.14L8.92,15.51L15.11,15.51L15.5,14.09"/>
  </g>
</svg>
