<?xml version="1.0" encoding="UTF-8"?>
<!DOCTYPE svg PUBLIC "-//W3C//DTD SVG 1.1//EN" "http://www.w3.org/Graphics/SVG/1.1/DTD/svg11.dtd">
<svg version="1.1" id="Layer_1" xmlns="http://www.w3.org/2000/svg" xmlns:xlink="http://www.w3.org/1999/xlink" x="0px" y="0px" width="16px" height="16px" viewBox="0 0 16 16" enable-background="new 0 0 16 16" xml:space="preserve">
  <g id="main">
    <g id="icon">
      <path d="M11.01,1.902L10.55,1.939L10.51,1.942L10.47,1.952L9.995,2.059L9.959,2.067L9.925,2.079L9.439,2.253L9.411,2.262L9.384,2.275L8.887,2.511L8.855,2.526L8.826,2.544L7.799,3.185L7.771,3.203L7.745,3.223L6.68,4.062L6.662,4.076L6.646,4.091L5.549,5.095L5.538,5.105L5.527,5.115L4.404,6.25L4.395,6.259L4.387,6.268L2.084,8.796L2.082,8.799L2.079,8.801L1.199,9.792L1.199,4.5L-0,4.5L0,12L0.599,12L7.48,12L7.48,10.8L1.909,10.8L2.972,9.604L2.973,9.603L2.977,9.599L5.265,7.086L6.371,5.969L7.44,4.991L8.46,4.187L9.432,3.58L9.871,3.373L10.3,3.221L10.69,3.131L11.07,3.101L11.65,3.138L12.15,3.241L12.56,3.4L12.9,3.609L13.18,3.868L13.42,4.179L13.6,4.547L13.75,4.977L13.84,5.466L13.87,5.8L15.08,5.8L15.03,5.325L15.03,5.294L15.03,5.263L14.92,4.707L14.91,4.67L14.9,4.634L14.73,4.127L14.71,4.084L14.69,4.045L14.46,3.59L14.44,3.544L14.41,3.503L14.11,3.106L14.08,3.061L14.04,3.023L13.67,2.688L13.63,2.648L13.58,2.618L13.15,2.35L13.1,2.321L13.05,2.301L12.54,2.104L12.49,2.086L12.44,2.076L11.85,1.954L11.81,1.945L11.77,1.943L11.1,1.901L11.06,1.898zz" fill="#17AB4F"/>
    </g>
    <g id="overlay">
      <path d="M15.083,8.559c-0.063,-0.67,-0.125,-0.906,-0.138,-1.059H9.082v0.217l3.07,3.756l-3.23,3.669v0.364h6.186l0.392,-1.411" fill="none" stroke="#383838" stroke-width="1" stroke-miterlimit="10"/>
    </g>
  </g>
</svg>
