<?xml version="1.0" encoding="UTF-8"?>
<!DOCTYPE svg PUBLIC "-//W3C//DTD SVG 1.1//EN" "http://www.w3.org/Graphics/SVG/1.1/DTD/svg11.dtd">
<svg version="1.1" id="Layer_1" xmlns="http://www.w3.org/2000/svg" xmlns:xlink="http://www.w3.org/1999/xlink" x="0px" y="0px" width="16px" height="16px" viewBox="0 0 16 16" enable-background="new 0 0 16 16" xml:space="preserve">
  <g id="main">
    <g id="icon">
      <path d="M0.5,15.5L14.5,15.5L14.5,6.697L8.386,11.4L8.193,11.48L8.003,11.44L7.858,11.31L7.8,11.12L7.8,5.5L0.5,5.5zz" fill="#FFFFFF"/>
      <path d="M0,5.5L0,15.5L0,16L0.5,16L14.5,16L15,16L15,15.5L15,6.312L14,7.081L14,15L1,15L1,6L7.8,6L7.8,5L0.5,5L0,5zz" fill="#383838"/>
      <path d="M0.5,5.5L7.8,5.5L7.8,2.5L0.5,2.5zz" fill="#C8C6C4"/>
      <path d="M0,2.5L0,5.5L0,6L0.5,6L7.8,6L7.8,5L1,5L1,3L7.8,3L7.8,2L0.5,2L0,2zz" fill="#383838"/>
      <path d="M3,4L4,4L4,1L3,1zz" fill="#383838"/>
      <path d="M5,7.5L5,9L2.5,9L2,9L2,9.5L2,11L2,11.5L2,12L2,13.5L2,14L2.5,14L5,14L5.5,14L6,14L9,14L9.5,14L10,14L12.5,14L13,14L13,13.5L13,12L13,11.5L13,11L13,10L13,9.5L13,9L13,7.851L12,8.621L12,9L11.51,9L10.21,10L12,10L12,11L10,11L10,10.16L9,10.93L9,11L8.909,11L8.386,11.4L8.193,11.48L8.003,11.44L7.858,11.31L7.8,11.12L7.8,11L6,11L6,10L7.8,10L7.8,9L6,9L6,8L7.8,8L7.8,7L5.5,7L5,7zM5,10L5,11L3,11L3,10zM5,12L5,13L3,13L3,12zM9,12L9,13L6,13L6,12zM12,12L12,13L10,13L10,12zz" fill="#787979" opacity="0.5"/>
      <path d="M5.5,11.5L9.5,11.5L9.5,10.55L8.386,11.4L8.193,11.48L8.003,11.44L7.858,11.31L7.8,11.12L7.8,9.5L5.5,9.5zz" fill="#92CBEE"/>
      <path d="M5,9.5L5,11.5L5,12L5.5,12L9.5,12L10,12L10,11.5L10,10.16L9,10.93L9,11L8.909,11L8.386,11.4L8.193,11.48L8.003,11.44L7.858,11.31L7.8,11.12L7.8,11L6,11L6,10L7.8,10L7.8,9L5.5,9L5,9zz" fill="#0964B0"/>
    </g>
    <g id="overlay">
      <path d="M11.247,3.17l1.132,-2.503l1.372,0.556l-1.127,2.522l2.259,0.513L9.5,8.4V1.6L11.247,3.17z" fill="#FEFFFF" stroke="#64180B" stroke-width="1" stroke-miterlimit="10"/>
    </g>
  </g>
</svg>
