<?xml version="1.0" encoding="UTF-8"?>
<!DOCTYPE svg PUBLIC "-//W3C//DTD SVG 1.1//EN" "http://www.w3.org/Graphics/SVG/1.1/DTD/svg11.dtd">
<svg version="1.1" id="Layer_1" xmlns="http://www.w3.org/2000/svg" xmlns:xlink="http://www.w3.org/1999/xlink" x="0px" y="0px" width="16px" height="16px" viewBox="0 0 16 16" enable-background="new 0 0 16 16" xml:space="preserve">
  <g id="main">
    <g id="icon">
      <path d="M0.5,14.5L10.87,14.5L11.17,14.2L5.8,14.2L5.8,10.8L11.27,10.8L10.16,9.682L12.58,7.288L14.5,9.228L14.5,4.5L0.5,4.5zz" fill="#FFFFFF"/>
      <path d="M0,4.5L0,14.5L0,15L0.5,15L10.38,15L11.17,14.2L5.8,14.2L5.8,14L1,14L1,5L14,5L14,8.724L15,9.732L15,4.5L15,4L14.5,4L0.5,4L0,4zz" fill="#383838"/>
      <path d="M0.5,4.5L14.5,4.5L14.5,1.5L0.5,1.5zz" fill="#C8C6C4"/>
      <path d="M0,1.5L0,4.5L0,5L0.5,5L14.5,5L15,5L15,4.5L15,1.5L15,1L14.5,1L0.5,1L0,1zM14,2L14,4L1,4L1,2zz" fill="#383838"/>
      <path d="M3,3L4,3L4,0L3,0zM11,3L12,3L12,0L11,0zz" fill="#383838"/>
      <path d="M5,6.5L5,8L2.5,8L2,8L2,8.5L2,10L2,10.5L2,11L2,12.5L2,13L2.5,13L5,13L5.5,13L5.8,13L5.8,10.8L11.27,10.8L10.48,10L10,10L10,9L10.85,9L11.86,8L10,8L10,7L12,7L12,7.86L12.58,7.288L13,7.715L13,6.5L13,6L12.5,6L10,6L9.5,6L9,6L5.5,6L5,6zM9,7L9,8L6,8L6,7zM5,9L5,10L3,10L3,9zM9,9L9,10L6,10L6,9zM5,11L5,12L3,12L3,11zz" fill="#787979" opacity="0.5"/>
      <path d="M5.5,10.5L9.5,10.5L9.5,8.5L5.5,8.5zz" fill="#92CBEE"/>
      <path d="M5,8.5L5,10.5L5,11L5.5,11L5.8,11L5.8,10.8L10,10.8L10,10.5L10,8.5L10,8L9.5,8L5.5,8L5,8zM9,9L9,10L6,10L6,9zz" fill="#0964B0"/>
    </g>
    <g id="overlay">
      <path d="M12.214,9.338L15.3,12.45l-3.086,3.112M15.3,12.5H7" fill="none" stroke="#228BCB" stroke-width="1" stroke-miterlimit="10"/>
    </g>
  </g>
</svg>
