<?xml version="1.0" encoding="UTF-8"?>
<!DOCTYPE svg PUBLIC "-//W3C//DTD SVG 1.1//EN" "http://www.w3.org/Graphics/SVG/1.1/DTD/svg11.dtd">
<svg version="1.1" id="Layer_1" xmlns="http://www.w3.org/2000/svg" xmlns:xlink="http://www.w3.org/1999/xlink" x="0px" y="0px" width="32px" height="32px" viewBox="0 0 32 32" enable-background="new 0 0 32 32" xml:space="preserve">
  <g id="main">
    <g id="icon">
      <path d="M0.5,30.5L30.5,30.5L30.5,9.729L19.48,18.46L19.32,18.55L19.16,18.59L18.84,18.53L18.6,18.32L18.53,18.17L18.5,17.99L18.5,8.5L0.5,8.5zz" fill="#FFFFFF"/>
      <path d="M0,8.5L0,30.5L0,31L0.5,31L30.5,31L31,31L31,30.5L31,9.333L30,10.13L30,30L1,30L1,9L18.5,9L18.5,8L0.5,8L0,8zz" fill="#383838"/>
      <path d="M0.5,8.5L18.5,8.5L18.5,3.5L0.5,3.5zz" fill="#C8C6C4"/>
      <path d="M0,3.5L0,8.5L0,9L0.5,9L18.5,9L18.5,8L1,8L1,4L18.5,4L18.5,3L0.5,3L0,3zz" fill="#383838"/>
      <path d="M7.5,6L7.5,1zz" fill="#FFFFFF"/>
      <path d="M7,6L8,6L8,1L7,1zz" fill="#383838"/>
      <path d="M9,11.5L9,15L3.5,15L3,15L3,15.5L3,19L3,19.5L3,20L3,23L3,23.5L3,24L3,27.5L3,28L3.5,28L9,28L9.5,28L10,28L15,28L15.5,28L16,28L21,28L21.5,28L22,28L27.5,28L28,28L28,27.5L28,24L28,23.5L28,23L28,20L28,19.5L28,19L28,16L28,15.5L28,15L28,11.71L27,12.5L27,15L23.85,15L22.58,16L27,16L27,19L22,19L22,16.46L21,17.26L21,19L16,19L16,16L18.5,16L18.5,15L16,15L16,12L18.5,12L18.5,11L16,11L15.5,11L15,11L9.5,11L9,11zM15,12L15,15L10,15L10,12zM9,16L9,19L4,19L4,16zM15,16L15,19L10,19L10,16zM9,20L9,23L4,23L4,20zM15,20L15,23L10,23L10,20zM21,20L21,23L16,23L16,20zM27,20L27,23L22,23L22,20zM9,24L9,27L4,27L4,24zM15,24L15,27L10,27L10,24zM21,24L21,27L16,27L16,24zM27,24L27,27L22,27L22,24zz" fill="#787979" opacity="0.6"/>
      <path d="M9.5,19.5L15.5,19.5L15.5,15.5L9.5,15.5zz" fill="#92CBEE"/>
      <path d="M9,15.5L9,19.5L9,20L9.5,20L15.5,20L16,20L16,19.5L16,15.5L16,15L15.5,15L9.5,15L9,15zM15,16L15,19L10,19L10,16zz" fill="#0964B0"/>
    </g>
    <g id="overlay">
      <path d="M23.883,5.464l2.161,-4.704l2.001,0.932l-2.153,4.738l4.389,0.922L20.5,15.1V2.7L23.883,5.464z" fill="#FEFFFF" stroke="#64180B" stroke-width="1" stroke-miterlimit="10"/>
    </g>
  </g>
</svg>
