<?xml version="1.0" encoding="UTF-8"?>
<!DOCTYPE svg PUBLIC "-//W3C//DTD SVG 1.1//EN" "http://www.w3.org/Graphics/SVG/1.1/DTD/svg11.dtd">
<svg version="1.1" id="Layer_1" xmlns="http://www.w3.org/2000/svg" xmlns:xlink="http://www.w3.org/1999/xlink" x="0px" y="0px" width="32px" height="32px" viewBox="0 0 32 32" enable-background="new 0 0 32 32" xml:space="preserve">
  <g id="main">
    <g id="icon">
      <path d="M0.5,29.5L24.15,29.5L26.03,27.6L15.5,27.6L15.5,23.4L26.13,23.4L22.61,19.84L25.6,16.89L30.5,21.85L30.5,7.5L0.5,7.5zz" fill="#FFFFFF"/>
      <path d="M0,7.5L0,29.5L0,30L0.5,30L23.66,30L24.65,29L1,29L1,8L30,8L30,21.35L31,22.36L31,7.5L31,7L30.5,7L0.5,7L0,7zz" fill="#383838"/>
      <path d="M0.5,7.5L30.5,7.5L30.5,2.5L0.5,2.5zz" fill="#C8C6C4"/>
      <path d="M0,2.5L0,7.5L0,8L0.5,8L30.5,8L31,8L31,7.5L31,2.5L31,2L30.5,2L0.5,2L0,2zM30,3L30,7L1,7L1,3zz" fill="#383838"/>
      <path d="M7,5L8,5L8,0L7,0zM25,5L26,5L26,0L25,0zz" fill="#383838"/>
      <path d="M9,10.5L9,14L3.5,14L3,14L3,14.5L3,18L3,18.5L3,19L3,22L3,22.5L3,23L3,26.5L3,27L3.5,27L9,27L9.5,27L10,27L15,27L15.5,27L15.5,23.4L16,23.4L16,23L21,23L21,23.4L22,23.4L22,23L25.73,23L24.74,22L22,22L22,19L23.46,19L24.47,18L22,18L22,15L27,15L27,18L26.7,18L28,19.32L28,19L28,18.5L28,18L28,15L28,14.5L28,14L28,10.5L28,10L27.5,10L22,10L21.5,10L21,10L16,10L15.5,10L15,10L9.5,10L9,10zM15,11L15,14L10,14L10,11zM21,11L21,14L16,14L16,11zM27,11L27,14L22,14L22,11zM9,15L9,18L4,18L4,15zM15,15L15,18L10,18L10,15zM21,15L21,18L16,18L16,15zM9,19L9,22L4,22L4,19zM15,19L15,22L10,22L10,19zM21,19L21,22L16,22L16,19zM9,23L9,26L4,26L4,23zM15,23L15,26L10,26L10,23zz" fill="#787979" opacity="0.6"/>
      <path d="M9.5,18.5L15.5,18.5L15.5,14.5L9.5,14.5zz" fill="#92CBEE"/>
      <path d="M9,14.5L9,18.5L9,19L9.5,19L15.5,19L16,19L16,18.5L16,14.5L16,14L15.5,14L9.5,14L9,14zM15,15L15,18L10,18L10,15zz" fill="#0964B0"/>
    </g>
    <g id="overlay">
      <path d="M25.158,19.429L31.1,25.45l-5.942,6.021M31,25.5H17" fill="none" stroke="#228BCB" stroke-width="1.2" stroke-miterlimit="10"/>
    </g>
  </g>
</svg>
