<?xml version="1.0" encoding="UTF-8"?>
<!DOCTYPE svg PUBLIC "-//W3C//DTD SVG 1.1//EN" "http://www.w3.org/Graphics/SVG/1.1/DTD/svg11.dtd">
<svg version="1.1" id="Layer_1" xmlns="http://www.w3.org/2000/svg" xmlns:xlink="http://www.w3.org/1999/xlink" x="0px" y="0px" width="16px" height="16px" viewBox="0 0 16 16" enable-background="new 0 0 16 16" xml:space="preserve">
  <g id="main">
    <g id="icon">
      <path d="M10.08,5.647L9.943,6.193L9.751,6.717L9.511,7.215L9.225,7.685L8.897,8.124L8.529,8.529L8.124,8.897L7.685,9.225L7.215,9.511L6.717,9.751L6.193,9.943L5.647,10.08L5.082,10.17L4.5,10.2L3.825,10.16L3.172,10.04L2.548,9.855L2.5,9.834L2.5,15.5L15.5,15.5L15.5,5.5L10.11,5.5zz" fill="#FFFFFF" opacity="0.4"/>
      <path d="M10.17,5.082L10.08,5.647L9.993,6L15,6L15,15L3,15L3,9.992L2.548,9.855L2,9.618L2,16L16,16L16,5L10.17,5zz" fill="#6D6E71"/>
      <path d="M12,4L13,4L13,2L12,2zz" fill="#6D6E71"/>
      <path d="M9.511,7.215L9.225,7.685L8.989,8L10,8L10,9L8,9L8,8.989L7.685,9.225L7.215,9.511L6.717,9.751L6.193,9.943L5.973,10L7,10L7,11L5,11L5,10.17L4.5,10.2L4,10.17L4,14L14,14L14,7L9.615,7zM13,8L13,9L11,9L11,8zM10,10L10,11L8,11L8,10zM13,10L13,11L11,11L11,10zM7,12L7,13L5,13L5,12zM10,12L10,13L8,13L8,12zM13,12L13,13L11,13L11,12zz" fill="#7B7B7B"/>
      <path d="M9.855,2.548L10.04,3.172L10.16,3.825L10.2,4.5L10.17,5.082L10.08,5.647L9.993,6L16,6L16,2L14,2L14,4L11,4L11,2L9.618,2zz" fill="#9070B1"/>
      <path d="M7.685,9.225L7.215,9.511L7,9.615L7,12L11,12L11,9L7.986,9zM10,10L10,11L8,11L8,10zz" fill="#CB525D"/>
      <path d="M8,11L10,11L10,10L8,10zz" fill="#CB525D" opacity="0.3"/>
    </g>
    <g id="overlay">
      <path d="M4.5,0C2.0147,0,0,2.0147,0,4.5s2.0147,4.5,4.5,4.5c2.4853,0,4.5,-2.0147,4.5,-4.5S6.9853,0,4.5,0zM4.5,7.8772L1.2233,4.6611l0.9837,-0.9262L3.8,5.2886V1.4h1.4v3.8886l1.5931,-1.5538l0.9837,0.9262L4.5,7.8772z" fill="#52B250"/>
      <polygon points="7.7767,4.6611 6.7931,3.7348 5.2,5.2886 5.2,1.4 3.8,1.4 3.8,5.2886 2.2069,3.7348 1.2233,4.6611 4.5,7.8772" fill="#FFFFFF" stroke-linejoin="miter"/>
    </g>
  </g>
</svg>
