<?xml version="1.0" encoding="utf-8"?>
<!-- Created with: Axialis IconVectors - www.axialis.com -->
<svg xmlns="http://www.w3.org/2000/svg" version="1.1" xmlns:xlink="http://www.w3.org/1999/xlink" id="Layer_1" viewBox="0 0 16 16">
  <g id="icon">
    <path opacity="0.4" fill="#FFFFFF" d="M 0.5 14.5 C 2.967 14.5 5.434 14.5 7.9 14.5 C 8.01 14.2 8.357 14 8.56 13.74 C 9.13 13.14 9.7 12.55 10.27 11.96 C 9.539 11.18 8.808 10.39 8.072 9.62 C 7.759 9.071 7.994 8.409 7.92 7.81 C 7.993 7.566 7.758 7.014 8.07 7.01 C 10.55 7.01 13.02 7.01 15.5 7.01 C 15.5 6.173 15.5 5.337 15.5 4.5 C 10.5 4.5 5.5 4.5 0.5 4.5 C 0.5 7.833 0.5 11.17 0.5 14.5 z M 13.23 10.19 C 13.14 10.45 13.75 10.77 13.53 10.33 C 13.54 10.18 13.34 10.16 13.23 10.19 z M 15.46 10.89 C 14.99 11.03 14.45 10.83 14.02 11.07 C 14.07 11.36 14.43 11.5 14.57 11.76 C 14.82 12.03 14.61 12.39 14.32 12.51 C 14.71 12.61 15.11 12.71 15.5 12.82 C 15.5 12.17 15.5 11.53 15.5 10.88 L 15.46 10.89 z M 13.72 13.15 C 13.52 13.27 13.14 13.55 13.35 13.79 C 13.65 13.82 13.71 13.36 13.79 13.13 C 13.82 13 13.76 13.1 13.72 13.15 z "/>
    <path fill="#6D6E71" d="M 0 15 C 2.633 15 5.267 15 7.9 15 C 7.901 14.69 7.828 14.35 8.143 14.17 C 8.536 13.87 7.802 14.05 7.605 14 C 5.403 14 3.202 14 1 14 C 1 11 1 8 1 5 C 5.667 5 10.33 5 15 5 C 15 5.67 15 6.34 15 7.01 C 15.33 7.01 15.67 7.01 16 7.01 C 16 6.007 16 5.003 16 4 C 10.67 4 5.333 4 0 4 C 0 7.667 0 11.33 0 15 z M 15.65 10.84 C 15.44 11 14.91 10.78 15 11.15 C 15 11.66 15 12.17 15 12.69 C 15.33 12.77 15.67 12.86 16 12.95 C 16 12.24 16 11.54 16 10.83 C 15.88 10.83 15.76 10.84 15.65 10.84 z "/>
    <path fill="#6D6E71" d="M 3 3 C 3.333 3 3.667 3 4 3 C 4 2 4 1 4 0 C 3.667 0 3.333 0 3 0 C 3 1 3 2 3 3 z M 12 3 C 12.33 3 12.67 3 13 3 C 13 2 13 1 13 0 C 12.67 0 12.33 0 12 0 C 12 1 12 2 12 3 z "/>
    <path fill="#7B7B7B" d="M 6 8 C 4.667 8 3.333 8 2 8 C 2 9.667 2 11.33 2 13 C 4.423 13 6.845 13 9.268 13 C 9.602 12.65 9.936 12.31 10.27 11.96 C 9.898 11.44 10.16 12.02 9.8 12 C 8.867 12 7.933 12 7 12 C 7 11.67 7 11.33 7 11 C 7.79 11 8.581 11 9.371 11 C 9.06 10.67 8.749 10.33 8.438 10 C 7.958 10 7.479 10 7 10 C 7 9.667 7 9.333 7 9 C 7.302 9 7.604 9 7.906 9 C 7.91 8.667 7.945 8.333 7.92 8 C 7.613 8 7.307 8 7 8 C 7 7.667 7 7.333 7 7 C 9.02 6.999 10.99 7.008 13 7 C 13.31 7.023 13.67 7.003 14 7.01 C 14 6.673 14 6.337 14 6 C 11.33 6 8.667 6 6 6 C 6 6.667 6 7.333 6 8 z M 6 9 C 6 9.333 6 9.667 6 10 C 5 10 4 10 3 10 C 3 9.667 3 9.333 3 9 C 4 9 5 9 6 9 z M 13.23 10.19 C 13.14 10.45 13.75 10.77 13.53 10.33 C 13.54 10.18 13.34 10.16 13.23 10.19 z M 6 11 C 6 11.33 6 11.67 6 12 C 5 12 4 12 3 12 C 3 11.67 3 11.33 3 11 C 4 11 5 11 6 11 z "/>
    <path fill="#9070B1" stroke-linejoin="miter" d="M0,5C5.33,5,10.67,5,16,5C16,3.67,16,2.33,16,1C15.33,1,14.67,1,14,1C14,1.67,14,2.33,14,3C13,3,12,3,11,3C11,2.33,11,1.67,11,1C9,1,7,1,5,1C5,1.67,5,2.33,5,3C4,3,3,3,2,3C2,2.33,2,1.67,2,1C1.33,1,.67,1,0,1C0,2.33,0,3.67,0,5z"/>
    <path fill="#CB525D" d="M6,11C7.12,11,8.25,11,9.37,11C9.06,10.67,8.75,10.33,8.44,10C7.96,10,7.48,10,7,10C7,9.67,7,9.33,7,9C7.3,9,7.6,9,7.91,9C7.91,8.67,7.95,8.33,7.92,8C7.28,8,6.64,8,6,8C6,9,6,10,6,11z"/>
    <path opacity="0.3" fill="#CB525D" d="M7,10C7.48,10,7.96,10,8.44,10C8.13,9.75,7.88,9.42,7.91,9C7.6,9,7.3,9,7,9C7,9.33,7,9.67,7,10z"/>
  </g>
  <g id="overlay">
    <path fill="#6485C3" d="M8.9,16L8.9,14.82L11.65,11.97L8.92,9.05L8.92,8.01L15.61,8.01L15.66,8.59C15.66,8.61,15.67,8.66,15.68,8.71C15.7,8.86,15.74,9.09,15.78,9.49L15.82,9.85L14.47,9.97L14.43,9.61C14.42,9.47,14.41,9.37,14.39,9.21L10.88,9.21L13.43,12L10.79,14.8L14.37,14.8L14.69,13.64L16,13.98L15.4,16L8.9,16z"/>
  </g>
</svg>
