<?xml version="1.0" encoding="UTF-8"?>
<!DOCTYPE svg PUBLIC "-//W3C//DTD SVG 1.1//EN" "http://www.w3.org/Graphics/SVG/1.1/DTD/svg11.dtd">
<svg version="1.1" id="Layer_1" xmlns="http://www.w3.org/2000/svg" xmlns:xlink="http://www.w3.org/1999/xlink" x="0px" y="0px" width="16px" height="16px" viewBox="0 0 16 16" enable-background="new 0 0 16 16" xml:space="preserve">
  <g id="main">
    <g id="icon">
      <path d="M0.5,13.5L5.8,13.5L5.8,12.06L5.701,12.06L5.8,11.03L5.8,10.94L5.809,10.94L5.827,10.75L5.902,10.22L6.024,9.714L6.401,8.767L6.941,7.923L7.624,7.2L8.436,6.61L9.357,6.17L10.37,5.895L11.46,5.8L12.48,5.883L13.45,6.132L13.45,5.812L13.5,5.812L13.5,3.5L0.5,3.5zz" fill="#FFFFFF" opacity="0.4"/>
      <path d="M0,14L5.8,14L5.8,13L1,13L1,4L13,4L13,6.016L13.45,6.132L13.45,5.812L14,5.812L14,3L0,3zz" fill="#6D6E71"/>
      <path d="M3,2L4,2L4,0L3,0zM10,2L11,2L11,0L10,0zz" fill="#6D6E71"/>
      <path d="M5,7L2,7L2,12L5.707,12L5.8,11.03L5.8,10.94L5.809,10.94L5.827,10.75L5.902,10.22L6.024,9.714L6.309,9L6,9L6,8L6.892,8L6.941,7.923L7.624,7.2L7.899,7L6,7L6,6L8,6L8,6.927L8.436,6.61L9,6.341L9,6L9.985,6L10.37,5.895L11.46,5.8L12,5.844L12,5L5,5zM5,8L5,9L3,9L3,8zM5,10L5,11L3,11L3,10zz" fill="#7B7B7B"/>
      <path d="M0,4L14,4L14,0L12,0L12,2L9,2L9,0L5,0L5,2L2,2L2,0L0,0zz" fill="#9070B1"/>
      <path d="M5,10L5.955,10L6.024,9.714L6.309,9L6,9L6,8L6.892,8L6.941,7.923L7.624,7.2L7.899,7L5,7zz" fill="#CB525D"/>
      <path d="M6,9L6.309,9L6.401,8.767L6.892,8L6,8zz" fill="#CB525D" opacity="0.3"/>
    </g>
    <g id="overlay">
      <path d="M14.65,7.0121V8.222C13.7217,7.4009,12.6418,7,11.4622,7C9.109,7,7.2359,8.6071,7.021,10.864h1.3595c0.2076,-1.4894,1.4742,-2.5086,3.054,-2.5086c0.9149,0,1.7992,0.4053,2.4808,1.1604h-1.7725v1.3482H16v-3.852H14.65z" fill="#8C53A1"/>
      <path d="M14.618,12.148c-0.2127,1.4829,-1.4769,2.4965,-3.0525,2.4965c-0.9149,0,-1.7992,-0.4053,-2.4808,-1.1604h1.7725V12.136H7v3.852h1.35V14.778c0.9283,0.8211,2.0082,1.222,3.1878,1.222c2.349,0,4.2199,-1.6013,4.4402,-3.852H14.618z" fill="#8C53A1"/>
    </g>
  </g>
</svg>
