<?xml version="1.0" encoding="UTF-8"?>
<!DOCTYPE svg PUBLIC "-//W3C//DTD SVG 1.1//EN" "http://www.w3.org/Graphics/SVG/1.1/DTD/svg11.dtd">
<svg version="1.1" id="Layer_1" xmlns="http://www.w3.org/2000/svg" xmlns:xlink="http://www.w3.org/1999/xlink" x="0px" y="0px" width="16px" height="16px" viewBox="0 0 16 16" enable-background="new 0 0 16 16" xml:space="preserve">
  <g id="icon">
    <path d="M8,0C3.5817,0,0,3.5817,0,8c0,4.4183,3.5817,8,8,8s8,-3.5817,8,-8C16,3.5817,12.4183,0,8,0zM9,13H7v-2h2V13zM9.5789,8.7902l-0.0666,0.0349c-0.1341,0.0702,-0.4419,0.2314,-0.5086,0.3064c-0.0005,0.0059,-0.001,0.0153,-0.0008,0.0289l0.0001,0.8315h-2v-0.8153c-0.021,-1.2842,0.9822,-1.8095,1.5816,-2.1233l0.062,-0.0325c0.7285,-0.3854,0.9425,-0.5845,0.9533,-1.1591c0.0063,-0.3388,-0.1172,-0.6548,-0.3478,-0.8896C8.9489,4.6632,8.4812,4.5,7.8997,4.5c-0.5119,0,-1.191,0.1452,-1.5197,0.837l-0.2146,0.4517L4.3589,4.93l0.2146,-0.4516C5.1712,3.2211,6.3835,2.5,7.8997,2.5c1.4283,0,2.2999,0.5824,2.7796,1.071c0.6096,0.621,0.9364,1.4478,0.9201,2.328C11.5647,7.7396,10.2729,8.423,9.5789,8.7902z" fill="#6485C3"/>
    <path d="M7.0029,9.9918v-0.8153c-0.021,-1.2842,0.9822,-1.8095,1.5816,-2.1233l0.062,-0.0325c0.7285,-0.3854,0.9425,-0.5845,0.9533,-1.1591c0.0063,-0.3388,-0.1172,-0.6548,-0.3478,-0.8896C8.9489,4.6632,8.4812,4.5,7.8997,4.5c-0.5119,0,-1.191,0.1452,-1.5197,0.837l-0.2146,0.4517L4.3589,4.93l0.2146,-0.4516C5.1712,3.2211,6.3835,2.5,7.8997,2.5c1.4283,0,2.2999,0.5824,2.7796,1.071c0.6096,0.621,0.9364,1.4478,0.9201,2.328c-0.0347,1.8406,-1.3266,2.524,-2.0206,2.8912l-0.0666,0.0349c-0.1341,0.0702,-0.4419,0.2314,-0.5086,0.3064c-0.0005,0.0059,-0.001,0.0153,-0.0008,0.0289l0.0001,0.8315H7.0029zM9,11H7v2h2V11z" fill="#FFFFFF"/>
  </g>
</svg>
