<?xml version="1.0" encoding="UTF-8"?>
<!DOCTYPE svg PUBLIC "-//W3C//DTD SVG 1.1//EN" "http://www.w3.org/Graphics/SVG/1.1/DTD/svg11.dtd">
<svg version="1.1" id="Layer_1" xmlns="http://www.w3.org/2000/svg" xmlns:xlink="http://www.w3.org/1999/xlink" x="0px" y="0px" width="16px" height="16px" viewBox="0 0 16 16" enable-background="new 0 0 16 16" xml:space="preserve">
  <g id="main">
    <g id="icon">
      <path d="M0.5,13.5L5.804,13.5L5.804,9.8L9.261,9.8L8.078,8.583L12.3,6.598L13.5,7.83L13.5,3.5L0.5,3.5zz" fill="#FFFFFF" opacity="0.4"/>
      <path d="M0,14L5.804,14L5.804,13L1,13L1,4L13,4L13,7.319L14,8.341L14,3L0,3zz" fill="#6D6E71"/>
      <path d="M3,2L4,2L4,0L3,0zM10,2L11,2L11,0L10,0zz" fill="#6D6E71"/>
      <path d="M5,7L2,7L2,12L5.804,12L5.804,9.8L9.261,9.8L8.078,8.583L9,8.149L9,8L9.317,8L12,6.737L12,5L5,5zM8,6L8,7L6,7L6,6zM11,6L11,7L9,7L9,6zM5,8L5,9L3,9L3,8zM8,8L8,9L6,9L6,8zM5,10L5,11L3,11L3,10zz" fill="#7B7B7B"/>
      <path d="M0,4L14,4L14,0L12,0L12,2L9,2L9,0L5,0L5,2L2,2L2,0L0,0zz" fill="#9070B1"/>
    </g>
    <g id="overlay">
      <polygon points="12.0341,15.9525 10.1109,15.0473 12.1021,13 7.004,13 7.004,11 12.1021,11 10.1109,8.9527 12.0341,8.0475 15.9,12" fill="#6485C3" stroke-linejoin="miter"/>
    </g>
  </g>
</svg>
