<?xml version="1.0" encoding="UTF-8"?>
<!DOCTYPE svg PUBLIC "-//W3C//DTD SVG 1.1//EN" "http://www.w3.org/Graphics/SVG/1.1/DTD/svg11.dtd">
<svg version="1.1" id="Layer_1" xmlns="http://www.w3.org/2000/svg" xmlns:xlink="http://www.w3.org/1999/xlink" x="0px" y="0px" width="16px" height="16px" viewBox="0 0 16 16" enable-background="new 0 0 16 16" xml:space="preserve">
  <g id="main">
    <g id="icon">
      <path d="M2.5,7.834L3.709,6.598L7.926,8.583L6.743,9.8L10.2,9.8L10.2,13.5L15.5,13.5L15.5,3.5L2.5,3.5zz" fill="#FFFFFF" opacity="0.4"/>
      <path d="M2,8L2.338,8L3,7.323L3,4L15,4L15,13L10.2,13L10.2,14L16,14L16,3L2,3zz" fill="#6D6E71"/>
      <path d="M5,2L6,2L6,0L5,0zM12,2L13,2L13,0L12,0zz" fill="#6D6E71"/>
      <path d="M7,7L4.562,7L6.687,8L7,8L7,8.147L7.926,8.583L6.743,9.8L10.2,9.8L10.2,12L14,12L14,5L7,5zM10,6L10,7L8,7L8,6zM13,6L13,7L11,7L11,6zM10,8L10,9L8,9L8,8zM13,8L13,9L11,9L11,8zM13,10L13,11L11,11L11,10zz" fill="#7B7B7B"/>
      <path d="M2,4L16,4L16,0L14,0L14,2L11,2L11,0L7,0L7,2L4,2L4,0L2,0zz" fill="#9070B1"/>
    </g>
    <g id="overlay">
      <polygon points="3.9699,15.9525 5.8931,15.0473 3.902,13 9,13 9,11 3.902,11 5.8931,8.9527 3.9699,8.0475 0.104,12" fill="#6485C3" stroke-linejoin="miter"/>
    </g>
  </g>
</svg>
