<?xml version="1.0" encoding="UTF-8"?>
<!DOCTYPE svg PUBLIC "-//W3C//DTD SVG 1.1//EN" "http://www.w3.org/Graphics/SVG/1.1/DTD/svg11.dtd">
<svg version="1.1" id="Layer_1" xmlns="http://www.w3.org/2000/svg" xmlns:xlink="http://www.w3.org/1999/xlink" x="0px" y="0px" width="16px" height="16px" viewBox="0 0 16 16" enable-background="new 0 0 16 16" xml:space="preserve">
  <g id="main">
    <g id="icon">
      <path d="M4.157,2.542L3.767,2.663L3.415,2.854L3.108,3.108L2.854,3.415L2.663,3.767L2.542,4.157L2.5,4.575L2.5,12.42L2.542,12.84L2.663,13.23L2.854,13.59L3.108,13.89L3.415,14.15L3.767,14.34L4.157,14.46L4.575,14.5L12.52,14.5L12.94,14.46L13.33,14.34L13.69,14.15L13.99,13.89L14.25,13.59L14.44,13.23L14.56,12.84L14.6,12.42L14.6,10L13.61,10L13.14,9.949L12.71,9.803L12.32,9.573L12,9.271L11.68,9.573L11.29,9.803L10.86,9.949L10.4,10L9.111,10L8.686,9.958L8.29,9.837L7.932,9.645L7.619,9.391L7.361,9.084L7.166,8.731L7.043,8.341L7,7.923L7,3.839L7.045,3.414L7.176,3.01L7.387,2.641L7.512,2.5L4.575,2.5zz" fill="#262626"/>
      <path d="M3.996,2.051L3.527,2.196L3.102,2.427L2.732,2.732L2.427,3.102L2.196,3.527L2.051,3.996L2,4.5L2,12.5L2.051,13L2.196,13.47L2.427,13.9L2.732,14.27L3.102,14.57L3.527,14.8L3.996,14.95L4.5,15L12.5,15L13,14.95L13.47,14.8L13.9,14.57L14.27,14.27L14.57,13.9L14.8,13.47L14.95,13L15,12.5L15,9.984L14.89,10L14,10L14,12.5L13.97,12.8L13.88,13.08L13.74,13.34L13.56,13.56L13.34,13.74L13.08,13.88L12.8,13.97L12.5,14L4.5,14L4.198,13.97L3.916,13.88L3.661,13.74L3.439,13.56L3.256,13.34L3.118,13.08L3.03,12.8L3,12.5L3,6L7,6L7,5L3,5L3,4.5L3.03,4.198L3.118,3.916L3.256,3.661L3.439,3.439L3.661,3.256L3.916,3.118L4.198,3.03L4.5,3L7.182,3L7.387,2.641L7.673,2.319L8.021,2L4.5,2zz" fill="#d4d4d4"/>
      <path d="M5.305,1.039L5.146,1.146L5.039,1.305L5,1.5L5,3.5L5.039,3.695L5.146,3.854L5.305,3.961L5.5,4L5.695,3.961L5.854,3.854L5.961,3.695L6,3.5L6,1.5L5.961,1.305L5.854,1.146L5.695,1.039L5.5,1zz" fill="#d4d4d4"/>
      <path d="M5.888,7.096L5.568,7.182L5.251,7.33L4.971,7.53L4.733,7.782L4.543,8.082L4.41,8.414L4.332,8.778L4.346,8.976L4.432,9.148L4.576,9.274L4.763,9.339L4.961,9.325L5.133,9.239L5.26,9.096L5.324,8.907L5.434,8.537L5.628,8.284L5.908,8.122L6.278,8.062L6.631,8.115L6.892,8.252L7.068,8.484L7.136,8.85L7.077,9.201L6.892,9.556L6.589,9.932L6.181,10.36L4.443,12.13L4.307,12.4L4.349,12.7L4.534,12.9L4.8,12.98L4.847,12.98L4.989,12.97L5.187,12.97L7.734,12.97L7.929,12.93L8.088,12.82L8.195,12.66L8.234,12.47L8.195,12.27L8.088,12.11L7.929,12.01L7.734,11.97L6.004,11.97L6.894,11.06L7.32,10.61L7.718,10.12L7.957,9.659L7.932,9.645L7.619,9.391L7.361,9.084L7.166,8.731L7.043,8.341L7,7.923L7,7.19L6.92,7.157L6.576,7.083L6.228,7.063zM11.68,9.573L11.29,9.803L10.86,9.949L10.4,10L10.39,10.02L10.43,10.2L10.53,10.35L10.68,10.45L10.85,10.5L11.53,10.59L11.8,10.74L11.93,10.95L11.98,11.24L11.91,11.55L11.71,11.82L11.38,12.02L10.95,12.1L10.56,12.06L10.3,11.95L10.15,11.83L10.02,11.66L9.942,11.47L9.908,11.35L9.855,11.13L9.733,10.97L9.566,10.88L9.376,10.86L9.184,10.91L9.17,10.91L9.034,11.01L8.941,11.15L8.896,11.31L8.907,11.48L8.99,11.77L9.143,12.13L9.39,12.49L9.788,12.81L10.3,13.02L10.95,13.1L11.36,13.06L11.75,12.95L12.09,12.78L12.39,12.56L12.63,12.29L12.82,11.97L12.94,11.61L12.98,11.24L12.95,10.91L12.87,10.59L12.72,10.3L12.52,10.04L12.39,9.93L12.54,9.702L12.32,9.573L12,9.271zz" fill="#d4d4d4"/>
    </g>
    <g id="overlay">
      <path d="M13.6049,8.5438c-0.354,0,-0.642,-0.2784,-0.642,-0.6205V6.0581c0,-0.3435,-0.288,-0.623,-0.642,-0.623h-0.642c-0.354,0,-0.642,0.2795,-0.642,0.623v1.8652c0,0.3422,-0.288,0.6205,-0.642,0.6205h-1.284c-0.354,0,-0.642,-0.2784,-0.642,-0.6205V3.8389c0,-0.1696,0.0731,-0.3338,0.2005,-0.4505L11.779,0.5413c0.0599,-0.0549,0.1384,-0.0851,0.221,-0.0851s0.1611,0.0302,0.221,0.0851l3.1094,2.8472c0.1274,0.1166,0.2005,0.2808,0.2005,0.4505v4.0844c0,0.3422,-0.288,0.6205,-0.642,0.6205H13.6049z" id="b" fill="#171717"/>
      <path d="M13.6049,9c-0.6127,0,-1.1111,-0.483,-1.1111,-1.0767V6.0581c0,-0.092,-0.0775,-0.1668,-0.1728,-0.1668h-0.642c-0.0953,0,-0.1728,0.0748,-0.1728,0.1668v1.8653c0,0.5937,-0.4985,1.0767,-1.1111,1.0767h-1.284C8.4985,9,8,8.517,8,7.9233V3.8389c0,-0.2949,0.1268,-0.58,0.348,-0.7826l3.1094,-2.8471C11.6046,0.0743,11.7974,0,12,0s0.3954,0.0743,0.5426,0.2092l3.1094,2.8472c0.2212,0.2025,0.348,0.4877,0.348,0.7825v4.0845C16,8.517,15.5015,9,14.8889,9H13.6049zM12.321,4.9814c0.6127,0,1.1111,0.483,1.1111,1.0766v1.8653c0,0.092,0.0775,0.1668,0.1728,0.1668h1.284c0.0953,0,0.1728,-0.0748,0.1728,-0.1668V3.8389c0,-0.0456,-0.0196,-0.0897,-0.0539,-0.121L12,0.9637L8.9921,3.7179c-0.0342,0.0314,-0.0539,0.0754,-0.0539,0.121v4.0845c0,0.092,0.0775,0.1668,0.1728,0.1668h1.284c0.0953,0,0.1728,-0.0748,0.1728,-0.1668V6.0581c0,-0.5936,0.4985,-1.0766,1.1111,-1.0766H12.321z" fill="#06b6d4"/>
    </g>
  </g>
</svg>
