<?xml version="1.0" encoding="UTF-8"?>
<!DOCTYPE svg PUBLIC "-//W3C//DTD SVG 1.1//EN" "http://www.w3.org/Graphics/SVG/1.1/DTD/svg11.dtd">
<svg version="1.1" id="Layer_1" xmlns="http://www.w3.org/2000/svg" xmlns:xlink="http://www.w3.org/1999/xlink" x="0px" y="0px" width="16px" height="16px" viewBox="0 0 16 16" enable-background="new 0 0 16 16" xml:space="preserve">
  <g id="main">
    <g id="icon">
      <path d="M4.157,2.542L3.767,2.663L3.415,2.854L3.108,3.108L2.854,3.415L2.663,3.767L2.542,4.157L2.5,4.575L2.5,12.42L2.542,12.84L2.663,13.23L2.854,13.59L3.108,13.89L3.415,14.15L3.767,14.34L4.157,14.46L4.575,14.5L12.52,14.5L12.94,14.46L13.33,14.34L13.69,14.15L13.99,13.89L14.25,13.59L14.44,13.23L14.56,12.84L14.6,12.42L14.6,8L13.83,8L13.62,8.338L13.33,8.613L12.87,8.855L12.35,8.938L11.82,8.848L11.34,8.592L11.24,8.507L7.588,5.291L7.337,5.023L7.152,4.711L7.037,4.367L6.997,4.001L7.037,3.636L7.152,3.292L7.337,2.98L7.588,2.712L7.829,2.5L4.575,2.5zz" fill="#262626"/>
      <path d="M3.996,2.051L3.527,2.196L3.102,2.427L2.732,2.732L2.427,3.102L2.196,3.527L2.051,3.996L2,4.5L2,12.5L2.051,13L2.196,13.47L2.427,13.9L2.732,14.27L3.102,14.57L3.527,14.8L3.996,14.95L4.5,15L12.5,15L13,14.95L13.47,14.8L13.9,14.57L14.27,14.27L14.57,13.9L14.8,13.47L14.95,13L15,12.5L15,8L14,8L14,12.5L13.97,12.8L13.88,13.08L13.74,13.34L13.56,13.56L13.34,13.74L13.08,13.88L12.8,13.97L12.5,14L4.5,14L4.198,13.97L3.916,13.88L3.661,13.74L3.439,13.56L3.256,13.34L3.118,13.08L3.03,12.8L3,12.5L3,6L8.393,6L7.588,5.291L7.337,5.023L7.324,5L3,5L3,4.5L3.03,4.198L3.118,3.916L3.256,3.661L3.439,3.439L3.661,3.256L3.916,3.118L4.198,3.03L4.5,3L7.325,3L7.337,2.98L7.588,2.712L8,2.349L8,2L4.5,2zz" fill="#d4d4d4"/>
      <path d="M5.305,1.039L5.146,1.146L5.039,1.305L5,1.5L5,3.5L5.039,3.695L5.146,3.854L5.305,3.961L5.5,4L5.695,3.961L5.854,3.854L5.961,3.695L6,3.5L6,1.5L5.961,1.305L5.854,1.146L5.695,1.039L5.5,1zz" fill="#d4d4d4"/>
      <path d="M5.888,7.096L5.568,7.182L5.251,7.33L4.971,7.53L4.733,7.782L4.543,8.082L4.41,8.414L4.332,8.778L4.346,8.976L4.432,9.148L4.576,9.274L4.763,9.339L4.961,9.325L5.133,9.239L5.26,9.096L5.324,8.907L5.434,8.537L5.628,8.284L5.908,8.122L6.278,8.062L6.631,8.115L6.892,8.252L7.068,8.484L7.136,8.85L7.077,9.201L6.892,9.556L6.589,9.932L6.181,10.36L4.443,12.13L4.307,12.4L4.349,12.7L4.534,12.9L4.8,12.98L4.847,12.98L4.989,12.97L5.187,12.97L7.734,12.97L7.929,12.93L8.088,12.82L8.195,12.66L8.234,12.47L8.195,12.27L8.088,12.11L7.929,12.01L7.734,11.97L6.004,11.97L6.894,11.06L7.32,10.61L7.718,10.12L8.015,9.547L8.105,9.21L8.136,8.85L8.093,8.421L7.968,8.047L7.775,7.735L7.528,7.48L7.242,7.29L6.92,7.157L6.576,7.083L6.228,7.063zM9.705,7.53L9.467,7.782L9.277,8.082L9.144,8.413L9.067,8.778L9.08,8.976L9.166,9.147L9.31,9.274L9.497,9.338L9.696,9.325L9.867,9.239L9.994,9.095L10.06,8.907L10.17,8.537L10.36,8.284L10.64,8.122L10.78,8.099L9.939,7.362zM11.79,9.043L11.64,9.26L11.39,9.414L10.95,9.49L10.81,9.51L10.64,9.572L10.51,9.688L10.42,9.843L10.39,10.02L10.43,10.2L10.53,10.35L10.68,10.45L10.85,10.5L11.53,10.59L11.8,10.74L11.93,10.95L11.98,11.24L11.91,11.55L11.71,11.82L11.38,12.02L10.95,12.1L10.56,12.06L10.3,11.95L10.15,11.83L10.02,11.66L9.942,11.47L9.908,11.35L9.855,11.13L9.733,10.97L9.566,10.88L9.376,10.86L9.184,10.91L9.17,10.91L9.034,11.01L8.941,11.15L8.896,11.31L8.907,11.48L8.99,11.77L9.143,12.13L9.39,12.49L9.788,12.81L10.3,13.02L10.95,13.1L11.36,13.06L11.75,12.95L12.09,12.78L12.39,12.56L12.63,12.29L12.82,11.97L12.94,11.61L12.98,11.24L12.95,10.91L12.87,10.59L12.72,10.3L12.52,10.04L12.39,9.93L12.7,9.459L12.81,9.139L12.83,8.86L12.35,8.938L11.83,8.851zz" fill="#d4d4d4"/>
    </g>
    <g id="overlay">
      <path d="M8.5449,4.2291l3.6822,3.3215c0.1113,0.0881,0.273,0.0068,0.273,-0.1372v-1.812l2.4278,-0.0004c0.3159,0,0.5722,-0.5228,0.5722,-0.5721l0.0004,-1.9551c0.0001,-0.3161,-0.2562,-0.5724,-0.5723,-0.5724L12.5,2.5017V0.6893c0,-0.144,-0.1616,-0.2253,-0.273,-0.1372L8.5449,3.8736C8.4312,3.9635,8.4312,4.1392,8.5449,4.2291z" id="b" fill="#171717"/>
      <path d="M7.9973,4.0014c0,-0.2067,0.0898,-0.4011,0.2467,-0.5345l3.6682,-3.2315c0.0124,-0.012,0.0256,-0.0233,0.0393,-0.0339c0.2293,-0.1774,0.5455,-0.1848,0.7888,-0.0059C12.9104,0.3207,13,0.528,13,0.7392v1.2622h1.9c0.2463,0,0.5088,0.0716,0.7013,0.2252c0.2557,0.204,0.3987,0.503,0.3987,0.824l-0.0003,1.9014c-0.0002,0.5785,-0.4703,1.0493,-1.048,1.0494H13v1.2621c0,0.2112,-0.0897,0.4186,-0.2598,0.5437c-0.2433,0.1789,-0.5595,0.1715,-0.7889,-0.006c-0.0138,-0.0107,-0.0267,-0.0219,-0.0391,-0.0338L8.2439,4.5359C8.0871,4.4024,7.9973,4.2081,7.9973,4.0014zM9.0405,4.0513L12,6.5412v-0.9508c0,-0.2697,0.2346,-0.5891,0.5,-0.5891h2.4c0.0476,0,0.1,-0.039,0.1,-0.0866l0.0004,-1.8266c0,-0.0235,-0.0087,-0.0448,-0.025,-0.0614c-0.0164,-0.0167,-0.0522,-0.0254,-0.0754,-0.0254h-2.4c-0.0941,0,-0.1898,-0.0198,-0.2692,-0.0704c-0.1473,-0.0939,-0.2308,-0.2496,-0.2308,-0.4183v-0.9512L9.0405,4.0513z" id="c3" fill="#06b6d4"/>
    </g>
  </g>
</svg>
