<?xml version="1.0" encoding="UTF-8"?>
<!DOCTYPE svg PUBLIC "-//W3C//DTD SVG 1.1//EN" "http://www.w3.org/Graphics/SVG/1.1/DTD/svg11.dtd">
<svg version="1.1" id="Layer_1" xmlns="http://www.w3.org/2000/svg" xmlns:xlink="http://www.w3.org/1999/xlink" x="0px" y="0px" width="16px" height="16px" viewBox="0 0 16 16" enable-background="new 0 0 16 16" xml:space="preserve">
  <g id="main">
    <g id="icon">
      <path d="M4.157,2.542L3.767,2.663L3.415,2.854L3.108,3.108L2.854,3.415L2.663,3.767L2.542,4.157L2.5,4.575L2.5,12.42L2.542,12.84L2.663,13.23L2.854,13.59L3.108,13.89L3.415,14.15L3.767,14.34L4.157,14.46L4.575,14.5L6.8,14.5L6.8,13.2L6.859,12.76L7.028,12.36L6.862,11.97L6.8,11.54L6.8,11.48L6.828,10.94L6.909,10.41L7.041,9.903L7.221,9.415L7.446,8.95L7.715,8.512L8.369,7.725L9.16,7.076L9.601,6.81L10.07,6.586L10.56,6.407L11.07,6.276L11.6,6.196L12.15,6.168L13.16,6.263L14.12,6.541L14.39,6.237L14.6,6.086L14.6,4.575L14.56,4.157L14.44,3.767L14.25,3.415L13.99,3.108L13.69,2.854L13.33,2.663L12.94,2.542L12.52,2.5L4.575,2.5zz" fill="#262626"/>
      <path d="M3.996,2.051L3.527,2.196L3.102,2.427L2.732,2.732L2.427,3.102L2.196,3.527L2.051,3.996L2,4.5L2,12.5L2.051,13L2.196,13.47L2.427,13.9L2.732,14.27L3.102,14.57L3.527,14.8L3.996,14.95L4.5,15L6.8,15L6.8,14L4.5,14L4.198,13.97L3.916,13.88L3.661,13.74L3.439,13.56L3.256,13.34L3.118,13.08L3.03,12.8L3,12.5L3,6L14,6L14,6.505L14.12,6.541L14.39,6.237L14.72,6.003L15,5.891L15,4.5L14.95,3.996L14.8,3.527L14.57,3.102L14.27,2.732L13.9,2.427L13.47,2.196L13,2.051L12.5,2L4.5,2zM12.5,3L12.8,3.03L13.08,3.118L13.34,3.256L13.56,3.439L13.74,3.661L13.88,3.916L13.97,4.198L14,4.5L14,5L3,5L3,4.5L3.03,4.198L3.118,3.916L3.256,3.661L3.439,3.439L3.661,3.256L3.916,3.118L4.198,3.03L4.5,3zz" fill="#d4d4d4"/>
      <path d="M5.305,1.039L5.146,1.146L5.039,1.305L5,1.5L5,3.5L5.039,3.695L5.146,3.854L5.305,3.961L5.5,4L5.695,3.961L5.854,3.854L5.961,3.695L6,3.5L6,1.5L5.961,1.305L5.854,1.146L5.695,1.039L5.5,1zM11.31,1.039L11.15,1.146L11.04,1.305L11,1.5L11,3.5L11.04,3.695L11.15,3.854L11.31,3.961L11.5,4L11.69,3.961L11.85,3.854L11.96,3.695L12,3.5L12,1.5L11.96,1.305L11.85,1.146L11.69,1.039L11.5,1zz" fill="#d4d4d4"/>
      <path d="M4.611,7.079L4.293,7.293L4.079,7.611L4,8L4.079,8.389L4.293,8.707L4.611,8.921L5,9L5.389,8.921L5.707,8.707L5.921,8.389L6,8L5.921,7.611L5.707,7.293L5.389,7.079L5,7zz" fill="#d4d4d4"/>
    </g>
    <g id="overlay">
      <path d="M8.4822,16c-0.0155,0,-0.0312,-0.0007,-0.047,-0.0022c-0.244,-0.023,-0.4352,-0.2379,-0.4352,-0.4892v-2.3065c-0.0002,-0.1985,0.1257,-0.3769,0.3108,-0.4467l0.0227,-0.0224l0.0437,0.0028c0.0121,-0.0027,0.0243,-0.0049,0.0366,-0.0066l0.0061,-0.0045l0.0477,0l0.0159,-0.0007l0.0019,0.0005l2.3319,-0.0034c0.1362,0,0.2661,0.0569,0.3573,0.1561c0.0911,0.0991,0.1361,0.2329,0.1233,0.367c-0.023,0.2415,-0.2398,0.431,-0.4936,0.4313l-1.2798,0.0018c0.5986,0.631,1.4474,1.0001,2.3265,1.0001c1.7561,0,3.1847,-1.414,3.1847,-3.1521l-0.0002,-0.0416c-0.0015,-0.1288,0.0481,-0.2504,0.1397,-0.342c0.0912,-0.0913,0.2127,-0.1416,0.3423,-0.1416c0.2625,0,0.4788,0.2113,0.4821,0.4711l0.0004,0.0541c0,2.2644,-1.8612,4.1065,-4.149,4.1065c-1.0824,0,-2.1151,-0.4177,-2.8868,-1.1573v1.0484C8.9643,15.7859,8.748,16,8.4822,16zM8.4825,12c-0.2625,0,-0.4788,-0.2113,-0.4821,-0.4711L8,11.4748c0,-2.2643,1.8612,-4.1065,4.149,-4.1065c1.0824,0,2.1151,0.4177,2.8868,1.1573V7.4772c0,-0.2631,0.2163,-0.4772,0.4822,-0.4772c0.0155,0,0.0311,0.0007,0.0469,0.0022c0.244,0.023,0.4352,0.2379,0.4352,0.4892v2.3065c0.0002,0.1985,-0.1257,0.3769,-0.3108,0.4467l-0.0226,0.0223l-0.0436,-0.0027c-0.0122,0.0027,-0.0245,0.0049,-0.0368,0.0066l-0.0061,0.0045l-2.3974,0.0036c-0.1362,0,-0.2661,-0.0569,-0.3573,-0.1561c-0.0911,-0.0991,-0.1361,-0.2329,-0.1233,-0.367c0.023,-0.2416,0.2398,-0.431,0.4936,-0.4313l1.2798,-0.0018c-0.5986,-0.631,-1.4474,-1.0001,-2.3265,-1.0001c-1.7561,0,-3.1847,1.414,-3.1847,3.1521l0.0002,0.0416c0.0015,0.1288,-0.0481,0.2504,-0.1397,0.342C8.7337,11.9497,8.6121,12,8.4825,12z" id="c1" fill="#06b6d4"/>
    </g>
  </g>
</svg>
