<?xml version="1.0" encoding="utf-8"?>
<!-- Created with: Axialis IconVectors - www.axialis.com -->
<svg xmlns="http://www.w3.org/2000/svg" version="1.1" xmlns:xlink="http://www.w3.org/1999/xlink" id="Layer_1" viewBox="0 0 16 16">
  <g id="icon">
    <path id="b" fill="#262626" d="M 4.154 2.543 C 3.157 2.741 2.432 3.721 2.5 4.73 C 2.51 7.346 2.48 9.964 2.515 12.58 C 2.56 13.67 3.591 14.56 4.67 14.5 C 5.808 14.5 6.945 14.5 8.082 14.5 C 8.912 13.44 9.898 12.51 10.79 11.5 C 9.826 10.45 8.836 9.411 7.909 8.329 C 7.307 7.403 8.053 5.921 9.2 6 C 10.89 5.991 12.59 6.014 14.28 5.997 C 14.73 6.12 14.58 5.676 14.6 5.384 C 14.62 4.639 14.64 3.798 14.09 3.221 C 13.58 2.59 12.73 2.445 11.97 2.5 C 9.454 2.51 6.936 2.48 4.421 2.515 C 4.332 2.525 4.243 2.534 4.154 2.543 z M 13.43 8.971 C 13.14 8.994 12.85 9.057 12.56 9 C 13.09 9.62 13.72 10.17 14.19 10.84 C 14.55 11.6 14.14 12.49 13.51 12.97 C 13.28 13.34 12.84 13.54 12.66 13.95 C 12.89 14.08 13.24 13.97 13.51 14.02 C 13.96 14.09 14.21 13.66 14.39 13.32 C 14.75 12.56 14.55 11.68 14.6 10.87 C 14.6 10.51 14.6 10.14 14.6 9.779 C 14.18 9.616 14.14 8.974 13.64 8.969 C 13.57 8.969 13.5 8.97 13.43 8.971 z "/>
    <path id="c1" fill="#d4d4d4" d="M 4.244 2.014 C 3.01 2.129 1.989 3.253 2 4.494 C 2.009 7.248 1.982 10 2.014 12.76 C 2.129 13.99 3.253 15.01 4.494 15 C 5.58 15 6.677 15.01 7.756 14.99 C 7.914 14.61 8.249 14.34 8.484 14 C 7.074 13.98 5.66 14.03 4.251 13.97 C 3.444 13.86 2.904 13.04 3 12.25 C 3 10.17 3 8.083 3 6 C 6.806 5.993 10.63 6.013 14.43 5.99 C 14.69 5.953 15.14 6.12 15 5.684 C 14.99 4.839 15.12 3.918 14.61 3.176 C 14.1 2.324 13.07 1.909 12.1 2 C 9.482 2.009 6.862 1.982 4.244 2.014 z M 12.5 3 C 13.36 2.985 14.08 3.798 14 4.65 C 14.14 5.11 13.71 4.995 13.4 5 C 9.933 5 6.467 5 3 5 C 2.946 4.37 3.066 3.655 3.632 3.28 C 4.297 2.822 5.146 3.059 5.9 3 C 8.1 3 10.3 3 12.5 3 z M 14 10.56 C 14.47 11.09 14.39 11.9 14 12.45 C 14.03 13.2 13.42 13.91 12.68 13.99 C 13.24 14 13.97 14.17 14.36 13.63 C 14.44 13.35 14.75 13.23 14.93 13.06 C 15.08 12.22 14.97 11.35 15 10.5 C 14.97 10.23 15.13 9.856 14.73 9.854 C 14.4 9.71 14.18 9.407 14 9.104 C 14 9.59 14 10.08 14 10.56 z "/>
    <path id="c1" fill="#d4d4d4" d="M 5.305 1.039 C 4.824 1.294 5.054 1.913 5 2.35 C 5.034 2.809 4.926 3.298 5.067 3.737 C 5.294 4.208 6.064 3.964 6 3.45 C 5.977 2.736 6.048 2.012 5.961 1.305 C 5.843 1.056 5.563 0.945 5.305 1.039 z M 11.3 1.039 C 10.82 1.294 11.05 1.913 11 2.35 C 11.03 2.809 10.93 3.298 11.07 3.737 C 11.29 4.208 12.06 3.964 12 3.45 C 11.98 2.736 12.05 2.012 11.96 1.305 C 11.84 1.056 11.56 0.945 11.3 1.039 z "/>
    <path id="c2" fill="#d4d4d4" d="M4.8,7.02C4.05,7.15,3.73,8.19,4.29,8.71C4.8,9.26,5.81,8.98,5.97,8.24C6.16,7.56,5.5,6.86,4.8,7.02z"/>
  </g>
  <g id="overlay">
    <path id="c1" fill="#06b6d4" d="M15.2,16L9.2,16C8.92,16,8.7,15.78,8.7,15.5L8.7,15.45C8.7,15.24,8.7,15.24,9.4,14.48C9.74,14.11,10.2,13.62,10.65,13.13C11.23,12.5,11.81,11.87,12.15,11.5C11.81,11.13,11.23,10.5,10.65,9.87C10.2,9.38,9.74,8.89,9.4,8.52C8.7,7.76,8.7,7.76,8.7,7.55L8.7,7.5C8.7,7.22,8.92,7,9.2,7L15.2,7C15.44,7,15.64,7.17,15.69,7.4L15.89,8.4C15.94,8.67,15.77,8.94,15.5,8.99C15.23,9.04,14.96,8.87,14.91,8.6L14.79,8L10.28,8C11.05,8.83,12.28,10.17,13.2,11.16C13.38,11.35,13.38,11.65,13.2,11.84C12.28,12.83,11.05,14.17,10.28,15L14.83,15L15.01,14.38C15.09,14.13,15.34,13.96,15.6,14.01C15.89,14.07,16.06,14.36,15.98,14.64L15.68,15.64C15.62,15.86,15.42,16,15.2,16z"/>
  </g>
</svg>
