<?xml version="1.0" encoding="UTF-8"?>
<!DOCTYPE svg PUBLIC "-//W3C//DTD SVG 1.1//EN" "http://www.w3.org/Graphics/SVG/1.1/DTD/svg11.dtd">
<svg version="1.1" id="Layer_1" xmlns="http://www.w3.org/2000/svg" xmlns:xlink="http://www.w3.org/1999/xlink" x="0px" y="0px" width="16px" height="16px" viewBox="0 0 16 16" enable-background="new 0 0 16 16" xml:space="preserve">
  <g id="icon">
    <path d="M15,6H2V5h13V6zM4.7469,12.9978c0.041,-0.0039,0.0884,-0.0068,0.1419,-0.0088c0.059,-0.0022,0.1251,-0.0032,0.1982,-0.0032h2.5471c0.2761,0,0.5,-0.227,0.5,-0.5069s-0.2239,-0.5069,-0.5,-0.5069H5.904l0.8904,-0.921c0.148,-0.1525,0.2913,-0.3039,0.4258,-0.4499c0.149,-0.1617,0.2828,-0.3302,0.3977,-0.5009c0.1235,-0.1835,0.2234,-0.3788,0.297,-0.5808c0.0801,-0.2197,0.1208,-0.4577,0.1208,-0.7071c0,-0.3068,-0.0566,-0.5805,-0.1681,-0.8135c-0.1098,-0.2293,-0.2577,-0.4226,-0.4398,-0.5748c-0.1774,-0.1482,-0.3819,-0.2584,-0.6077,-0.3275c-0.4517,-0.1385,-0.9439,-0.1252,-1.3525,0.0246c-0.2229,0.0818,-0.4235,0.2005,-0.5961,0.3529c-0.1745,0.1539,-0.3186,0.3424,-0.4284,0.5601c-0.1067,0.2117,-0.1776,0.4491,-0.2106,0.7054c-0.0357,0.2776,0.1572,0.532,0.4311,0.5683c0.2734,0.0365,0.5248,-0.1594,0.5605,-0.437c0.0182,-0.1409,0.055,-0.2672,0.1095,-0.3753c0.0521,-0.1033,0.1156,-0.1872,0.1945,-0.2568c0.0803,-0.0709,0.1718,-0.1246,0.2796,-0.1641c0.11,-0.0403,0.2345,-0.0607,0.37,-0.0607c0.1208,0,0.2363,0.0174,0.3532,0.0532c0.0999,0.0306,0.1854,0.0763,0.2611,0.1395c0.0712,0.0595,0.1288,0.1364,0.176,0.235c0.0449,0.0939,0.0677,0.2186,0.0677,0.3707c0,0.1309,-0.0192,0.2473,-0.0587,0.3557c-0.0453,0.1243,-0.1076,0.2456,-0.185,0.3607c-0.0863,0.1282,-0.188,0.2561,-0.3025,0.3803c-0.1287,0.1396,-0.2659,0.2846,-0.4085,0.4316l-1.738,1.7976c-0.1469,0.152,-0.1846,0.3808,-0.0943,0.5729c0.0835,0.1776,0.2599,0.2888,0.4512,0.2888C4.7154,13,4.7312,12.9993,4.7469,12.9978zM10.8486,13c-0.2396,0,-0.4576,-0.0257,-0.6481,-0.0763c-0.1922,-0.0511,-0.3646,-0.1211,-0.5124,-0.2079c-0.1551,-0.091,-0.2892,-0.201,-0.3983,-0.3267c-0.0974,-0.1122,-0.1802,-0.231,-0.2464,-0.3532c-0.0635,-0.1172,-0.1153,-0.2373,-0.1538,-0.3567c-0.0331,-0.1022,-0.061,-0.201,-0.0827,-0.293c-0.053,-0.2242,0.0559,-0.4551,0.2631,-0.5581l0.0141,-0.007c0.2468,-0.1228,0.5473,-0.0233,0.6708,0.2222c0.0357,0.0709,0.0527,0.1462,0.0529,0.2205c0.0102,0.036,0.0216,0.0733,0.034,0.1118c0.0199,0.0619,0.0475,0.1253,0.082,0.189c0.0319,0.0589,0.0732,0.1177,0.1231,0.1752c0.038,0.0437,0.0885,0.0843,0.1501,0.1205c0.0696,0.0409,0.1576,0.0756,0.2619,0.1034c0.1062,0.0282,0.2374,0.0426,0.3897,0.0426c0.1587,0,0.3042,-0.0254,0.4324,-0.0756c0.1316,-0.0515,0.2401,-0.1169,0.3316,-0.1999c0.0873,-0.0793,0.1535,-0.1686,0.2021,-0.2726c0.0456,-0.0975,0.0678,-0.1972,0.0678,-0.3045c0,-0.1076,-0.0163,-0.2023,-0.0498,-0.2893c-0.0307,-0.0798,-0.0737,-0.1471,-0.1314,-0.2057c-0.0144,-0.0146,-0.0762,-0.0684,-0.2744,-0.1538c0,0,0,0,0,0c-0.0014,0,-0.1375,-0.0437,-0.6734,-0.0866c-0.252,-0.0202,-0.4491,-0.2241,-0.4594,-0.475c-0.0104,-0.251,0.1694,-0.4701,0.4189,-0.5106c0.0344,-0.0056,0.0839,-0.0124,0.1417,-0.0203c0.0977,-0.0133,0.3535,-0.0481,0.4351,-0.0747c0.1306,-0.0647,0.2158,-0.1165,0.2535,-0.154c0.0614,-0.061,0.1101,-0.1315,0.1488,-0.2157c0.0333,-0.0724,0.0496,-0.1535,0.0496,-0.2476c0,-0.1404,-0.0213,-0.2556,-0.0633,-0.3425c-0.0421,-0.0869,-0.0941,-0.1541,-0.1589,-0.2051c-0.0742,-0.0583,-0.1581,-0.1008,-0.2563,-0.1295c-0.2402,-0.0703,-0.5138,-0.0648,-0.7214,0.0098c-0.1078,0.0387,-0.1993,0.0914,-0.2797,0.161c-0.0787,0.0681,-0.1423,0.1504,-0.1944,0.2516c-0.0545,0.1059,-0.0914,0.2297,-0.1096,0.368c-0.0358,0.2721,-0.2871,0.4637,-0.5606,0.4282c-0.2738,-0.0356,-0.4667,-0.285,-0.4309,-0.5571c0.0331,-0.2514,0.104,-0.4841,0.2107,-0.6915c0.1097,-0.2133,0.2538,-0.3979,0.4282,-0.5488c0.1728,-0.1494,0.3734,-0.2658,0.5962,-0.346c0.2194,-0.0788,0.4583,-0.1187,0.7101,-0.1187c0.2157,0,0.4288,0.0303,0.6335,0.0901c0.2206,0.0645,0.4208,0.1667,0.5951,0.3039c0.1837,0.1447,0.3314,0.3309,0.4392,0.5535c0.1076,0.2225,0.1621,0.4825,0.1621,0.773c0,0.2364,-0.0472,0.4588,-0.1403,0.6612c-0.0807,0.1751,-0.1866,0.3324,-0.3153,0.4683c0.0482,0.0366,0.0914,0.0745,0.1302,0.114c0.1531,0.1555,0.271,0.3391,0.3505,0.5457c0.0768,0.1996,0.1157,0.4163,0.1157,0.6441c0,0.2514,-0.0541,0.4947,-0.1608,0.7231c-0.1041,0.2225,-0.2502,0.4201,-0.4345,0.5875c-0.1808,0.1641,-0.396,0.2956,-0.6398,0.391C11.4021,12.9513,11.1333,13,10.8486,13zM11.2788,9.3432c0.0005,-0.0003,0.0011,-0.0006,0.0017,-0.0008C11.2799,9.3427,11.2793,9.3429,11.2788,9.3432z" id="b" fill="#262626"/>
    <path d="M2,12.9917C2,14.1008,2.8992,15,4.0083,15h8.9833c1.1092,0,2.0083,-0.8992,2.0083,-2.0083V6H2V12.9917zM9.07,10.8281l0.0141,-0.007c0.2468,-0.1228,0.5473,-0.0233,0.6708,0.2222c0.0357,0.0709,0.0527,0.1462,0.0529,0.2205c0.0102,0.036,0.0216,0.0733,0.034,0.1118c0.0199,0.0619,0.0475,0.1253,0.082,0.189c0.0319,0.0589,0.0732,0.1177,0.1231,0.1752c0.038,0.0437,0.0885,0.0843,0.1501,0.1205c0.0696,0.0409,0.1576,0.0756,0.2619,0.1034c0.1062,0.0282,0.2374,0.0426,0.3897,0.0426c0.1587,0,0.3042,-0.0254,0.4324,-0.0756c0.1316,-0.0515,0.2401,-0.1169,0.3316,-0.1999c0.0873,-0.0793,0.1535,-0.1686,0.2021,-0.2726c0.0456,-0.0975,0.0678,-0.1972,0.0678,-0.3045c0,-0.1076,-0.0163,-0.2023,-0.0498,-0.2893c-0.0307,-0.0798,-0.0737,-0.1471,-0.1314,-0.2057c-0.0144,-0.0146,-0.0762,-0.0684,-0.2744,-0.1538c0,0,0,0,0,0c-0.0014,0,-0.1375,-0.0437,-0.6734,-0.0866c-0.252,-0.0202,-0.4491,-0.2241,-0.4594,-0.475c-0.0104,-0.251,0.1694,-0.4701,0.4189,-0.5106c0.0344,-0.0056,0.0839,-0.0124,0.1417,-0.0203c0.0977,-0.0133,0.3535,-0.0481,0.4351,-0.0747c0.1306,-0.0647,0.2158,-0.1165,0.2535,-0.154c0.0614,-0.061,0.1101,-0.1315,0.1488,-0.2157c0.0333,-0.0724,0.0496,-0.1535,0.0496,-0.2476c0,-0.1404,-0.0213,-0.2556,-0.0633,-0.3425c-0.0421,-0.0869,-0.0941,-0.1541,-0.1589,-0.2051c-0.0742,-0.0583,-0.1581,-0.1008,-0.2563,-0.1295c-0.2402,-0.0703,-0.5138,-0.0648,-0.7214,0.0098c-0.1078,0.0387,-0.1993,0.0914,-0.2797,0.161c-0.0787,0.0681,-0.1423,0.1504,-0.1944,0.2516c-0.0545,0.1059,-0.0914,0.2297,-0.1096,0.368c-0.0358,0.2721,-0.2871,0.4637,-0.5606,0.4282c-0.2738,-0.0356,-0.4667,-0.285,-0.4309,-0.5571c0.0331,-0.2514,0.104,-0.4841,0.2107,-0.6915c0.1097,-0.2133,0.2538,-0.3979,0.4282,-0.5488c0.1728,-0.1494,0.3734,-0.2658,0.5962,-0.346c0.2194,-0.0788,0.4583,-0.1187,0.7101,-0.1187c0.2157,0,0.4288,0.0303,0.6335,0.0901c0.2206,0.0645,0.4208,0.1667,0.5951,0.3039c0.1837,0.1447,0.3314,0.3309,0.4392,0.5535c0.1076,0.2225,0.1621,0.4825,0.1621,0.773c0,0.2364,-0.0472,0.4588,-0.1403,0.6612c-0.0807,0.1751,-0.1866,0.3324,-0.3153,0.4683c0.0482,0.0366,0.0914,0.0745,0.1302,0.114c0.1531,0.1555,0.271,0.3391,0.3505,0.5457c0.0768,0.1996,0.1157,0.4163,0.1157,0.6441c0,0.2514,-0.0541,0.4947,-0.1608,0.7231c-0.1041,0.2225,-0.2502,0.4201,-0.4345,0.5875c-0.1808,0.1641,-0.396,0.2956,-0.6398,0.391c-0.2453,0.096,-0.514,0.1447,-0.7987,0.1447c-0.2396,0,-0.4576,-0.0257,-0.6481,-0.0763c-0.1922,-0.0511,-0.3646,-0.1211,-0.5124,-0.2079c-0.1551,-0.091,-0.2892,-0.201,-0.3983,-0.3267c-0.0974,-0.1122,-0.1802,-0.231,-0.2464,-0.3532c-0.0635,-0.1172,-0.1153,-0.2373,-0.1538,-0.3567c-0.0331,-0.1022,-0.061,-0.201,-0.0827,-0.293C8.7539,11.1621,8.8627,10.9311,9.07,10.8281zM6.9679,8.4416c-0.0473,-0.0987,-0.1048,-0.1755,-0.176,-0.235c-0.0757,-0.0632,-0.1612,-0.1089,-0.2611,-0.1395c-0.1168,-0.0358,-0.2324,-0.0532,-0.3532,-0.0532c-0.1355,0,-0.26,0.0204,-0.37,0.0607c-0.1078,0.0395,-0.1993,0.0932,-0.2796,0.1641c-0.0789,0.0696,-0.1425,0.1536,-0.1945,0.2568c-0.0545,0.1081,-0.0913,0.2344,-0.1095,0.3753c-0.0358,0.2776,-0.2871,0.4735,-0.5605,0.437c-0.2738,-0.0362,-0.4668,-0.2907,-0.4311,-0.5683c0.033,-0.2563,0.1039,-0.4937,0.2106,-0.7054c0.1098,-0.2178,0.2539,-0.4062,0.4284,-0.5601c0.1726,-0.1524,0.3732,-0.2711,0.5961,-0.3529c0.4086,-0.1497,0.9009,-0.163,1.3525,-0.0246c0.2258,0.0692,0.4302,0.1793,0.6077,0.3275c0.1821,0.1521,0.33,0.3455,0.4398,0.5748c0.1115,0.233,0.1681,0.5067,0.1681,0.8135c0,0.2494,-0.0406,0.4874,-0.1208,0.7071c-0.0736,0.2019,-0.1735,0.3973,-0.297,0.5808c-0.1149,0.1706,-0.2487,0.3391,-0.3977,0.5009c-0.1345,0.146,-0.2778,0.2974,-0.4258,0.4499l-0.8904,0.921h1.7301c0.2761,0,0.5,0.227,0.5,0.5069c0,0.2799,-0.2239,0.5069,-0.5,0.5069H5.087c-0.0731,0,-0.1392,0.001,-0.1982,0.0032c-0.0535,0.002,-0.1009,0.0049,-0.1419,0.0088c-0.0158,0.0015,-0.0315,0.0022,-0.0471,0.0022c-0.1913,0,-0.3677,-0.1112,-0.4512,-0.2888c-0.0903,-0.1921,-0.0526,-0.4209,0.0943,-0.5729l1.738,-1.7976c0.1426,-0.147,0.2798,-0.292,0.4085,-0.4316c0.1145,-0.1242,0.2162,-0.2522,0.3025,-0.3803c0.0774,-0.115,0.1397,-0.2364,0.185,-0.3607c0.0396,-0.1085,0.0587,-0.2248,0.0587,-0.3557C7.0356,8.6601,7.0128,8.5354,6.9679,8.4416zM15,4.0083V5H2v-0.9917c0,-1.1064,0.8947,-2.0034,2,-2.0079V3h3V2h3v1h3v-0.9996C14.1053,2.005,15,2.902,15,4.0083z" id="c1" fill="#06b6d4"/>
    <path d="M5.5,4L5.5,4c-0.2761,0,-0.5,-0.2239,-0.5,-0.5V1.5c0,-0.2761,0.2239,-0.5,0.5,-0.5h0c0.2761,0,0.5,0.2239,0.5,0.5v2C6,3.7761,5.7761,4,5.5,4zM12,3.5V1.5c0,-0.2761,-0.2239,-0.5,-0.5,-0.5h0c-0.2761,0,-0.5,0.2239,-0.5,0.5v2c0,0.2761,0.2239,0.5,0.5,0.5h0C11.7761,4,12,3.7761,12,3.5z" id="c1" fill="#06b6d4"/>
  </g>
</svg>
