<?xml version="1.0" encoding="utf-8"?>
<!-- Generator: Adobe Illustrator 19.0.0, SVG Export Plug-In . SVG Version: 6.00 Build 0)  -->
<svg version="1.1" id="Layer_1" xmlns="http://www.w3.org/2000/svg" xmlns:xlink="http://www.w3.org/1999/xlink" x="0px" y="0px"
	 viewBox="-289 412.9 16 16" style="enable-background:new -289 412.9 16 16;" xml:space="preserve">
<style type="text/css">
	.st0{fill:#FFFFFF;stroke:#797979;stroke-miterlimit:1;}
	.st1{fill:#999999;}
	.st2{fill:#FF5B5B;}
	.st3{fill:#FECDCD;}
	.st4{fill:#3E79B4;}
	.st5{fill:#797979;}
</style>
<g id="icon">
	<path class="st0" d="M-274.2,428.6h-13.6c-0.4,0-0.7-0.3-0.7-0.7v-10.3h15v10.3C-273.5,428.3-273.8,428.6-274.2,428.6z"/>
	<path class="st1" d="M-283,420.1v3h-3v4h10v-7H-283z M-283,426.1h-2v-2h2V426.1z M-280,426.1h-2v-2h2V426.1z M-280,423.1h-2v-2h2
		V423.1z M-277,426.1h-2v-2h2V426.1z M-277,423.1h-2v-2h2V423.1z"/>
	<rect x="-286" y="423.1" class="st2" width="10" height="4"/>
	<rect x="-283" y="420.1" class="st2" width="4" height="3"/>
	<rect x="-282" y="424.1" class="st3" width="2" height="2"/>
	<rect x="-279" y="424.1" class="st3" width="2" height="2"/>
	<rect x="-285" y="424.1" class="st3" width="2" height="2"/>
	<rect x="-282" y="421.1" class="st3" width="2" height="2"/>
	<path class="st4" d="M-274.3,414.1h-0.7v2h-3v-2h-6v2h-3v-2h-0.7c-0.7,0-1.3,0.6-1.3,1.3v2.7h16v-2.7
		C-273,414.7-273.6,414.1-274.3,414.1z"/>
	<g>
		<rect x="-286" y="413.1" class="st5" width="1" height="3"/>
		<rect x="-277" y="413.1" class="st5" width="1" height="3"/>
	</g>
</g>
</svg>
