<?xml version="1.0" encoding="utf-8"?>
<!-- Generator: Adobe Illustrator 19.0.0, SVG Export Plug-In . SVG Version: 6.00 Build 0)  -->
<svg version="1.1" id="Layer_1" xmlns="http://www.w3.org/2000/svg" xmlns:xlink="http://www.w3.org/1999/xlink" x="0px" y="0px"
	 viewBox="-289 412.9 16 16" style="enable-background:new -289 412.9 16 16;" xml:space="preserve">
<style type="text/css">
	.st0{fill:#FFFFFF;stroke:#797979;stroke-miterlimit:1;}
	.st1{fill:#999999;}
	.st2{fill:#FF5B5B;}
	.st3{fill:#FECDCD;}
	.st4{fill:#3E79B4;}
	.st5{fill:#797979;}
</style>
<g id="icon">
	<path class="st0" d="M-274.2,428.4h-13.6c-0.4,0-0.7-0.3-0.7-0.7v-10.3h15v10.3C-273.5,428.1-273.8,428.4-274.2,428.4z"/>
	<path class="st1" d="M-283,419.9v3h-3v4h10v-7H-283z M-283,425.9h-2v-2h2V425.9z M-280,425.9h-2v-2h2V425.9z M-280,422.9h-2v-2h2
		V422.9z M-277,425.9h-2v-2h2V425.9z M-277,422.9h-2v-2h2V422.9z"/>
	<rect x="-286" y="422.9" class="st2" width="10" height="4"/>
	<rect x="-282" y="423.9" class="st3" width="2" height="2"/>
	<rect x="-279" y="423.9" class="st3" width="2" height="2"/>
	<rect x="-285" y="423.9" class="st3" width="2" height="2"/>
	<path class="st4" d="M-274.3,413.9h-0.7v2h-3v-2h-6v2h-3v-2h-0.7c-0.7,0-1.3,0.6-1.3,1.3v2.7h16v-2.7
		C-273,414.5-273.6,413.9-274.3,413.9z"/>
	<g>
		<rect x="-286" y="412.9" class="st5" width="1" height="3"/>
		<rect x="-277" y="412.9" class="st5" width="1" height="3"/>
	</g>
</g>
</svg>
