<?xml version="1.0" encoding="utf-8"?>
<!-- Generator: Adobe Illustrator 19.0.0, SVG Export Plug-In . SVG Version: 6.00 Build 0)  -->
<svg version="1.1" id="Layer_1" xmlns="http://www.w3.org/2000/svg" xmlns:xlink="http://www.w3.org/1999/xlink" x="0px" y="0px"
	 viewBox="-289 412.9 16 16" style="enable-background:new -289 412.9 16 16;" xml:space="preserve">
<style type="text/css">
	.st0{fill:#FFFFFF;stroke:#797979;stroke-miterlimit:1;}
	.st1{fill:#3E79B4;}
	.st2{fill:#797979;}
	.st3{fill:#E0E0E0;}
	.st4{fill:#FF5B5B;}
</style>
<g id="icon">
	<path class="st0" d="M-274.2,428.4h-13.6c-0.4,0-0.7-0.3-0.7-0.7v-10.3h15v10.3C-273.5,428.1-273.8,428.4-274.2,428.4z"/>
	<path class="st1" d="M-274.3,413.9h-0.7v2h-3v-2h-6v2h-3v-2h-0.7c-0.7,0-1.3,0.6-1.3,1.3v2.7h16v-2.7
		C-273,414.5-273.6,413.9-274.3,413.9z"/>
	<g>
		<rect x="-286" y="412.9" class="st2" width="1" height="3"/>
		<rect x="-277" y="412.9" class="st2" width="1" height="3"/>
	</g>
	<path class="st3" d="M-283,419.9v3h-4v4h12v-7H-283z M-283,425.9h-3v-2h3V425.9z M-280,425.9h-2v-2h2V425.9z M-280,422.9h-2v-2h2
		V422.9z M-276,425.9h-3v-2h3V425.9z M-276,422.9h-3v-2h3V422.9z"/>
	<g>
		<path class="st4" d="M-279.6,426.2c0,0.1-0.1,0.2-0.2,0.2h-0.9c-0.1,0-0.2-0.1-0.2-0.2v-5.3l-0.9,0.6c-0.1,0.1-0.2,0-0.3,0
			l-0.4-0.5c-0.1-0.1-0.1-0.2,0-0.2l1.4-1.3c0.1-0.1,0.2-0.1,0.3-0.1h0.9c0.1,0,0.2,0.1,0.2,0.2V426.2z"/>
	</g>
</g>
</svg>
