<?xml version="1.0" encoding="utf-8"?>
<!-- Created with: Axialis IconVectors - www.axialis.com -->
<svg xmlns="http://www.w3.org/2000/svg" version="1.1" xmlns:xlink="http://www.w3.org/1999/xlink" id="Layer_1" viewBox="0 0 16 16">
  <g id="icon">
    <path fill="#FFFFFF" fill-rule="evenodd" d="M 0.5 14.8 C 0.4896 15.32 1.043 15.59 1.499 15.5 C 3.496 15.5 5.492 15.5 7.488 15.5 C 7.441 15.05 7.754 14.72 8.035 14.42 C 8.777 13.56 9.628 12.81 10.4 11.98 C 9.569 11.07 8.719 10.17 7.893 9.256 C 7.387 8.499 7.705 7.18 8.69 7.031 C 10.58 6.965 12.48 7.024 14.38 6.993 C 14.76 6.989 15.13 7.022 15.5 7.1 C 15.5 5.9 15.5 4.7 15.5 3.5 C 10.5 3.5 5.5 3.5 0.5 3.5 C 0.5 7.267 0.5 11.03 0.5 14.8 z M 15.18 11.25 C 14.98 11.38 14.39 11.06 14.5 11.37 C 14.65 12.15 13.96 12.74 13.43 13.2 C 13.12 13.4 13.39 13.68 13.68 13.57 C 14.07 13.68 14.07 13.27 14.25 13.04 C 14.53 12.65 15.01 12.36 15.5 12.44 C 15.5 12.02 15.5 11.6 15.5 11.17 C 15.39 11.2 15.28 11.23 15.18 11.25 z "/>
    <path fill="#797979" d="M 1.039 1.027 C 0.3477 1.157 -0.08855 1.873 0 2.551 C 0.006485 6.667 -0.01296 10.78 0.00971 14.9 C 0.04239 15.61 0.771 16.1 1.449 16 C 3.48 16 5.512 16 7.543 16 C 7.461 15.67 7.467 15.32 7.57 15 C 5.422 14.99 3.269 15.02 1.123 14.98 C 0.8742 14.78 1.055 14.38 1 14.1 C 1 10.73 1 7.367 1 4 C 5.667 4 10.33 4 15 4 C 15 5.008 15 6.016 15 7.023 C 15.37 7.05 15.76 7.11 16 7.422 C 15.99 5.649 16.03 3.873 15.98 2.102 C 15.89 1.38 15.15 0.906 14.45 1 C 10.03 1.007 5.616 0.9862 1.201 1.01 C 1.147 1.016 1.093 1.022 1.039 1.027 z M 15.85 11.01 C 15.59 11.15 15.3 11.26 15 11.26 C 15 11.67 15 12.08 15 12.48 C 15.33 12.35 15.67 12.49 16 12.54 C 16 11.99 16 11.44 16 10.89 C 15.95 10.93 15.9 10.97 15.85 11.01 z "/>
    <path fill="#B4B4B5" d="M 3 5.5 C 3.333 5.5 3.667 5.5 4 5.5 C 4 5 4 4.5 4 4 C 3.667 4 3.333 4 3 4 C 3 4.5 3 5 3 5.5 z M 6 5.5 C 6.333 5.5 6.667 5.5 7 5.5 C 7 5 7 4.5 7 4 C 6.667 4 6.333 4 6 4 C 6 4.5 6 5 6 5.5 z M 9 6 C 8.5 6 8 6 7.5 6 C 7.5 6.333 7.5 6.667 7.5 7 C 9.039 7.013 10.55 6.996 12.1 7 C 13.07 7.019 14.02 6.97 15 7 C 15 6.667 15 6.333 15 6 C 14.33 6 13.67 6 13 6 C 13 5.333 13 4.667 13 4 C 12.67 4 12.33 4 12 4 C 12 4.667 12 5.333 12 6 C 11.33 6 10.67 6 10 6 C 10 5.333 10 4.667 10 4 C 9.667 4 9.333 4 9 4 C 9 4.667 9 5.333 9 6 z M 1 7 C 1.5 7 2 7 2.5 7 C 2.5 6.667 2.5 6.333 2.5 6 C 2 6 1.5 6 1 6 C 1 6.333 1 6.667 1 7 z M 1 10 C 1.5 10 2 10 2.5 10 C 2.5 9.667 2.5 9.333 2.5 9 C 2 9 1.5 9 1 9 C 1 9.333 1 9.667 1 10 z M 7.5 10 C 7.859 10 8.219 10 8.578 10 C 8.314 9.66 7.907 9.425 7.766 9 C 7.329 8.868 7.553 9.398 7.5 9.65 C 7.5 9.767 7.5 9.883 7.5 10 z M 9 12 C 8.333 12 7.667 12 7 12 C 7 11.5 7 11 7 10.5 C 6.667 10.5 6.333 10.5 6 10.5 C 6 11 6 11.5 6 12 C 5.333 12 4.667 12 4 12 C 4 11.5 4 11 4 10.5 C 3.667 10.5 3.333 10.5 3 10.5 C 3 11 3 11.5 3 12 C 2.333 12 1.667 12 1 12 C 1 12.33 1 12.67 1 13 C 1.667 13 2.333 13 3 13 C 3 13.67 3 14.33 3 15 C 3.333 15 3.667 15 4 15 C 4 14.33 4 13.67 4 13 C 4.667 13 5.333 13 6 13 C 6 13.67 6 14.33 6 15 C 6.333 15 6.667 15 7 15 C 7 14.33 7 13.67 7 13 C 7.667 13 8.333 13 9 13 C 8.904 13.54 9.149 13.27 9.392 13.01 C 9.731 12.68 10.05 12.34 10.38 12 C 9.936 12.13 10.01 11.81 9.966 11.51 C 9.644 11.16 9.322 10.81 9 10.46 C 9 10.97 9 11.49 9 12 z M 14.36 12.19 C 14.18 12.5 13.92 12.75 13.67 13 C 13.96 12.97 14.31 13.11 14.47 12.79 C 14.63 12.55 15.12 12.6 15 12.23 C 15.14 11.89 14.51 11.94 14.4 12.09 C 14.39 12.12 14.37 12.16 14.36 12.19 z "/>
    <path fill="#CD4C32" d="M 3 10 C 4.333 10 5.667 10 7 10 C 7 8.667 7 7.333 7 6 C 5.667 6 4.333 6 3 6 C 3 7.333 3 8.667 3 10 z M 6 7 C 6 7.667 6 8.333 6 9 C 5.333 9 4.667 9 4 9 C 4 8.333 4 7.667 4 7 C 4.667 7 5.333 7 6 7 z "/>
  </g>
  <g id="overlay">
    <path fill="#529FBF" d="M8.78,16C8.63,16,8.5,15.88,8.5,15.73L8.5,15.45C8.5,15.38,8.53,15.31,8.58,15.26L11.78,12L8.74,8.7C8.69,8.65,8.67,8.59,8.67,8.52L8.67,8.27C8.67,8.12,8.79,8,8.95,8L15.05,8C15.19,8,15.32,8.11,15.33,8.25C15.34,8.44,15.4,9.28,15.47,9.91C15.48,10.06,15.38,10.19,15.22,10.21L14.85,10.25C14.84,10.26,14.83,10.26,14.81,10.26C14.69,10.26,14.58,10.18,14.54,10.06C14.39,9.52,14.27,9.34,14.13,9.2L14.12,9.19C14.02,9.07,13.76,8.91,12.79,8.91L11.13,8.91L13.44,11.43C13.54,11.53,13.54,11.69,13.44,11.79L10.82,14.56L13.7,14.56C14.41,14.56,14.71,14.53,15.08,13.61C15.12,13.5,15.23,13.43,15.34,13.43C15.36,13.43,15.39,13.44,15.41,13.44L15.78,13.53C15.86,13.55,15.92,13.59,15.96,13.65C16,13.72,16.01,13.79,15.99,13.86L15.48,15.8C15.45,15.92,15.34,16,15.21,16L8.78,16z"/>
  </g>
</svg>
