<?xml version="1.0" encoding="UTF-8"?>
<!DOCTYPE svg PUBLIC "-//W3C//DTD SVG 1.1//EN" "http://www.w3.org/Graphics/SVG/1.1/DTD/svg11.dtd">
<svg version="1.1" id="Layer_1" xmlns="http://www.w3.org/2000/svg" xmlns:xlink="http://www.w3.org/1999/xlink" x="0px" y="0px" width="16px" height="16px" viewBox="0 0 16 16" enable-background="new 0 0 16 16" xml:space="preserve">
  <g id="main">
    <clipPath id="clip_mask">
      <path d="M7.6564,0C9.0722,0.9961,10,2.6412,10,4.5c0,3.0327,-2.4673,5.5,-5.5,5.5c-1.8588,0,-3.5039,-0.9278,-4.5,-2.3436V16h16V0H7.6564z"/>
    </clipPath>
    <g id="icon" clip-path="url(#clip_mask)">
      <g id="transformed_icon" transform="translate(1 1)">
        <path d="M13.8,14.5H1.2c-0.385,0,-0.7,-0.315,-0.7,-0.7V2.5h14v11.3C14.5,14.185,14.185,14.5,13.8,14.5z" fill-rule="evenodd" fill="#FFFFFF"/>
        <path d="M13.7,0H1.3C0.583,0,0,0.583,0,1.3v1.7v1v9.8c0,0.662,0.538,1.2,1.2,1.2h12.6c0.662,0,1.2,-0.538,1.2,-1.2V4V3V1.3C15,0.583,14.417,0,13.7,0zM14,13.8c0,0.108,-0.092,0.2,-0.2,0.2H1.2c-0.108,0,-0.2,-0.092,-0.2,-0.2V3h13V13.8z" fill="#797979"/>
        <path d="M6,4.5V3h1v1.5H6zM4,4.5V3H3v1.5H4zM3,9.5h1v1.5h2V9.5h1v1.5h2V9H7.5V8h1.5V6H7.5V5h1.5V3h1v2h2V3h1v2h1v1h-1v2h1v1h-1v2h1v1h-1v2h-1v-2h-2v2H9v-2H7v2H6v-2H4v2H3v-2H1v-1h2V9.5zM10,11h2V9h-2V11zM10,8h2V6h-2V8zM1,5v1h1.5V5H1zM2.5,8H1v1h1.5V8z" fill="#B4B4B5"/>
        <path d="M3,5v4h4V5H3zM4,6h2v2H4V6z" fill="#CD4C32"/>
      </g>
    </g>
    <g id="overlay">
      <path d="M8.7375,3.9804L6.326,3.8797c-0.0271,-0.0799,-0.0592,-0.1576,-0.0961,-0.2324l1.6339,-1.7762c0.1025,-0.1025,0.1025,-0.2687,0,-0.3712l-0.3637,-0.3637c-0.1025,-0.1025,-0.2687,-0.1025,-0.3712,0L5.3527,2.7701c-0.0748,-0.037,-0.1525,-0.069,-0.2324,-0.0961L5.0196,0.2625c0,-0.145,-0.1175,-0.2625,-0.2625,-0.2625h-0.5143c-0.145,0,-0.2625,0.1175,-0.2625,0.2625L3.8797,2.674c-0.0799,0.0271,-0.1575,0.0592,-0.2324,0.0961L1.8711,1.1362c-0.1025,-0.1025,-0.2687,-0.1025,-0.3712,0l-0.3637,0.3637c-0.1025,0.1025,-0.1025,0.2687,0,0.3712l1.6339,1.7762c-0.037,0.0748,-0.069,0.1525,-0.0961,0.2324L0.2625,3.9804C0.1175,3.9804,0,4.0979,0,4.2429v0.5143c0,0.145,0.1175,0.2625,0.2625,0.2625l2.4115,0.1007c0.0271,0.0799,0.0592,0.1576,0.0961,0.2324L1.1362,7.1289c-0.1025,0.1025,-0.1025,0.2687,0,0.3712l0.3637,0.3637c0.1025,0.1025,0.2687,0.1025,0.3712,0l1.7762,-1.6339c0.0748,0.037,0.1525,0.069,0.2324,0.0961l0.1007,2.4115c0,0.145,0.1175,0.2625,0.2625,0.2625h0.5143c0.145,0,0.2625,-0.1175,0.2625,-0.2625l0.1007,-2.4115c0.0799,-0.0271,0.1576,-0.0592,0.2324,-0.0961l1.7762,1.6339c0.1025,0.1025,0.2687,0.1025,0.3712,0l0.3637,-0.3637c0.1025,-0.1025,0.1025,-0.2687,0,-0.3712L6.2299,5.3527c0.037,-0.0748,0.069,-0.1525,0.0961,-0.2324l2.4115,-0.1007c0.145,0,0.2625,-0.1175,0.2625,-0.2625v-0.5143C9,4.0979,8.8825,3.9804,8.7375,3.9804zM4.5,5.1c-0.426,0,-0.6,-0.174,-0.6,-0.6c0,-0.426,0.174,-0.6,0.6,-0.6s0.6,0.174,0.6,0.6C5.1,4.926,4.926,5.1,4.5,5.1z" fill-rule="evenodd" fill="#EAB765"/>
    </g>
  </g>
</svg>
