<?xml version="1.0" encoding="UTF-8"?>
<!DOCTYPE svg PUBLIC "-//W3C//DTD SVG 1.1//EN" "http://www.w3.org/Graphics/SVG/1.1/DTD/svg11.dtd">
<svg version="1.1" id="Layer_1" xmlns="http://www.w3.org/2000/svg" xmlns:xlink="http://www.w3.org/1999/xlink" x="0px" y="0px" width="32px" height="32px" viewBox="0 0 32 32" enable-background="new 0 0 32 32" xml:space="preserve">
  <g id="main">
    <clipPath id="clip_mask">
      <path d="M0,0v24.1892c1.5184,-1.5238,5.1786,-5.2439,5.2191,-5.285l0.0131,-0.0133l0.0136,-0.0128c0.2585,-0.2438,0.5964,-0.378,0.9516,-0.378l3.5294,0.0106c0.4763,0.0013,0.9018,0.2868,1.0837,0.7272c0.1819,0.4404,0.0819,0.943,-0.2547,1.2802L8.1167,23H14.6c0.7851,0,1.4,0.588,1.4,1.3387v2.266c0,0.7647,-0.6222,1.3953,-1.3869,1.3953H8.117l2.4474,2.5055c0.3296,0.3323,0.428,0.833,0.2447,1.2727c-0.0331,0.0794,-0.0743,0.1534,-0.1221,0.2218H32V0H0z" fill-rule="evenodd"/>
    </clipPath>
    <g id="icon" clip-path="url(#clip_mask)">
      <g id="transformed_icon" transform="translate(1 0)">
        <path d="M30,28.5H2c-0.276,0,-0.5,-0.224,-0.5,-0.5V8.5h29v19.5C30.5,28.276,30.276,28.5,30,28.5z" fill="#FFFFFF"/>
        <path d="M29.6,3H2.4c-0.773,0,-1.4,0.627,-1.4,1.4v3.6v1v19c0,0.551,0.449,1,1,1h28c0.551,0,1,-0.449,1,-1V9V8V4.4C31,3.627,30.373,3,29.6,3zM30.001,28H2V9h28L30.001,28z" fill="#797979"/>
        <path d="M7,13v6h7v-6H7zM13,18H8v-4h5V18z" fill="#CD4C32"/>
        <g>
          <rect x="13" y="9" width="1" height="3" fill="#B4B4B5"/>
          <rect x="7" y="9" width="1" height="3" fill="#B4B4B5"/>
          <path d="M7,28h1v-4h5v4h1v-4h5v4h1v-4h5v4h1v-4h4v-1h-4v-4h4v-1h-4v-4h4v-1h-4V9h-1v4h-5V9h-1v4h-4v1h4v4h-4v1h4v4h-5v-3h-1v3H8v-3H7v3H2v1h5V28zM20,14h5v4h-5V14zM20,19h5v4h-5V19z" fill="#B4B4B5"/>
          <rect x="2" y="13" width="4" height="1" fill="#B4B4B5"/>
          <rect x="2" y="18" width="4" height="1" fill="#B4B4B5"/>
        </g>
      </g>
    </g>
    <g id="overlay">
      <path d="M5.9319,19.6055c0.0721,-0.068,0.1675,-0.1058,0.2667,-0.1055l3.5252,0.0106c0.1568,0.0004,0.2351,0.19,0.1243,0.301L5.7319,24H14.6c0.2137,0,0.4,0.1251,0.4,0.3387v0.8455v0.7578v0.6627c0,0.2137,-0.1732,0.3869,-0.3869,0.3869H5.745l4.1034,4.2078c0.1104,0.1113,0.0316,0.3006,-0.1252,0.3006H6.218c-0.1,0,-0.196,-0.0387,-0.2681,-0.108c0,0,-4.4704,-4.5109,-5.6296,-5.6841c-0.1186,-0.12,-0.1178,-0.3079,0.0019,-0.4268C1.4795,24.1311,5.9319,19.6055,5.9319,19.6055z" fill-rule="evenodd" fill="#3E79B4"/>
    </g>
  </g>
</svg>
