<?xml version="1.0" encoding="UTF-8"?>
<!DOCTYPE svg PUBLIC "-//W3C//DTD SVG 1.1//EN" "http://www.w3.org/Graphics/SVG/1.1/DTD/svg11.dtd">
<svg version="1.1" id="Layer_1" xmlns="http://www.w3.org/2000/svg" xmlns:xlink="http://www.w3.org/1999/xlink" x="0px" y="0px" width="32px" height="32px" viewBox="0 0 32 32" enable-background="new 0 0 32 32" xml:space="preserve">
  <g id="main">
    <clipPath id="clip_mask">
      <path d="M21.2213,31.7619c-0.1818,-0.4404,-0.0817,-0.943,0.255,-1.2801L23.9152,28h-6.4833c-0.7851,0,-1.4319,-0.5881,-1.4319,-1.3388v-2.266c0,-0.7647,0.6541,-1.3953,1.4188,-1.3953h6.4961l-2.4474,-2.5055c-0.3295,-0.3321,-0.428,-0.8328,-0.2448,-1.2726c0.1832,-0.4398,0.6094,-0.7219,1.0859,-0.7219h3.5052c0.3603,0,0.7016,0.1375,0.9612,0.3871l0.0172,0.017c0,0,3.6474,3.6804,5.2077,5.2574V0H0v32h21.3537C21.3014,31.9271,21.2566,31.8475,21.2213,31.7619z" fill-rule="evenodd"/>
    </clipPath>
    <g id="icon" clip-path="url(#clip_mask)">
      <g id="transformed_icon" transform="translate(-1 -1)">
        <path d="M30,28.5H2c-0.276,0,-0.5,-0.224,-0.5,-0.5V8.5h29v19.5C30.5,28.276,30.276,28.5,30,28.5z" fill="#FFFFFF"/>
        <path d="M29.6,3H2.4c-0.773,0,-1.4,0.627,-1.4,1.4v3.6v1v19c0,0.551,0.449,1,1,1h28c0.551,0,1,-0.449,1,-1V9V8V4.4C31,3.627,30.373,3,29.6,3zM30.001,28H2V9h28L30.001,28z" fill="#797979"/>
        <path d="M7,13v6h7v-6H7zM13,18H8v-4h5V18z" fill="#CD4C32"/>
        <g>
          <rect x="13" y="9" width="1" height="3" fill="#B4B4B5"/>
          <rect x="7" y="9" width="1" height="3" fill="#B4B4B5"/>
          <path d="M7,28h1v-4h5v4h1v-4h5v4h1v-4h5v4h1v-4h4v-1h-4v-4h4v-1h-4v-4h4v-1h-4V9h-1v4h-5V9h-1v4h-4v1h4v4h-4v1h4v4h-5v-3h-1v3H8v-3H7v3H2v1h5V28zM20,14h5v4h-5V14zM20,19h5v4h-5V19z" fill="#B4B4B5"/>
          <rect x="2" y="13" width="4" height="1" fill="#B4B4B5"/>
          <rect x="2" y="18" width="4" height="1" fill="#B4B4B5"/>
        </g>
      </g>
    </g>
    <g id="overlay">
      <path d="M26.1,31.3945c-0.0721,0.068,-0.1675,0.1058,-0.2667,0.1055l-3.5252,-0.0106c-0.1568,-0.0004,-0.2351,-0.19,-0.1243,-0.301L26.3,27h-8.8681c-0.2137,0,-0.4,-0.1251,-0.4,-0.3387v-0.8455v-0.7578v-0.6627c0,-0.2137,0.1732,-0.3869,0.3869,-0.3869h8.8681l-4.1034,-4.2078c-0.1104,-0.1113,-0.0316,-0.3006,0.1252,-0.3006h3.5053c0.1,0,0.196,0.0387,0.2681,0.108c0,0,4.4704,4.5109,5.6296,5.6841c0.1186,0.12,0.1178,0.3079,-0.0019,0.4268C30.5524,26.8689,26.1,31.3945,26.1,31.3945z" fill-rule="evenodd" fill="#3E79B4"/>
    </g>
  </g>
</svg>
