<?xml version="1.0" encoding="UTF-8"?>
<!DOCTYPE svg PUBLIC "-//W3C//DTD SVG 1.1//EN" "http://www.w3.org/Graphics/SVG/1.1/DTD/svg11.dtd">
<svg version="1.1" id="Layer_1" xmlns="http://www.w3.org/2000/svg" xmlns:xlink="http://www.w3.org/1999/xlink" x="0px" y="0px" width="16px" height="16px" viewBox="0 0 16 16" enable-background="new 0 0 16 16" xml:space="preserve">
  <g id="main">
    <g id="icon">
      <path d="M4.157,2.542L3.767,2.663L3.415,2.854L3.108,3.108L2.854,3.415L2.663,3.767L2.542,4.157L2.5,4.575L2.5,12.42L2.542,12.84L2.663,13.23L2.854,13.59L3.108,13.89L3.415,14.15L3.767,14.34L4.157,14.46L4.575,14.5L6.901,14.5L6.641,14.07L6.368,13.48L6.167,12.85L6.043,12.19L6,11.5L6.029,10.94L6.112,10.39L6.248,9.866L6.433,9.361L6.665,8.88L6.941,8.427L7.257,8.004L7.613,7.613L8.004,7.257L8.427,6.941L8.88,6.665L9.361,6.433L9.866,6.248L10.39,6.112L10.94,6.029L11.5,6L12.19,6.043L12.85,6.167L13.48,6.368L14.07,6.641L14.6,6.962L14.6,4.575L14.56,4.157L14.44,3.767L14.25,3.415L13.99,3.108L13.69,2.854L13.33,2.663L12.94,2.542L12.52,2.5L4.575,2.5zz" fill="#F5F5F5"/>
      <path d="M3.996,2.051L3.527,2.196L3.102,2.427L2.732,2.732L2.427,3.102L2.196,3.527L2.051,3.996L2,4.5L2,12.5L2.051,13L2.196,13.47L2.427,13.9L2.732,14.27L3.102,14.57L3.527,14.8L3.996,14.95L4.5,15L7.272,15L6.98,14.63L6.641,14.07L6.607,14L4.5,14L4.198,13.97L3.916,13.88L3.661,13.74L3.439,13.56L3.256,13.34L3.118,13.08L3.03,12.8L3,12.5L3,6L11.5,6L14,6L14,6.607L14.07,6.641L14.63,6.98L15,7.272L15,4.5L14.95,3.996L14.8,3.527L14.57,3.102L14.27,2.732L13.9,2.427L13.47,2.196L13,2.051L12.5,2L4.5,2zM12.5,3L12.8,3.03L13.08,3.118L13.34,3.256L13.56,3.439L13.74,3.661L13.88,3.916L13.97,4.198L14,4.5L14,5L3,5L3,4.5L3.03,4.198L3.118,3.916L3.256,3.661L3.439,3.439L3.661,3.256L3.916,3.118L4.198,3.03L4.5,3zz" fill="#404040"/>
      <path d="M5.305,1.039L5.146,1.146L5.039,1.305L5,1.5L5,3.5L5.039,3.695L5.146,3.854L5.305,3.961L5.5,4L5.695,3.961L5.854,3.854L5.961,3.695L6,3.5L6,1.5L5.961,1.305L5.854,1.146L5.695,1.039L5.5,1zM11.31,1.039L11.15,1.146L11.04,1.305L11,1.5L11,3.5L11.04,3.695L11.15,3.854L11.31,3.961L11.5,4L11.69,3.961L11.85,3.854L11.96,3.695L12,3.5L12,1.5L11.96,1.305L11.85,1.146L11.69,1.039L11.5,1zz" fill="#404040"/>
      <path d="M5.888,7.096L5.568,7.182L5.251,7.33L4.971,7.53L4.733,7.782L4.543,8.082L4.41,8.414L4.332,8.778L4.346,8.976L4.432,9.148L4.576,9.274L4.763,9.339L4.961,9.325L5.133,9.239L5.26,9.096L5.324,8.907L5.434,8.537L5.628,8.284L5.908,8.122L6.278,8.062L6.631,8.115L6.892,8.252L6.982,8.371L7.257,8.004L7.613,7.613L7.636,7.592L7.528,7.48L7.242,7.29L6.92,7.157L6.576,7.083L6.228,7.063zM4.443,12.13L4.307,12.4L4.349,12.7L4.534,12.9L4.8,12.98L4.847,12.98L4.989,12.97L5.187,12.97L6.205,12.97L6.167,12.85L6.043,12.19L6.029,11.97L6.004,11.97L6.028,11.94L6,11.5L6.029,10.94L6.106,10.43zz" fill="#404040"/>
    </g>
    <g id="overlay">
      <path d="M15.5361,11.5c0,2.2291,-1.807,4.0361,-4.0361,4.0361S7.4639,13.7291,7.4639,11.5S9.2709,7.4639,11.5,7.4639S15.5361,9.2709,15.5361,11.5z" id="b" fill="#FFFFFF"/>
      <path d="M11.5,16c-2.4813,0,-4.5,-2.0187,-4.5,-4.5s2.0187,-4.5,4.5,-4.5s4.5,2.0187,4.5,4.5S13.9813,16,11.5,16zM11.5,7.9648c-1.9493,0,-3.5352,1.5859,-3.5352,3.5352S9.5507,15.0352,11.5,15.0352s3.5352,-1.5859,3.5352,-3.5352S13.4493,7.9648,11.5,7.9648z" id="c3" fill="#BE123C"/>
      <path d="M13.0545,13.5421c-0.1303,0,-0.2528,-0.0507,-0.3449,-0.1427L11.5,12.1898l-1.2096,1.2096c-0.092,0.092,-0.2145,0.1427,-0.3449,0.1427c-0.1661,0,-0.3199,-0.084,-0.4112,-0.2247c-0.1235,-0.1903,-0.0926,-0.4488,0.0734,-0.6148L10.8102,11.5l-1.2026,-1.2026c-0.166,-0.1659,-0.1969,-0.4245,-0.0734,-0.6148c0.0913,-0.1407,0.245,-0.2247,0.4112,-0.2247c0.1304,0,0.2528,0.0507,0.3449,0.1427L11.5,10.8102l1.2026,-1.2026c0.0946,-0.0947,0.2248,-0.149,0.3572,-0.149c0.0923,0,0.1814,0.0262,0.2576,0.0757c0.1256,0.0815,0.2065,0.2127,0.222,0.3599c0.0155,0.1473,-0.0355,0.2917,-0.14,0.3962L12.1898,11.5l1.2026,1.2026c0.166,0.1659,0.1969,0.4245,0.0734,0.6148C13.3744,13.4581,13.2207,13.5421,13.0545,13.5421z" id="c3" fill="#BE123C"/>
    </g>
  </g>
</svg>
