<?xml version="1.0" encoding="UTF-8"?>
<!DOCTYPE svg PUBLIC "-//W3C//DTD SVG 1.1//EN" "http://www.w3.org/Graphics/SVG/1.1/DTD/svg11.dtd">
<svg version="1.1" id="Layer_1" xmlns="http://www.w3.org/2000/svg" xmlns:xlink="http://www.w3.org/1999/xlink" x="0px" y="0px" width="16px" height="16px" viewBox="0 0 16 16" enable-background="new 0 0 16 16" xml:space="preserve">
  <g id="main">
    <g id="icon">
      <path d="M4.157,2.542L3.767,2.663L3.415,2.854L3.108,3.108L2.854,3.415L2.663,3.767L2.542,4.157L2.5,4.575L2.5,12.42L2.542,12.84L2.663,13.23L2.854,13.59L3.108,13.89L3.415,14.15L3.767,14.34L4.157,14.46L4.575,14.5L6.889,14.5L6.644,14.09L6.416,13.61L6.236,13.1L6.105,12.58L6.027,12.05L6,11.5L6.027,10.95L6.105,10.42L6.236,9.896L6.416,9.392L6.644,8.909L6.92,8.448L7.242,8.014L7.61,7.61L8.014,7.242L8.448,6.92L8.909,6.644L9.392,6.416L9.896,6.236L10.42,6.105L10.95,6.027L11.5,6L12.05,6.027L12.58,6.105L13.1,6.236L13.61,6.416L14.09,6.644L14.55,6.92L14.6,6.956L14.6,4.575L14.56,4.157L14.44,3.767L14.25,3.415L13.99,3.108L13.69,2.854L13.33,2.663L12.94,2.542L12.52,2.5L4.575,2.5zz" fill="#F5F5F5"/>
      <path d="M3.996,2.051L3.527,2.196L3.102,2.427L2.732,2.732L2.427,3.102L2.196,3.527L2.051,3.996L2,4.5L2,12.5L2.051,13L2.196,13.47L2.427,13.9L2.732,14.27L3.102,14.57L3.527,14.8L3.996,14.95L4.5,15L7.255,15L7.242,14.99L6.92,14.55L6.644,14.09L6.601,14L4.5,14L4.198,13.97L3.916,13.88L3.661,13.74L3.439,13.56L3.256,13.34L3.118,13.08L3.03,12.8L3,12.5L3,6L11.5,6L14,6L14,6.601L14.09,6.644L14.55,6.92L14.99,7.242L15,7.255L15,4.5L14.95,3.996L14.8,3.527L14.57,3.102L14.27,2.732L13.9,2.427L13.47,2.196L13,2.051L12.5,2L4.5,2zM12.5,3L12.8,3.03L13.08,3.118L13.34,3.256L13.56,3.439L13.74,3.661L13.88,3.916L13.97,4.198L14,4.5L14,5L3,5L3,4.5L3.03,4.198L3.118,3.916L3.256,3.661L3.439,3.439L3.661,3.256L3.916,3.118L4.198,3.03L4.5,3zz" fill="#404040"/>
      <path d="M5.305,1.039L5.146,1.146L5.039,1.305L5,1.5L5,3.5L5.039,3.695L5.146,3.854L5.305,3.961L5.5,4L5.695,3.961L5.854,3.854L5.961,3.695L6,3.5L6,1.5L5.961,1.305L5.854,1.146L5.695,1.039L5.5,1zM11.31,1.039L11.15,1.146L11.04,1.305L11,1.5L11,3.5L11.04,3.695L11.15,3.854L11.31,3.961L11.5,4L11.69,3.961L11.85,3.854L11.96,3.695L12,3.5L12,1.5L11.96,1.305L11.85,1.146L11.69,1.039L11.5,1zz" fill="#404040"/>
      <path d="M4.611,7.079L4.293,7.293L4.079,7.611L4,8L4.079,8.389L4.293,8.707L4.611,8.921L5,9L5.389,8.921L5.707,8.707L5.921,8.389L6,8L5.921,7.611L5.707,7.293L5.389,7.079L5,7zz" fill="#404040"/>
    </g>
    <g id="overlay">
      <path d="M8.6447,8.6447c1.5769,-1.5769,4.1337,-1.5769,5.7106,0s1.5769,4.1337,0,5.7106s-4.1337,1.5769,-5.7106,0S7.0678,10.2216,8.6447,8.6447z" id="b" fill="#FFFFFF"/>
      <path d="M7,11.5c0,-1.2039,0.4676,-2.3344,1.3166,-3.1834C9.1656,7.4676,10.2961,7,11.5,7s2.3344,0.4676,3.1834,1.3166C15.5324,9.1656,16,10.2961,16,11.5s-0.4676,2.3344,-1.3166,3.1834C13.8344,15.5324,12.7039,16,11.5,16s-2.3344,-0.4676,-3.1834,-1.3166C7.4676,13.8344,7,12.7039,7,11.5zM15.0352,11.5c0,-0.9459,-0.3673,-1.8341,-1.0342,-2.501c-1.379,-1.379,-3.6229,-1.379,-5.002,0c-0.6669,0.6669,-1.0342,1.5551,-1.0342,2.501s0.3673,1.8341,1.0342,2.501c1.379,1.379,3.6229,1.379,5.002,0C14.6679,13.3341,15.0352,12.4459,15.0352,11.5z" id="c3" fill="#0E7490"/>
      <path d="M9.5483,10.042c0,-0.0768,0.0186,-0.1528,0.0538,-0.2198c0.0763,-0.1455,0.2108,-0.2428,0.3691,-0.2669c0.1556,-0.0237,0.3149,0.0285,0.4261,0.1397l2.1391,2.1392v-1.3689c0,-0.2144,0.1378,-0.4071,0.335,-0.4686c0.1542,-0.048,0.3152,-0.0221,0.4419,0.0712c0.1245,0.0916,0.1989,0.2387,0.1989,0.3932v2.5717c0,0.2644,-0.2151,0.4796,-0.4796,0.4796h-2.5716c-0.269,0,-0.4879,-0.2189,-0.4879,-0.488c0,-0.0511,0.0079,-0.1025,0.0236,-0.1528c0.0614,-0.1973,0.2541,-0.3351,0.4686,-0.3351l1.3689,0l-2.136,-2.1361C9.603,10.305,9.5483,10.1744,9.5483,10.042z" id="c3" fill="#0E7490"/>
    </g>
  </g>
</svg>
