<?xml version="1.0" encoding="UTF-8"?>
<!DOCTYPE svg PUBLIC "-//W3C//DTD SVG 1.1//EN" "http://www.w3.org/Graphics/SVG/1.1/DTD/svg11.dtd">
<svg version="1.1" id="Layer_1" xmlns="http://www.w3.org/2000/svg" xmlns:xlink="http://www.w3.org/1999/xlink" x="0px" y="0px" width="16px" height="16px" viewBox="0 0 16 16" enable-background="new 0 0 16 16" xml:space="preserve">
  <g id="main">
    <g id="icon">
      <path d="M3.474,2.081L3.246,2.235L3.092,2.463L3.035,2.742L3.035,3.027L3.077,3.268L3.197,3.481L6.573,7.61L6.72,7.332L7.267,6.658L7.374,6.54L7.416,6.502L7.481,6.455L5.032,3.459L10.84,3.459L10.92,4.2L10.99,4.458L11.15,4.664L11.37,4.801L11.63,4.85L11.7,4.847L11.97,4.765L12.19,4.591L12.32,4.349L12.35,4.066L12.2,2.889L12.17,2.684L12.1,2.425L11.94,2.216L11.72,2.076L11.45,2.025L3.752,2.025zM3.004,12.31L2.871,12.53L2.825,12.78L2.825,13.26L2.881,13.54L3.035,13.76L3.263,13.92L3.542,13.98L3.542,13.98L8.384,13.98L7.317,12.92L7.001,12.54L4.707,12.54L6.159,10.89L6.085,10.65L5.996,9.776L6.077,8.91L6.119,8.767zz" fill="#404040"/>
    </g>
    <g id="overlay">
      <path d="M12.1235,16c0.1723,0,0.3334,-0.0654,0.4536,-0.1842c0.2501,-0.2471,0.2502,-0.6492,0,-0.8963l-3.6506,-3.6067c-0.8958,-0.841,-0.9149,-2.2068,-0.0454,-3.1111c0.4168,-0.4116,0.9677,-0.6394,1.5493,-0.6394c0.5395,0,1.0725,0.1972,1.5008,0.5552l0.0895,0.0888l1.8653,1.824h-2.252l-0.006,0.0007c-0.346,0.0405,-0.5897,0.2971,-0.5636,0.5852l-0.0004,0.0273c-0.022,0.3259,0.3349,0.5513,0.4066,0.593l0.0594,0.0346h3.8795c0.3201,0,0.5904,-0.25,0.5904,-0.5459V6.9447c0,-0.3736,-0.2483,-0.6447,-0.5904,-0.6447c-0.3142,0,-0.6655,0.2335,-0.6655,0.5459v2.2412l-1.8169,-1.7781c-0.6585,-0.6246,-1.5231,-0.968,-2.4354,-0.968c-0.8841,0,-1.7404,0.3228,-2.411,0.909l-0.0044,0.0038l-0.0842,0.0926c-1.3383,1.3411,-1.3275,3.524,0.0273,4.8624l3.6505,3.6067C11.79,15.9345,11.9512,16,12.1235,16z" fill="#0E7490"/>
    </g>
  </g>
</svg>
