<?xml version="1.0" encoding="UTF-8"?>
<!DOCTYPE svg PUBLIC "-//W3C//DTD SVG 1.1//EN" "http://www.w3.org/Graphics/SVG/1.1/DTD/svg11.dtd">
<svg version="1.1" id="Layer_1" xmlns="http://www.w3.org/2000/svg" xmlns:xlink="http://www.w3.org/1999/xlink" x="0px" y="0px" width="16px" height="16px" viewBox="0 0 16 16" enable-background="new 0 0 16 16" xml:space="preserve">
  <g id="main">
    <g id="icon">
      <path d="M0.5,13.5L6.684,13.5L7.076,12.76L7.149,12.63L7.109,12.59L11.83,7.905L11.82,7.895L13.37,6.377L13.5,6.265L13.5,3.5L0.5,3.5zM12.82,13.5L13.5,13.5L13.5,12.83zz" fill="#FFFFFF" opacity="0.4"/>
      <path d="M0,14L6.419,14L6.948,13L1,13L1,4L13,4L13,6.736L13.37,6.377L13.66,6.129L13.99,5.948L14,5.945L14,3L0,3zM12.32,14L14,14L14,12.33zz" fill="#6D6E71"/>
      <path d="M3,2L4,2L4,0L3,0zM10,2L11,2L11,0L10,0zz" fill="#6D6E71"/>
      <path d="M5,7L2,7L2,12L7.707,12L9,10.72L9,10L9.721,10L10.73,9L9,9L9,8L11,8L11,8.73L11.83,7.905L11.82,7.895L12,7.719L12,5L5,5zM8,6L8,7L6,7L6,6zM11,6L11,7L9,7L9,6zM5,8L5,9L3,9L3,8zM8,8L8,9L6,9L6,8zM5,10L5,11L3,11L3,10zM8,10L8,11L6,11L6,10zz" fill="#7B7B7B"/>
      <path d="M0,4L14,4L14,0L12,0L12,2L9,2L9,0L5,0L5,2L2,2L2,0L0,0zz" fill="#9070B1"/>
    </g>
    <g id="overlay">
      <path d="M7.4441,16c-0.0956,0,-0.1856,-0.0372,-0.2533,-0.1046l-0.0845,-0.0841c-0.1126,-0.112,-0.1384,-0.2814,-0.0643,-0.4217l1.0949,-2.0706c0.0622,-0.1177,0.1838,-0.1909,0.3173,-0.1909c0.0142,0,0.0284,0.0008,0.0426,0.0025l0.1046,0.0127l1.2774,1.2749l0.0052,0.1181c0.0062,0.1385,-0.0691,0.2696,-0.192,0.3338L7.6105,15.959C7.5591,15.9859,7.5016,16,7.4441,16zM8.8103,12.5957l4.3423,-4.3116l1.6055,1.6022l-4.3423,4.3117L8.8103,12.5957zM13.5267,7.9013l0.68,-0.6683c0.1551,-0.1543,0.3262,-0.233,0.5078,-0.233c0.1815,0,0.3528,0.0788,0.5091,0.2342l0.5485,0.5456c0.1469,0.1463,0.2279,0.3407,0.2279,0.5476c0,0.2069,-0.0809,0.4014,-0.2279,0.5476l-0.6358,0.6328L13.5267,7.9013z" fill="#6485C3"/>
    </g>
  </g>
</svg>
