<?xml version="1.0" encoding="UTF-8"?>
<!DOCTYPE svg PUBLIC "-//W3C//DTD SVG 1.1//EN" "http://www.w3.org/Graphics/SVG/1.1/DTD/svg11.dtd">
<svg version="1.1" id="Layer_1" xmlns="http://www.w3.org/2000/svg" xmlns:xlink="http://www.w3.org/1999/xlink" x="0px" y="0px" width="16px" height="16px" viewBox="0 0 16 16" enable-background="new 0 0 16 16" xml:space="preserve">
  <g id="main">
    <g id="icon">
      <path d="M9.372,0.7008L8.889,0.8059L8.414,0.9764L7.947,1.209L7.02,1.844L6.087,2.683L5.127,3.695L4.119,4.852L1.872,7.48L1.872,7.479L1.872,3L0,3L0,11L7.487,11L7.487,9L3.073,9L3.419,8.608L5.284,6.403L6.936,4.494L7.703,3.735L8.441,3.151L9.16,2.776L9.514,2.678L9.867,2.644L10.48,2.69L11,2.829L11.41,3.062L11.72,3.391L11.92,3.772L12.06,4.239L12.14,4.788L12.15,5.416L12.1,6.118L12.01,6.812L13.88,6.812L13.97,5.974L14,5.058L13.93,4.222L13.78,3.469L13.53,2.799L13.2,2.211L12.91,1.85L12.59,1.537L12.23,1.271L11.83,1.053L11.39,0.8838L10.92,0.7623L10.41,0.6895L9.867,0.665zz" fill="#52B250"/>
    </g>
    <g id="overlay">
      <path d="M8.9,16v-1.1811l2.7497,-2.8539L8.9224,9.0547V8.0125h6.6838l0.0507,0.5794c0.0017,0.0196,0.0107,0.0706,0.0193,0.1199c0.0264,0.1505,0.0663,0.378,0.1062,0.7764l0.0367,0.3663l-1.3504,0.1171l-0.0367,-0.3663c-0.0131,-0.131,-0.0261,-0.2399,-0.0382,-0.393h-3.5179l2.5587,2.7833l-2.6417,2.8048h3.5728l0.3277,-1.1581L16,13.9797L15.3965,16H8.9z" fill="#6485C3"/>
    </g>
  </g>
</svg>
