<?xml version="1.0" encoding="UTF-8"?>
<!DOCTYPE svg PUBLIC "-//W3C//DTD SVG 1.1//EN" "http://www.w3.org/Graphics/SVG/1.1/DTD/svg11.dtd">
<svg version="1.1" id="Layer_1" xmlns="http://www.w3.org/2000/svg" xmlns:xlink="http://www.w3.org/1999/xlink" x="0px" y="0px" width="16px" height="16px" viewBox="0 0 16 16" enable-background="new 0 0 16 16" xml:space="preserve">
  <g id="main">
    <g id="icon">
      <path d="M4.157,2.542L3.767,2.663L3.415,2.854L3.108,3.108L2.854,3.415L2.663,3.767L2.542,4.157L2.5,4.575L2.5,12.42L2.542,12.84L2.663,13.23L2.854,13.59L3.108,13.89L3.415,14.15L3.767,14.34L4.157,14.46L4.575,14.5L6.259,14.5L6.744,13.04L6.972,12.56L7.305,12.14L12.71,6.737L13.09,6.421L13.52,6.19L13.99,6.048L14.48,6L14.6,6.009L14.6,4.575L14.56,4.157L14.44,3.767L14.25,3.415L13.99,3.108L13.69,2.854L13.33,2.663L12.94,2.542L12.52,2.5L4.575,2.5zM12.06,14.5L12.52,14.5L12.94,14.46L13.33,14.34L13.69,14.15L13.99,13.89L14.25,13.59L14.44,13.23L14.56,12.84L14.6,12.42L14.6,11.96zz" fill="#F5F5F5"/>
      <path d="M3.996,2.051L3.527,2.196L3.102,2.427L2.732,2.732L2.427,3.102L2.196,3.527L2.051,3.996L2,4.5L2,12.5L2.051,13L2.196,13.47L2.427,13.9L2.732,14.27L3.102,14.57L3.527,14.8L3.996,14.95L4.5,15L6.092,15L6.426,14L4.5,14L4.198,13.97L3.916,13.88L3.661,13.74L3.439,13.56L3.256,13.34L3.118,13.08L3.03,12.8L3,12.5L3,6L14,6L14,6.047L14.48,6L14.89,6.033L15,6.059L15,4.5L14.95,3.996L14.8,3.527L14.57,3.102L14.27,2.732L13.9,2.427L13.47,2.196L13,2.051L12.5,2L4.5,2zM12.5,3L12.8,3.03L13.08,3.118L13.34,3.256L13.56,3.439L13.74,3.661L13.88,3.916L13.97,4.198L14,4.5L14,5L3,5L3,4.5L3.03,4.198L3.118,3.916L3.256,3.661L3.439,3.439L3.661,3.256L3.916,3.118L4.198,3.03L4.5,3zM13.99,12.57L13.97,12.8L13.88,13.08L13.74,13.34L13.56,13.56L13.34,13.74L13.08,13.88L12.8,13.97L12.57,13.99L11.56,15L12.5,15L13,14.95L13.47,14.8L13.9,14.57L14.27,14.27L14.57,13.9L14.8,13.47L14.95,13L15,12.5L15,11.56zz" fill="#404040"/>
      <path d="M5.305,1.039L5.146,1.146L5.039,1.305L5,1.5L5,3.5L5.039,3.695L5.146,3.854L5.305,3.961L5.5,4L5.695,3.961L5.854,3.854L5.961,3.695L6,3.5L6,1.5L5.961,1.305L5.854,1.146L5.695,1.039L5.5,1zM11.31,1.039L11.15,1.146L11.04,1.305L11,1.5L11,3.5L11.04,3.695L11.15,3.854L11.31,3.961L11.5,4L11.69,3.961L11.85,3.854L11.96,3.695L12,3.5L12,1.5L11.96,1.305L11.85,1.146L11.69,1.039L11.5,1zz" fill="#404040"/>
      <path d="M10.64,7.092L10.3,7.182L9.985,7.329L9.705,7.53L9.467,7.782L9.277,8.082L9.144,8.413L9.067,8.778L9.08,8.976L9.166,9.147L9.31,9.274L9.497,9.338L9.696,9.325L9.867,9.239L9.994,9.095L10.06,8.907L10.17,8.537L10.36,8.284L10.64,8.122L10.99,8.062L11.33,8.108L12.08,7.358L11.96,7.278L11.65,7.153L11.01,7.062zM5.888,7.096L5.568,7.182L5.251,7.33L4.971,7.53L4.733,7.782L4.543,8.082L4.41,8.414L4.332,8.778L4.346,8.976L4.432,9.148L4.576,9.274L4.763,9.339L4.961,9.325L5.133,9.239L5.26,9.096L5.324,8.907L5.434,8.537L5.628,8.284L5.908,8.122L6.278,8.062L6.631,8.115L6.892,8.252L7.068,8.484L7.136,8.85L7.077,9.201L6.892,9.556L6.589,9.932L6.181,10.36L4.443,12.13L4.307,12.4L4.349,12.7L4.534,12.9L4.8,12.98L4.847,12.98L4.989,12.97L5.187,12.97L6.781,12.97L6.972,12.56L7.305,12.14L7.476,11.97L6.004,11.97L6.894,11.06L7.32,10.61L7.718,10.12L8.015,9.547L8.105,9.21L8.136,8.85L8.093,8.421L7.968,8.047L7.775,7.735L7.528,7.48L7.242,7.29L6.92,7.157L6.576,7.083L6.228,7.063zz" fill="#404040"/>
    </g>
    <g id="overlay">
      <path d="M7.4834,15.5167l0.6679,-2.003c0.041,-0.1229,0.111,-0.2363,0.2027,-0.3279l5.4004,-5.4c0.1951,-0.1951,0.4545,-0.3025,0.7303,-0.3025c0.2759,0,0.5352,0.1074,0.7303,0.3025c0.4027,0.4027,0.4026,1.0579,-0.0001,1.4606l-5.4003,5.3999c-0.0916,0.0916,-0.205,0.1616,-0.3279,0.2026l-2.003,0.6677l0.0001,0L7.4834,15.5167z" id="b" fill="#FFFFFF"/>
      <path d="M7.4837,16c-0.1291,0,-0.2505,-0.0503,-0.3418,-0.1416c-0.1303,-0.1303,-0.1751,-0.3198,-0.1167,-0.4946l0.6676,-2.003c0.0646,-0.1937,0.1751,-0.3724,0.3195,-0.5169l5.4004,-5.4c0.2864,-0.2863,0.6671,-0.444,1.0721,-0.444s0.7857,0.1577,1.072,0.444c0.5911,0.5912,0.5911,1.5531,0,2.1442l-5.4004,5.4c-0.1445,0.1444,-0.3232,0.2549,-0.5168,0.3194l-2.003,0.6676C7.5871,15.9916,7.5357,16,7.4837,16L7.4837,16zM14.4846,7.9666c-0.1467,0,-0.2847,0.0572,-0.3884,0.1609l-5.4004,5.4c-0.0388,0.0388,-0.0686,0.0869,-0.086,0.1391l-0.3619,1.0859l1.086,-0.362c0.0521,-0.0174,0.1001,-0.0471,0.139,-0.086l4.6074,-4.6074l0.0139,-0.0134l0.779,-0.7792c0.1038,-0.1038,0.161,-0.2417,0.161,-0.3885c0,-0.1468,-0.0572,-0.2847,-0.161,-0.3885C14.7693,8.0238,14.6313,7.9666,14.4846,7.9666z" fill="#0891b2"/>
    </g>
  </g>
</svg>
