<?xml version="1.0" encoding="UTF-8"?>
<!DOCTYPE svg PUBLIC "-//W3C//DTD SVG 1.1//EN" "http://www.w3.org/Graphics/SVG/1.1/DTD/svg11.dtd">
<svg version="1.1" id="Layer_1" xmlns="http://www.w3.org/2000/svg" xmlns:xlink="http://www.w3.org/1999/xlink" x="0px" y="0px" width="16px" height="16px" viewBox="0 0 16 16" enable-background="new 0 0 16 16" xml:space="preserve">
  <g id="main">
    <g id="icon">
      <path d="M4.157,2.542L3.767,2.663L3.415,2.854L3.108,3.108L2.854,3.415L2.663,3.767L2.542,4.157L2.5,4.575L2.5,12.42L2.542,12.84L2.663,13.23L2.854,13.59L3.108,13.89L3.415,14.15L3.767,14.34L4.157,14.46L4.575,14.5L12.52,14.5L12.94,14.46L13.33,14.34L13.69,14.15L13.99,13.89L14.25,13.59L14.44,13.23L14.56,12.84L14.6,12.42L14.6,9.066L14.11,9.367L13.53,9.636L12.91,9.835L12.27,9.958L11.6,10L11.05,9.971L10.51,9.888L9.996,9.752L9.5,9.567L9.028,9.335L8.583,9.059L8.167,8.743L7.783,8.387L7.123,7.573L6.853,7.12L6.625,6.639L6.443,6.134L6.31,5.607L6.228,5.062L6.2,4.5L6.242,3.814L6.364,3.153L6.562,2.522L6.571,2.5L4.575,2.5zz" fill="#F5F5F5"/>
      <path d="M3.996,2.051L3.527,2.196L3.102,2.427L2.732,2.732L2.427,3.102L2.196,3.527L2.051,3.996L2,4.5L2,12.5L2.051,13L2.196,13.47L2.427,13.9L2.732,14.27L3.102,14.57L3.527,14.8L3.996,14.95L4.5,15L12.5,15L13,14.95L13.47,14.8L13.9,14.57L14.27,14.27L14.57,13.9L14.8,13.47L14.95,13L15,12.5L15,8.758L14.66,9.031L14.11,9.367L14,9.419L14,12.5L13.97,12.8L13.88,13.08L13.74,13.34L13.56,13.56L13.34,13.74L13.08,13.88L12.8,13.97L12.5,14L4.5,14L4.198,13.97L3.916,13.88L3.661,13.74L3.439,13.56L3.256,13.34L3.118,13.08L3.03,12.8L3,12.5L3,6L6.409,6L6.31,5.607L6.228,5.062L6.225,5L3,5L3,4.5L3.03,4.198L3.118,3.916L3.256,3.661L3.439,3.439L3.661,3.256L3.916,3.118L4.198,3.03L4.5,3L6.412,3L6.562,2.522L6.796,2L4.5,2zz" fill="#404040"/>
      <path d="M5.305,1.039L5.146,1.146L5.039,1.305L5,1.5L5,3.5L5.039,3.695L5.146,3.854L5.305,3.961L5.5,4L5.695,3.961L5.854,3.854L5.961,3.695L6,3.5L6,1.5L5.961,1.305L5.854,1.146L5.695,1.039L5.5,1zz" fill="#404040"/>
      <path d="M5.888,7.096L5.568,7.182L5.251,7.33L4.971,7.53L4.733,7.782L4.543,8.082L4.41,8.414L4.332,8.778L4.346,8.976L4.432,9.148L4.576,9.274L4.763,9.339L4.961,9.325L5.133,9.239L5.26,9.096L5.324,8.907L5.434,8.537L5.628,8.284L5.908,8.122L6.278,8.062L6.631,8.115L6.892,8.252L7.068,8.484L7.136,8.85L7.077,9.201L6.892,9.556L6.589,9.932L6.181,10.36L4.443,12.13L4.307,12.4L4.349,12.7L4.534,12.9L4.8,12.98L4.847,12.98L4.989,12.97L5.187,12.97L7.734,12.97L7.929,12.93L8.088,12.82L8.195,12.66L8.234,12.47L8.195,12.27L8.088,12.11L7.929,12.01L7.734,11.97L6.004,11.97L6.894,11.06L7.32,10.61L7.718,10.12L8.015,9.547L8.105,9.21L8.136,8.85L8.121,8.7L7.783,8.387L7.123,7.573L6.869,7.146L6.576,7.083L6.228,7.063zM10.39,10.02L10.43,10.2L10.53,10.35L10.68,10.45L10.85,10.5L11.53,10.59L11.8,10.74L11.93,10.95L11.98,11.24L11.91,11.55L11.71,11.82L11.38,12.02L10.95,12.1L10.56,12.06L10.3,11.95L10.15,11.83L10.02,11.66L9.942,11.47L9.908,11.35L9.855,11.13L9.733,10.97L9.566,10.88L9.376,10.86L9.184,10.91L9.17,10.91L9.034,11.01L8.941,11.15L8.896,11.31L8.907,11.48L8.99,11.77L9.143,12.13L9.39,12.49L9.788,12.81L10.3,13.02L10.95,13.1L11.36,13.06L11.75,12.95L12.09,12.78L12.39,12.56L12.63,12.29L12.82,11.97L12.94,11.61L12.98,11.24L12.95,10.91L12.87,10.59L12.72,10.3L12.52,10.04L12.39,9.935L12.27,9.958L11.6,10L11.05,9.971L10.51,9.888L10.42,9.863zz" fill="#404040"/>
    </g>
    <g id="overlay">
      <path d="M15.5344,4.5c0,2.2223,-1.7615,4.0238,-3.9344,4.0238S7.6656,6.7223,7.6656,4.5S9.4271,0.4762,11.6,0.4762S15.5344,2.2777,15.5344,4.5z" id="b" fill="#FFFFFF"/>
      <path d="M11.6,0C9.1739,0,7.2,2.0187,7.2,4.5c0,2.4813,1.9739,4.5,4.4,4.5s4.4,-2.0187,4.4,-4.5C16,2.0187,14.0261,0,11.6,0zM14.4466,2.4762h-1.0915c-0.1055,-0.4539,-0.246,-0.8752,-0.4191,-1.2498C13.5482,1.4887,14.0714,1.9259,14.4466,2.4762zM15.0688,4.5c0,0.3733,-0.057,0.7332,-0.1621,1.0714H13.518c0.0394,-0.3468,0.0609,-0.705,0.0609,-1.0714s-0.0215,-0.7247,-0.0609,-1.0715h1.3887C15.0118,3.7668,15.0688,4.1267,15.0688,4.5zM11.6,8.0476c-0.0274,0,-0.0545,-0.0015,-0.0818,-0.0021c-0.3035,-0.3642,-0.553,-0.8959,-0.7256,-1.5217h1.615c-0.1727,0.6258,-0.4221,1.1575,-0.7256,1.5217C11.6545,8.0462,11.6274,8.0476,11.6,8.0476zM10.6,5.5714c-0.0464,-0.3461,-0.0716,-0.7061,-0.0716,-1.0714s0.0252,-0.7253,0.0716,-1.0715h2c0.0464,0.3461,0.0716,0.7061,0.0716,1.0715s-0.0252,0.7253,-0.0716,1.0714H10.6zM8.1312,4.5c0,-0.3733,0.057,-0.7332,0.1621,-1.0715H9.682c-0.0394,0.3468,-0.0609,0.705,-0.0609,1.0715s0.0215,0.7247,0.0609,1.0714H8.2933C8.1883,5.2332,8.1312,4.8733,8.1312,4.5zM11.6,0.9524c0.0274,0,0.0545,0.0015,0.0818,0.0021c0.3035,0.3642,0.553,0.8959,0.7257,1.5217h-1.615c0.1727,-0.6258,0.4221,-1.1575,0.7257,-1.5217C11.5455,0.9538,11.5726,0.9524,11.6,0.9524zM10.264,1.2264c-0.1731,0.3746,-0.3136,0.7959,-0.4191,1.2498H8.7534C9.1286,1.9259,9.6518,1.4887,10.264,1.2264zM8.7534,6.5238h1.0915c0.1055,0.4539,0.246,0.8752,0.4191,1.2498C9.6518,7.5113,9.1286,7.0741,8.7534,6.5238zM12.936,7.7736c0.1731,-0.3746,0.3136,-0.7959,0.4191,-1.2498h1.0915C14.0714,7.0741,13.5482,7.5113,12.936,7.7736z" fill="#0E7490"/>
    </g>
  </g>
</svg>
