<?xml version="1.0" encoding="UTF-8"?>
<!DOCTYPE svg PUBLIC "-//W3C//DTD SVG 1.1//EN" "http://www.w3.org/Graphics/SVG/1.1/DTD/svg11.dtd">
<svg version="1.1" id="Layer_1" xmlns="http://www.w3.org/2000/svg" xmlns:xlink="http://www.w3.org/1999/xlink" x="0px" y="0px" width="16px" height="16px" viewBox="0 0 16 16" enable-background="new 0 0 16 16" xml:space="preserve">
  <g id="main">
    <g id="icon">
      <path d="M3.474,2.081C2.885,2.37,2.908,3.265,3.355,3.674C4.512,5.099,5.703,6.525,6.838,7.95C5.549,9.431,4.225,10.89,2.958,12.38C2.758,12.74,2.787,13.21,2.915,13.59C3.213,14.14,3.919,13.94,4.432,13.98C5.547,13.96,6.737,14,7.805,13.96C7.675,13.5,7.709,13,7.69,12.54C6.711,12.53,5.644,12.56,4.721,12.53C5.709,11.39,6.733,10.27,7.7,9.122C7.688,8.317,7.725,7.494,7.681,6.7C6.816,5.625,5.863,4.509,5.052,3.459C6.977,3.466,8.926,3.446,10.84,3.469C10.9,3.956,10.85,4.679,11.46,4.817C12.02,4.988,12.5,4.362,12.32,3.838C12.21,3.332,12.29,2.753,12.01,2.305C11.62,1.844,10.94,2.086,10.41,2.025C8.171,2.034,5.925,2.006,3.684,2.039C3.614,2.053,3.544,2.067,3.474,2.081z" fill="#404040"/>
    </g>
    <g id="overlay">
      <path d="M15.2309,10.3456L9.6927,5.9783c-0.3721,-0.3183,-0.5136,-0.28,-0.5092,0.224v7.0875c0.0194,0.5305,0.3232,0.613,0.7766,0.2353l1.5799,-1.3785l1.6185,3.2836c0.154,0.3191,1.5078,-0.3629,1.3538,-0.682l-1.597,-3.2737l2.064,-0.4217C15.6091,10.8949,15.6746,10.7027,15.2309,10.3456z" id="b" fill="#F5F5F5"/>
      <path d="M13.3472,16c-0.4069,0,-0.5716,-0.2503,-0.6236,-0.3579l-1.3391,-2.7168l-1.1164,0.9739c-0.2742,0.2284,-0.5388,0.3444,-0.7859,0.3444c-0.1057,0,-0.2068,-0.0214,-0.3005,-0.0635c-0.2083,-0.0937,-0.4609,-0.3212,-0.4811,-0.8725l-0.0003,-0.0179V6.2022c-0.0016,-0.1835,-0.0059,-0.6735,0.3869,-0.8579c0.0801,-0.0377,0.165,-0.0568,0.2522,-0.0568c0.2912,0,0.5409,0.2136,0.6609,0.3163l5.5288,4.3599c0.1542,0.1241,0.5537,0.4456,0.4557,0.8954c-0.0897,0.412,-0.4995,0.5672,-0.8886,0.6648c-0.007,0.0017,-0.014,0.0033,-0.0211,0.0048l-1.4507,0.2964l1.3217,2.7094c0.2077,0.4305,-0.0965,0.8959,-0.8135,1.2452c-0.3,0.1461,-0.5641,0.2202,-0.7852,0.2202H13.3472zM11.54,11.6611c0.0319,0,0.0639,0.0032,0.0951,0.0095c0.1456,0.0294,0.272,0.1268,0.3379,0.2606l1.5126,3.0689c0.1535,-0.0497,0.3606,-0.1548,0.49,-0.2486l-1.4936,-3.062c-0.0301,-0.0618,-0.047,-0.1227,-0.05,-0.1811c-0.0128,-0.2469,0.1499,-0.4613,0.387,-0.5097L14.7706,10.6L9.6667,6.575v6.5631l1.5564,-1.3581C11.3111,11.7034,11.4236,11.6611,11.54,11.6611z" id="c1" fill="#0891b2"/>
    </g>
  </g>
</svg>
