<?xml version="1.0" encoding="UTF-8"?>
<!DOCTYPE svg PUBLIC "-//W3C//DTD SVG 1.1//EN" "http://www.w3.org/Graphics/SVG/1.1/DTD/svg11.dtd">
<svg version="1.1" id="Layer_1" xmlns="http://www.w3.org/2000/svg" xmlns:xlink="http://www.w3.org/1999/xlink" x="0px" y="0px" width="24px" height="24px" viewBox="0 0 24 24" enable-background="new 0 0 24 24" xml:space="preserve">
  <g id="icon">
    <path d="M6.3704,19.4967c0.0615,-0.0059,0.1326,-0.0102,0.2128,-0.0132c0.0885,-0.0033,0.1876,-0.0048,0.2973,-0.0048h3.8207c0.4142,0,0.75,-0.3405,0.75,-0.7604s-0.3358,-0.7604,-0.75,-0.7604H8.106l1.3356,-1.3815c0.222,-0.2288,0.4369,-0.4558,0.6387,-0.6748c0.2235,-0.2426,0.4241,-0.4953,0.5965,-0.7513c0.1852,-0.2752,0.3352,-0.5683,0.4455,-0.8711c0.1202,-0.3296,0.1811,-0.6865,0.1811,-1.0607c0,-0.4602,-0.0849,-0.8708,-0.2522,-1.2202c-0.1647,-0.3439,-0.3866,-0.634,-0.6597,-0.8622c-0.2662,-0.2222,-0.5728,-0.3875,-0.9115,-0.4913c-0.6775,-0.2077,-1.4159,-0.1878,-2.0288,0.0368c-0.3344,0.1227,-0.6353,0.3008,-0.8942,0.5294c-0.2617,0.2309,-0.4779,0.5135,-0.6426,0.8402c-0.1601,0.3176,-0.2665,0.6736,-0.316,1.0581c-0.0536,0.4164,0.2358,0.7981,0.6466,0.8524c0.4102,0.0548,0.7871,-0.2391,0.8408,-0.6555c0.0272,-0.2114,0.0825,-0.4008,0.1642,-0.563c0.0781,-0.1549,0.1734,-0.2808,0.2918,-0.3852c0.1205,-0.1064,0.2577,-0.187,0.4194,-0.2462c0.165,-0.0604,0.3517,-0.0911,0.555,-0.0911c0.1811,0,0.3545,0.0261,0.5298,0.0798c0.1499,0.046,0.2781,0.1145,0.3917,0.2093c0.1068,0.0893,0.1931,0.2046,0.264,0.3526c0.0674,0.1408,0.1016,0.3278,0.1016,0.5561c0,0.1964,-0.0288,0.3709,-0.0881,0.5336c-0.068,0.1865,-0.1614,0.3684,-0.2775,0.541c-0.1294,0.1922,-0.2821,0.3842,-0.4537,0.5705c-0.193,0.2095,-0.3988,0.427,-0.6127,0.6474l-2.607,2.6964c-0.2204,0.228,-0.2769,0.5712,-0.1414,0.8593c0.1252,0.2664,0.3899,0.4333,0.6768,0.4333C6.3231,19.5,6.3467,19.4989,6.3704,19.4967zM15.5229,19.5c-0.3593,0,-0.6864,-0.0385,-0.9722,-0.1145c-0.2884,-0.0766,-0.5469,-0.1816,-0.7685,-0.3119c-0.2326,-0.1365,-0.4337,-0.3015,-0.5975,-0.49c-0.146,-0.1683,-0.2703,-0.3464,-0.3697,-0.5298c-0.0953,-0.1758,-0.1729,-0.3559,-0.2306,-0.535c-0.0497,-0.1534,-0.0915,-0.3015,-0.1241,-0.4395c-0.0795,-0.3363,0.0838,-0.6827,0.3947,-0.8371l0.0211,-0.0105c0.3702,-0.1842,0.821,-0.035,1.0062,0.3333c0.0535,0.1063,0.079,0.2194,0.0793,0.3308c0.0153,0.0539,0.0324,0.1099,0.051,0.1677c0.0299,0.0929,0.0713,0.188,0.123,0.2836c0.0478,0.0883,0.1099,0.1766,0.1846,0.2627c0.057,0.0656,0.1328,0.1264,0.2252,0.1807c0.1044,0.0614,0.2364,0.1135,0.3928,0.155c0.1593,0.0424,0.356,0.0638,0.5845,0.0638c0.2381,0,0.4564,-0.0381,0.6486,-0.1134c0.1975,-0.0772,0.3601,-0.1753,0.4974,-0.2999c0.131,-0.119,0.2302,-0.2528,0.3032,-0.409c0.0683,-0.1463,0.1017,-0.2958,0.1017,-0.4567c0,-0.1614,-0.0244,-0.3034,-0.0746,-0.434c-0.0461,-0.1197,-0.1105,-0.2207,-0.1971,-0.3086c-0.0215,-0.0219,-0.1143,-0.1026,-0.4116,-0.2306c0.0001,0.0001,0.0001,0.0001,0,0.0001c-0.0021,0,-0.2063,-0.0655,-1.0102,-0.1299c-0.3779,-0.0303,-0.6736,-0.3361,-0.6891,-0.7125c-0.0155,-0.3764,0.2542,-0.7051,0.6283,-0.7659c0.0516,-0.0084,0.1258,-0.0186,0.2126,-0.0304c0.1466,-0.0199,0.5303,-0.0721,0.6527,-0.112c0.1958,-0.0971,0.3237,-0.1747,0.3802,-0.2309c0.0921,-0.0916,0.1651,-0.1973,0.2232,-0.3235c0.05,-0.1087,0.0744,-0.2303,0.0744,-0.3714c0,-0.2106,-0.0319,-0.3834,-0.0949,-0.5137c-0.0631,-0.1303,-0.1411,-0.2311,-0.2383,-0.3076c-0.1113,-0.0875,-0.2372,-0.1512,-0.3845,-0.1942c-0.3603,-0.1054,-0.7707,-0.0972,-1.0821,0.0147c-0.1616,0.0581,-0.2989,0.1371,-0.4196,0.2415c-0.1181,0.1021,-0.2135,0.2256,-0.2916,0.3774c-0.0817,0.1589,-0.137,0.3445,-0.1644,0.552c-0.0537,0.4082,-0.4307,0.6956,-0.8409,0.6423c-0.4107,-0.0533,-0.7001,-0.4275,-0.6464,-0.8356c0.0496,-0.3772,0.1559,-0.7261,0.316,-1.0372c0.1645,-0.3199,0.3806,-0.5969,0.6423,-0.8232c0.2591,-0.2242,0.5601,-0.3988,0.8944,-0.5189c0.3291,-0.1182,0.6874,-0.1781,1.0651,-0.1781c0.3235,0,0.6432,0.0455,0.9502,0.1351c0.3308,0.0968,0.6311,0.2501,0.8927,0.4558c0.2755,0.217,0.4971,0.4963,0.6588,0.8302c0.1614,0.3337,0.2431,0.7237,0.2431,1.1596c0,0.3546,-0.0708,0.6882,-0.2105,0.9917c-0.1211,0.2627,-0.2799,0.4986,-0.473,0.7024c0.0724,0.0549,0.1371,0.1117,0.1953,0.171c0.2296,0.2332,0.4066,0.5087,0.5257,0.8185c0.1151,0.2994,0.1735,0.6244,0.1735,0.9662c0,0.3771,-0.0812,0.742,-0.2413,1.0847c-0.1562,0.3338,-0.3754,0.6302,-0.6518,0.8813c-0.2712,0.2462,-0.5941,0.4435,-0.9598,0.5865C16.3531,19.427,15.95,19.5,15.5229,19.5zM16.1682,14.0149c0.0008,-0.0004,0.0016,-0.0009,0.0025,-0.0012C16.1698,14.014,16.169,14.0144,16.1682,14.0149z" id="b" fill="#F5F5F5"/>
    <rect x="2" y="8" width="20" height="1" id="b" fill="#F5F5F5"/>
    <path d="M7.5,6h-0.5c-0.2761,0,-0.5,-0.2239,-0.5,-0.5V2.25c0,-0.4142,0.3358,-0.75,0.75,-0.75h0c0.4142,0,0.75,0.3358,0.75,0.75V5.5C8,5.7761,7.7761,6,7.5,6zM17.5,5.5V2.25c0,-0.4142,-0.3358,-0.75,-0.75,-0.75h0c-0.4142,0,-0.75,0.3358,-0.75,0.75V5.5c0,0.2761,0.2239,0.5,0.5,0.5h0.5C17.2761,6,17.5,5.7761,17.5,5.5z" id="c1" fill="#0891b2"/>
    <path d="M2,18.9875C2,20.6513,3.3487,22,5.0125,22h13.975C20.6513,22,22,20.6513,22,18.9875V9H2V18.9875zM12.855,16.2422l0.0211,-0.0105c0.3702,-0.1842,0.821,-0.035,1.0062,0.3333c0.0535,0.1063,0.079,0.2194,0.0793,0.3308c0.0153,0.0539,0.0324,0.1099,0.051,0.1677c0.0299,0.0929,0.0713,0.188,0.123,0.2836c0.0478,0.0883,0.1099,0.1766,0.1846,0.2627c0.057,0.0656,0.1328,0.1264,0.2252,0.1807c0.1044,0.0614,0.2364,0.1135,0.3928,0.155c0.1593,0.0424,0.356,0.0638,0.5845,0.0638c0.2381,0,0.4564,-0.0381,0.6486,-0.1134c0.1975,-0.0772,0.3601,-0.1753,0.4974,-0.2999c0.131,-0.119,0.2302,-0.2528,0.3032,-0.409c0.0683,-0.1463,0.1017,-0.2958,0.1017,-0.4567c0,-0.1614,-0.0244,-0.3034,-0.0746,-0.434c-0.0461,-0.1197,-0.1105,-0.2207,-0.1971,-0.3086c-0.0215,-0.0219,-0.1143,-0.1026,-0.4116,-0.2306c0.0001,0.0001,0.0001,0.0001,0,0.0001c-0.0021,0,-0.2063,-0.0655,-1.0102,-0.1299c-0.3779,-0.0303,-0.6736,-0.3361,-0.6891,-0.7125c-0.0155,-0.3764,0.2542,-0.7051,0.6283,-0.7659c0.0516,-0.0084,0.1258,-0.0186,0.2126,-0.0304c0.1466,-0.0199,0.5303,-0.0721,0.6527,-0.112c0.1958,-0.0971,0.3237,-0.1747,0.3802,-0.2309c0.0921,-0.0916,0.1651,-0.1973,0.2232,-0.3235c0.05,-0.1087,0.0744,-0.2303,0.0744,-0.3714c0,-0.2106,-0.0319,-0.3834,-0.0949,-0.5137c-0.0631,-0.1303,-0.1411,-0.2311,-0.2383,-0.3076c-0.1113,-0.0875,-0.2372,-0.1512,-0.3845,-0.1942c-0.3603,-0.1054,-0.7707,-0.0972,-1.0821,0.0147c-0.1616,0.0581,-0.2989,0.1371,-0.4196,0.2415c-0.1181,0.1021,-0.2135,0.2256,-0.2916,0.3774c-0.0817,0.1589,-0.137,0.3445,-0.1644,0.552c-0.0537,0.4082,-0.4307,0.6956,-0.8409,0.6423c-0.4107,-0.0533,-0.7001,-0.4275,-0.6464,-0.8356c0.0496,-0.3772,0.1559,-0.7261,0.316,-1.0372c0.1645,-0.3199,0.3806,-0.5969,0.6423,-0.8232c0.2591,-0.2242,0.5601,-0.3988,0.8944,-0.5189c0.3291,-0.1182,0.6874,-0.1781,1.0651,-0.1781c0.3235,0,0.6432,0.0455,0.9502,0.1351c0.3308,0.0968,0.6311,0.2501,0.8927,0.4558c0.2755,0.217,0.4971,0.4963,0.6588,0.8302c0.1614,0.3337,0.2431,0.7237,0.2431,1.1596c0,0.3546,-0.0708,0.6882,-0.2105,0.9917c-0.1211,0.2627,-0.2799,0.4986,-0.473,0.7024c0.0724,0.0549,0.1371,0.1117,0.1953,0.171c0.2296,0.2332,0.4066,0.5087,0.5257,0.8185c0.1151,0.2994,0.1735,0.6244,0.1735,0.9662c0,0.3771,-0.0812,0.742,-0.2413,1.0847c-0.1562,0.3338,-0.3754,0.6302,-0.6518,0.8813c-0.2712,0.2462,-0.5941,0.4435,-0.9598,0.5865c-0.3679,0.144,-0.771,0.217,-1.1981,0.217c-0.3593,0,-0.6864,-0.0385,-0.9722,-0.1145c-0.2884,-0.0766,-0.5469,-0.1816,-0.7685,-0.3119c-0.2326,-0.1365,-0.4337,-0.3015,-0.5975,-0.49c-0.146,-0.1683,-0.2703,-0.3464,-0.3697,-0.5298c-0.0953,-0.1758,-0.1729,-0.3559,-0.2306,-0.535c-0.0497,-0.1534,-0.0915,-0.3015,-0.1241,-0.4395C12.3808,16.7431,12.5441,16.3966,12.855,16.2422zM9.7019,12.6624c-0.0709,-0.148,-0.1573,-0.2633,-0.264,-0.3526c-0.1136,-0.0948,-0.2418,-0.1634,-0.3917,-0.2093c-0.1753,-0.0537,-0.3486,-0.0798,-0.5298,-0.0798c-0.2033,0,-0.39,0.0307,-0.555,0.0911c-0.1616,0.0593,-0.2989,0.1398,-0.4194,0.2462c-0.1184,0.1044,-0.2137,0.2303,-0.2918,0.3852c-0.0817,0.1622,-0.137,0.3516,-0.1642,0.563c-0.0537,0.4164,-0.4307,0.7103,-0.8408,0.6555c-0.4107,-0.0544,-0.7002,-0.436,-0.6466,-0.8524c0.0495,-0.3845,0.1559,-0.7405,0.316,-1.0581c0.1646,-0.3266,0.3809,-0.6093,0.6426,-0.8402c0.2589,-0.2286,0.5599,-0.4067,0.8942,-0.5294c0.6129,-0.2246,1.3513,-0.2445,2.0288,-0.0368c0.3387,0.1037,0.6453,0.269,0.9115,0.4913c0.2731,0.2282,0.495,0.5182,0.6597,0.8622c0.1673,0.3494,0.2522,0.76,0.2522,1.2202c0,0.3742,-0.0609,0.7311,-0.1811,1.0607c-0.1104,0.3029,-0.2603,0.596,-0.4455,0.8711c-0.1723,0.256,-0.373,0.5087,-0.5965,0.7513c-0.2018,0.219,-0.4167,0.446,-0.6387,0.6748L8.106,17.9579h2.5952c0.4142,0,0.75,0.3405,0.75,0.7604c0,0.4199,-0.3358,0.7604,-0.75,0.7604H6.8805c-0.1096,0,-0.2087,0.0016,-0.2973,0.0048c-0.0802,0.003,-0.1513,0.0073,-0.2128,0.0132c-0.0237,0.0022,-0.0472,0.0033,-0.0707,0.0033c-0.2869,0,-0.5515,-0.1669,-0.6768,-0.4333c-0.1354,-0.2882,-0.079,-0.6314,0.1414,-0.8593l2.607,-2.6964c0.2139,-0.2205,0.4198,-0.4379,0.6127,-0.6474c0.1717,-0.1863,0.3243,-0.3782,0.4537,-0.5705c0.1162,-0.1726,0.2095,-0.3546,0.2775,-0.541c0.0593,-0.1627,0.0881,-0.3372,0.0881,-0.5336C9.8035,12.9902,9.7693,12.8032,9.7019,12.6624zM22,6.0125V8H2V6.0125c0,-1.6595,1.3421,-3.005,3,-3.0119V4.5h4.5V3h5v1.5h4.5V3.0006C20.6579,3.0075,22,4.353,22,6.0125z" id="c1" fill="#0891b2"/>
  </g>
</svg>
