<?xml version="1.0" encoding="UTF-8"?>
<!DOCTYPE svg PUBLIC "-//W3C//DTD SVG 1.1//EN" "http://www.w3.org/Graphics/SVG/1.1/DTD/svg11.dtd">
<svg version="1.1" id="Layer_1" xmlns="http://www.w3.org/2000/svg" xmlns:xlink="http://www.w3.org/1999/xlink" x="0px" y="0px" width="24px" height="24px" viewBox="0 0 24 24" enable-background="new 0 0 24 24" xml:space="preserve">
  <g id="icon">
    <path d="M19.325,21.3H4.775C3.629,21.3,2.7,20.371,2.7,19.225V5.875C2.7,4.729,3.629,3.8,4.775,3.8h14.55C20.471,3.8,21.4,4.729,21.4,5.875v13.35C21.4,20.371,20.471,21.3,19.325,21.3z" id="b" fill="#F5F5F5"/>
    <path d="M2,6.75v11.5c0,2.0711,1.6789,3.75,3.75,3.75h12.5c2.0711,0,3.75,-1.6789,3.75,-3.75v-11.5c0,-2.0711,-1.6789,-3.75,-3.75,-3.75h-12.5C3.6789,3,2,4.6789,2,6.75zM20.5,7.5H3.5v-0.75C3.5,5.5074,4.5074,4.5,5.75,4.5h12.5c1.2426,0,2.25,1.0074,2.25,2.25V7.5zM3.5,9h17v9.25c0,1.2426,-1.0074,2.25,-2.25,2.25h-12.5C4.5074,20.5,3.5,19.4926,3.5,18.25V9z" id="c1" fill="#0891b2"/>
    <path d="M7.25,6L7.25,6c-0.4142,0,-0.75,-0.3358,-0.75,-0.75v-3c0,-0.4142,0.3358,-0.75,0.75,-0.75h0c0.4142,0,0.75,0.3358,0.75,0.75v3C8,5.6642,7.6642,6,7.25,6zM17.5,5.25v-3c0,-0.4142,-0.3358,-0.75,-0.75,-0.75h0c-0.4142,0,-0.75,0.3358,-0.75,0.75v3c0,0.4142,0.3358,0.75,0.75,0.75h0C17.1642,6,17.5,5.6642,17.5,5.25z" id="c1" fill="#0891b2"/>
    <path d="M6.2497,18.9706c-0.2869,0,-0.5515,-0.1646,-0.6768,-0.4274c-0.1354,-0.2843,-0.079,-0.6228,0.1414,-0.8476l2.607,-2.6597c0.2139,-0.2175,0.4198,-0.432,0.6127,-0.6386c0.1717,-0.1838,0.3243,-0.3731,0.4537,-0.5627c0.1162,-0.1702,0.2095,-0.3497,0.2775,-0.5336c0.0593,-0.1605,0.0881,-0.3326,0.0881,-0.5263c0,-0.2251,-0.0342,-0.4096,-0.1016,-0.5485c-0.0709,-0.146,-0.1573,-0.2597,-0.264,-0.3478c-0.1136,-0.0935,-0.2418,-0.1611,-0.3917,-0.2065c-0.1753,-0.053,-0.3486,-0.0787,-0.5298,-0.0787c-0.2033,0,-0.39,0.0302,-0.555,0.0899c-0.1616,0.0584,-0.2989,0.1379,-0.4194,0.2429c-0.1184,0.103,-0.2137,0.2272,-0.2918,0.38c-0.0817,0.16,-0.137,0.3468,-0.1642,0.5553c-0.0537,0.4107,-0.4307,0.7006,-0.8408,0.6466c-0.4107,-0.0536,-0.7002,-0.4301,-0.6466,-0.8408c0.0495,-0.3792,0.1559,-0.7304,0.316,-1.0437c0.1646,-0.3222,0.3809,-0.601,0.6426,-0.8287c0.2589,-0.2254,0.5599,-0.4011,0.8942,-0.5221c0.6129,-0.2216,1.3513,-0.2412,2.0288,-0.0363c0.3387,0.1023,0.6453,0.2654,0.9115,0.4846c0.2731,0.2251,0.495,0.5112,0.6597,0.8504c0.1673,0.3447,0.2522,0.7496,0.2522,1.2036c0,0.3691,-0.0609,0.7211,-0.1811,1.0463c-0.1104,0.2988,-0.2603,0.5878,-0.4455,0.8593c-0.1723,0.2525,-0.373,0.5018,-0.5965,0.7411c-0.2018,0.216,-0.4167,0.44,-0.6387,0.6656L8.056,17.4495h2.5952c0.4142,0,0.75,0.3358,0.75,0.75s-0.3358,0.75,-0.75,0.75H6.8305c-0.1096,0,-0.2087,0.0015,-0.2973,0.0048c-0.0802,0.003,-0.1513,0.0073,-0.2128,0.013C6.2967,18.9695,6.2731,18.9706,6.2497,18.9706zM16.671,18.9316c0.3657,-0.1439,0.6885,-0.3424,0.9598,-0.5902c0.2764,-0.2527,0.4956,-0.551,0.6518,-0.8869c0.1601,-0.3448,0.2413,-0.7121,0.2413,-1.0915c0,-0.3439,-0.0584,-0.671,-0.1735,-0.9723c-0.1192,-0.3118,-0.2961,-0.589,-0.5257,-0.8237c-0.0582,-0.0596,-0.123,-0.1167,-0.1953,-0.172c0.1931,-0.2052,0.3519,-0.4425,0.473,-0.7069c0.1397,-0.3054,0.2105,-0.6412,0.2105,-0.998c0,-0.4386,-0.0817,-0.8311,-0.2431,-1.1669c-0.1617,-0.336,-0.3833,-0.6171,-0.6588,-0.8355c-0.2615,-0.2071,-0.5618,-0.3613,-0.8927,-0.4587c-0.307,-0.0902,-0.6267,-0.1359,-0.9502,-0.1359c-0.3777,0,-0.736,0.0603,-1.0651,0.1792c-0.3343,0.1209,-0.6352,0.2966,-0.8944,0.5222c-0.2617,0.2278,-0.4778,0.5065,-0.6423,0.8284c-0.1601,0.313,-0.2665,0.6642,-0.316,1.0438c-0.0538,0.4107,0.2356,0.7872,0.6464,0.8409c0.4102,0.0536,0.7872,-0.2356,0.8409,-0.6464c0.0273,-0.2087,0.0826,-0.3956,0.1644,-0.5555c0.0781,-0.1528,0.1735,-0.2771,0.2916,-0.3798c0.1207,-0.105,0.258,-0.1846,0.4196,-0.243c0.3114,-0.1126,0.7218,-0.1208,1.0821,-0.0148c0.1474,0.0433,0.2732,0.1074,0.3845,0.1954c0.0972,0.0771,0.1752,0.1785,0.2383,0.3096c0.063,0.1311,0.0949,0.3051,0.0949,0.5169c0,0.142,-0.0244,0.2644,-0.0744,0.3738c-0.0582,0.127,-0.1312,0.2334,-0.2232,0.3256c-0.0565,0.0565,-0.1844,0.1347,-0.3802,0.2324c-0.1224,0.0401,-0.5061,0.0927,-0.6527,0.1127c-0.0868,0.0119,-0.161,0.0222,-0.2126,0.0306c-0.3742,0.0612,-0.6439,0.3919,-0.6283,0.7707c0.0155,0.3788,0.3111,0.6866,0.6891,0.717c0.8038,0.0648,1.0081,0.1307,1.0102,0.1307c0.0001,0,0.0001,0,0,-0.0001c0.2974,0.1288,0.3901,0.2101,0.4116,0.2321c0.0866,0.0885,0.151,0.1901,0.1971,0.3105c0.0502,0.1314,0.0746,0.2743,0.0746,0.4367c0,0.1619,-0.0333,0.3124,-0.1017,0.4596c-0.073,0.1571,-0.1723,0.2918,-0.3032,0.4115c-0.1373,0.1253,-0.2999,0.224,-0.4974,0.3018c-0.1923,0.0757,-0.4105,0.1141,-0.6486,0.1141c-0.2285,0,-0.4252,-0.0216,-0.5845,-0.0642c-0.1564,-0.0418,-0.2884,-0.0943,-0.3928,-0.156c-0.0924,-0.0546,-0.1682,-0.1159,-0.2252,-0.1819c-0.0748,-0.0867,-0.1368,-0.1756,-0.1846,-0.2644c-0.0518,-0.0962,-0.0932,-0.1919,-0.123,-0.2854c-0.0187,-0.0582,-0.0357,-0.1145,-0.051,-0.1688c-0.0003,-0.1121,-0.0258,-0.2259,-0.0793,-0.3329c-0.1852,-0.3707,-0.636,-0.5208,-1.0062,-0.3354l-0.0211,0.0105c-0.3109,0.1554,-0.4742,0.5041,-0.3947,0.8424c0.0326,0.1388,0.0744,0.2879,0.1241,0.4422c0.0577,0.1802,0.1354,0.3615,0.2306,0.5384c0.0993,0.1845,0.2236,0.3638,0.3697,0.5331c0.1638,0.1897,0.3649,0.3557,0.5975,0.4931c0.2216,0.1311,0.4802,0.2367,0.7685,0.3138c0.2858,0.0765,0.6129,0.1152,0.9722,0.1152C15.9,19.15,16.3031,19.0765,16.671,18.9316zM16.1207,13.6289c-0.0009,0.0004,-0.0017,0.0008,-0.0025,0.0012C16.119,13.6297,16.1198,13.6293,16.1207,13.6289z" id="c2" fill="#0891b2"/>
  </g>
</svg>
